{"glyphs":{"0":{"ha":1217,"x_min":37,"x_max":1217,"o":"m 1217 314 l 38 314 l 38 476 l 485 476 l 485 478 l 485 490 q 485 491 485 491 l 485 493 q 486 499 485 496 q 487 505 487 502 q 487 509 487 506 q 489 514 488 511 q 540 591 501 561 q 628 621 578 621 q 700 602 667 621 q 752 550 733 582 q 771 478 771 517 l 771 476 l 1217 476 l 1217 314 m 629 343 q 695 361 665 343 q 743 410 725 379 q 761 476 761 440 q 743 542 761 511 q 695 590 725 572 q 629 607 665 607 q 562 590 593 607 q 514 542 532 572 q 497 476 497 511 q 514 409 497 440 q 562 361 532 379 q 629 343 593 343 m 689 575 q 697 570 693 573 q 706 564 701 567 l 548 564 q 566 577 554 570 q 585 585 579 583 q 628 594 602 594 q 672 585 650 594 l 689 575 m 716 555 q 745 476 745 517 q 739 435 745 454 q 718 399 735 420 l 563 399 l 716 555 m 539 395 q 516 433 523 415 q 509 476 509 453 q 510 494 509 488 q 517 517 511 507 q 537 550 523 536 l 694 550 l 539 395 m 64 423 l 90 423 l 90 347 l 119 347 l 119 423 l 145 423 l 145 450 l 64 450 l 64 423 m 187 379 l 196 379 l 208 356 q 220 347 213 347 l 246 347 l 228 379 q 210 389 220 389 l 213 389 q 228 397 220 389 q 236 414 236 404 q 225 439 236 429 q 199 450 214 450 l 157 450 l 157 347 l 187 347 l 187 379 m 286 347 l 286 450 l 257 450 l 257 347 l 286 347 m 341 450 l 296 347 l 320 347 q 333 357 327 347 l 336 364 l 371 364 l 376 357 q 388 347 381 347 l 411 347 l 367 450 l 341 450 m 422 347 l 487 347 l 487 374 l 450 374 l 450 450 l 422 450 l 422 347 m 847 450 q 809 435 824 450 q 795 397 795 420 q 809 359 795 373 q 847 344 824 344 q 886 359 871 344 q 901 397 901 373 q 886 435 901 420 q 847 450 871 450 m 980 412 q 983 392 980 400 l 951 438 q 946 445 949 444 q 939 447 944 447 l 914 447 l 914 346 l 945 346 l 945 386 q 942 405 945 391 l 976 352 q 989 346 982 346 l 1010 346 l 1010 447 l 980 447 l 980 412 m 1030 346 l 1095 346 l 1095 373 l 1059 373 l 1059 447 l 1030 447 l 1030 346 m 1153 376 q 1155 386 1153 382 l 1192 447 l 1164 447 q 1153 441 1156 447 l 1141 421 q 1139 412 1139 417 q 1136 405 1138 408 q 1133 421 1136 413 l 1122 441 q 1110 447 1118 447 l 1083 447 l 1120 386 q 1122 376 1122 383 l 1122 346 l 1153 346 l 1153 376 m 197 421 q 205 414 205 421 q 203 408 205 411 q 198 406 201 406 l 187 406 l 187 421 l 197 421 m 847 373 q 830 379 837 373 q 823 397 823 386 q 830 414 823 407 q 847 421 837 421 q 864 414 857 421 q 870 397 870 407 q 864 379 870 386 q 847 373 857 373 m 349 398 q 352 405 350 399 q 353 417 353 411 l 355 417 q 358 398 355 404 l 364 385 l 344 385 l 349 398 m 586 364 q 550 386 568 372 l 706 386 q 689 373 691 374 q 681 369 686 372 q 672 364 676 365 q 662 362 668 364 q 649 359 656 360 q 628 356 639 356 q 586 364 604 356 m 43 218 l 50 218 l 50 247 l 78 247 l 78 254 l 50 254 l 50 277 l 84 277 l 84 285 l 43 285 l 43 218 m 121 224 q 108 230 113 224 q 102 244 102 235 l 102 285 l 95 285 l 95 244 q 102 224 95 231 q 121 217 109 217 q 141 224 133 217 q 149 244 149 232 l 149 285 l 140 285 l 140 244 q 135 229 140 234 q 121 224 130 224 m 166 218 l 202 218 l 202 225 l 174 225 l 174 285 l 166 285 l 166 218 m 217 218 l 254 218 l 254 225 l 223 225 l 223 285 l 217 285 l 217 218 m 346 285 q 343 284 345 285 q 342 282 342 284 l 321 233 q 320 226 320 230 l 319 226 q 318 233 319 230 l 296 282 q 291 285 296 285 l 286 285 l 316 218 l 323 218 l 351 285 l 346 285 m 403 218 l 403 225 l 368 225 l 368 248 l 397 248 l 397 256 l 368 256 l 368 277 l 403 277 l 403 285 l 362 285 l 362 218 l 403 218 m 426 246 l 435 246 l 455 221 q 463 218 459 218 l 467 218 l 447 245 q 444 247 447 247 l 444 247 q 455 253 450 248 q 461 265 461 258 q 455 279 461 273 q 441 285 449 285 l 417 285 l 417 218 l 426 218 l 426 246 m 472 227 q 482 220 476 223 q 493 217 488 217 q 509 222 503 217 q 514 237 514 228 q 495 257 514 252 q 484 268 484 262 q 494 278 484 278 q 506 275 500 278 q 510 277 508 274 l 511 279 q 494 285 506 285 q 481 281 486 285 q 475 268 475 276 q 493 250 475 257 q 508 237 508 244 q 504 227 508 231 q 493 224 500 224 q 479 230 486 226 q 476 230 479 231 q 473 228 474 230 l 472 227 m 536 218 l 536 285 l 530 285 l 530 218 l 536 218 m 586 285 q 561 275 571 285 q 551 251 551 265 q 561 227 551 237 q 586 217 571 217 q 611 226 601 217 q 621 251 621 236 q 611 276 621 266 q 586 285 601 285 m 680 235 q 681 230 680 231 l 646 283 q 640 285 643 285 l 634 285 l 634 218 l 642 218 l 642 270 l 641 275 l 680 220 q 682 218 680 218 l 689 218 l 689 285 l 680 285 l 680 235 m 586 224 q 567 232 576 224 q 558 251 558 240 q 566 270 558 262 q 586 278 575 278 q 605 270 597 278 q 613 251 613 262 q 605 232 613 240 q 586 224 597 224 m 441 277 q 449 274 445 277 q 453 265 453 270 q 449 257 453 261 q 441 254 445 254 l 426 254 l 426 277 l 441 277 m 1198 252 q 1196 256 1198 254 l 1178 273 l 1176 270 q 1177 264 1173 267 l 1186 255 l 727 255 l 727 248 l 1185 248 l 1177 239 q 1176 233 1174 236 l 1178 230 l 1196 248 q 1198 252 1198 249 m 514 184 q 479 170 493 184 q 464 134 464 156 q 478 99 464 113 q 514 84 492 84 q 551 99 536 84 q 566 134 566 113 q 551 170 566 155 q 514 184 536 184 m 761 100 q 800 84 780 84 q 826 93 816 84 q 836 116 836 102 q 806 149 836 143 q 796 155 796 152 q 800 158 796 158 q 806 157 801 158 q 812 155 810 155 q 825 163 821 155 l 830 172 q 817 181 825 178 q 800 184 808 184 q 776 176 786 184 q 767 155 767 168 q 775 136 767 143 q 800 123 783 129 q 806 116 806 121 q 800 111 806 111 q 791 113 795 111 q 786 116 787 115 q 778 118 783 118 q 765 111 771 118 l 761 100 m 883 134 q 897 99 883 113 q 932 84 911 84 q 954 90 944 84 q 969 104 965 96 l 963 113 q 953 117 959 117 q 944 114 947 117 q 931 111 936 111 q 916 117 922 111 q 910 134 910 124 q 916 151 910 144 q 931 158 922 158 q 939 156 936 158 q 944 154 942 155 q 952 151 947 151 q 963 155 959 151 l 969 164 q 954 178 965 172 q 932 184 944 184 q 897 170 911 184 q 883 134 883 155 m 1027 184 q 991 170 1005 184 q 976 134 976 156 q 991 99 976 113 q 1027 84 1005 84 q 1063 99 1049 84 q 1078 134 1078 113 q 1063 170 1078 156 q 1027 184 1049 184 m 116 85 l 116 113 l 89 113 q 75 108 81 113 l 113 158 q 116 170 116 162 l 116 183 l 41 183 l 41 157 l 69 157 q 78 161 75 157 l 43 111 q 38 106 40 108 q 37 99 37 103 l 37 85 l 116 85 m 196 85 l 196 113 l 157 113 l 157 122 l 189 122 l 189 146 l 157 146 l 157 157 l 196 157 l 196 183 l 130 183 l 130 85 l 196 85 m 202 157 l 228 157 l 228 85 l 256 85 l 256 157 l 279 157 l 279 183 l 202 183 l 202 157 m 313 183 l 270 85 l 292 85 q 299 88 296 85 q 304 96 302 91 l 307 102 l 342 102 l 345 96 q 351 88 346 91 q 358 85 355 85 l 380 85 l 338 183 l 313 183 m 388 85 l 417 85 l 417 119 l 449 119 l 449 143 l 417 143 l 417 157 l 455 157 l 455 183 l 388 183 l 388 85 m 640 149 q 643 131 640 137 l 614 174 q 609 181 612 179 q 601 183 607 183 l 579 183 l 579 85 l 608 85 l 608 125 q 604 142 608 134 l 605 142 l 638 91 q 649 85 642 85 l 669 85 l 669 183 l 640 183 l 640 149 m 680 157 l 704 157 l 704 85 l 733 85 l 733 157 l 759 157 l 759 183 l 680 183 l 680 157 m 1181 183 q 1170 174 1175 183 l 1153 139 q 1150 128 1150 135 l 1148 128 q 1145 139 1148 135 l 1129 174 q 1123 180 1126 178 q 1116 183 1121 183 l 1092 183 l 1092 85 l 1120 85 l 1120 128 q 1116 143 1120 134 l 1118 143 l 1136 102 q 1150 94 1139 94 q 1161 102 1157 94 l 1180 143 q 1178 136 1179 140 q 1178 128 1178 132 l 1178 85 l 1205 85 l 1205 183 l 1181 183 m 514 111 q 498 117 505 111 q 492 134 492 124 q 498 151 492 144 q 514 158 505 158 q 530 151 524 158 q 536 134 536 145 q 530 117 536 124 q 514 111 524 111 m 1027 111 q 1011 117 1018 111 q 1005 134 1005 124 q 1011 151 1005 145 q 1027 158 1018 158 q 1044 151 1036 158 q 1051 134 1051 144 q 1044 117 1051 124 q 1027 111 1036 111 m 321 134 q 324 152 324 141 l 326 152 q 329 134 326 139 l 335 120 l 316 120 l 321 134 m 844 99 q 848 88 844 93 q 859 84 852 84 q 869 88 865 84 q 873 99 873 93 q 869 110 873 105 q 859 114 865 114 q 848 110 852 114 q 844 99 844 105 z "},"1":{"ha":1217,"x_min":37,"x_max":1217,"o":"m 1217 314 l 38 314 l 38 476 l 485 476 l 485 478 l 485 490 q 485 491 485 491 l 485 493 q 486 499 485 496 q 487 505 487 502 q 487 509 487 506 q 489 514 488 511 q 540 591 501 561 q 628 621 578 621 q 700 602 667 621 q 752 550 733 582 q 771 478 771 517 l 771 476 l 1217 476 l 1217 314 m 629 343 q 695 361 665 343 q 743 410 725 379 q 761 476 761 440 q 743 542 761 511 q 695 590 725 572 q 629 607 665 607 q 562 590 593 607 q 514 542 532 572 q 497 476 497 511 q 514 409 497 440 q 562 361 532 379 q 629 343 593 343 m 689 575 q 697 570 693 573 q 706 564 701 567 l 548 564 q 566 577 554 570 q 585 585 579 583 q 628 594 602 594 q 672 585 650 594 l 689 575 m 716 555 q 745 476 745 517 q 739 435 745 454 q 718 399 735 420 l 563 399 l 716 555 m 539 395 q 516 433 523 415 q 509 476 509 453 q 510 494 509 488 q 517 517 511 507 q 537 550 523 536 l 694 550 l 539 395 m 64 423 l 90 423 l 90 347 l 119 347 l 119 423 l 145 423 l 145 450 l 64 450 l 64 423 m 187 379 l 196 379 l 208 356 q 220 347 213 347 l 246 347 l 228 379 q 210 389 220 389 l 213 389 q 228 397 220 389 q 236 414 236 404 q 225 439 236 429 q 199 450 214 450 l 157 450 l 157 347 l 187 347 l 187 379 m 286 347 l 286 450 l 257 450 l 257 347 l 286 347 m 341 450 l 296 347 l 320 347 q 333 357 327 347 l 336 364 l 371 364 l 376 357 q 388 347 381 347 l 411 347 l 367 450 l 341 450 m 422 347 l 487 347 l 487 374 l 450 374 l 450 450 l 422 450 l 422 347 m 847 450 q 809 435 824 450 q 795 397 795 420 q 809 359 795 373 q 847 344 824 344 q 886 359 871 344 q 901 397 901 373 q 886 435 901 420 q 847 450 871 450 m 980 412 q 983 392 980 400 l 951 438 q 946 445 949 444 q 939 447 944 447 l 914 447 l 914 346 l 945 346 l 945 386 q 942 405 945 391 l 976 352 q 989 346 982 346 l 1010 346 l 1010 447 l 980 447 l 980 412 m 1030 346 l 1095 346 l 1095 373 l 1059 373 l 1059 447 l 1030 447 l 1030 346 m 1153 376 q 1155 386 1153 382 l 1192 447 l 1164 447 q 1153 441 1156 447 l 1141 421 q 1139 412 1139 417 q 1136 405 1138 408 q 1133 421 1136 413 l 1122 441 q 1110 447 1118 447 l 1083 447 l 1120 386 q 1122 376 1122 383 l 1122 346 l 1153 346 l 1153 376 m 197 421 q 205 414 205 421 q 203 408 205 411 q 198 406 201 406 l 187 406 l 187 421 l 197 421 m 847 373 q 830 379 837 373 q 823 397 823 386 q 830 414 823 407 q 847 421 837 421 q 864 414 857 421 q 870 397 870 407 q 864 379 870 386 q 847 373 857 373 m 349 398 q 352 405 350 399 q 353 417 353 411 l 355 417 q 358 398 355 404 l 364 385 l 344 385 l 349 398 m 586 364 q 550 386 568 372 l 706 386 q 689 373 691 374 q 681 369 686 372 q 672 364 676 365 q 662 362 668 364 q 649 359 656 360 q 628 356 639 356 q 586 364 604 356 m 43 218 l 50 218 l 50 247 l 78 247 l 78 254 l 50 254 l 50 277 l 84 277 l 84 285 l 43 285 l 43 218 m 121 224 q 108 230 113 224 q 102 244 102 235 l 102 285 l 95 285 l 95 244 q 102 224 95 231 q 121 217 109 217 q 141 224 133 217 q 149 244 149 232 l 149 285 l 140 285 l 140 244 q 135 229 140 234 q 121 224 130 224 m 166 218 l 202 218 l 202 225 l 174 225 l 174 285 l 166 285 l 166 218 m 217 218 l 254 218 l 254 225 l 223 225 l 223 285 l 217 285 l 217 218 m 346 285 q 343 284 345 285 q 342 282 342 284 l 321 233 q 320 226 320 230 l 319 226 q 318 233 319 230 l 296 282 q 291 285 296 285 l 286 285 l 316 218 l 323 218 l 351 285 l 346 285 m 403 218 l 403 225 l 368 225 l 368 248 l 397 248 l 397 256 l 368 256 l 368 277 l 403 277 l 403 285 l 362 285 l 362 218 l 403 218 m 426 246 l 435 246 l 455 221 q 463 218 459 218 l 467 218 l 447 245 q 444 247 447 247 l 444 247 q 455 253 450 248 q 461 265 461 258 q 455 279 461 273 q 441 285 449 285 l 417 285 l 417 218 l 426 218 l 426 246 m 472 227 q 482 220 476 223 q 493 217 488 217 q 509 222 503 217 q 514 237 514 228 q 495 257 514 252 q 484 268 484 262 q 494 278 484 278 q 506 275 500 278 q 510 277 508 274 l 511 279 q 494 285 506 285 q 481 281 486 285 q 475 268 475 276 q 493 250 475 257 q 508 237 508 244 q 504 227 508 231 q 493 224 500 224 q 479 230 486 226 q 476 230 479 231 q 473 228 474 230 l 472 227 m 536 218 l 536 285 l 530 285 l 530 218 l 536 218 m 586 285 q 561 275 571 285 q 551 251 551 265 q 561 227 551 237 q 586 217 571 217 q 611 226 601 217 q 621 251 621 236 q 611 276 621 266 q 586 285 601 285 m 680 235 q 681 230 680 231 l 646 283 q 640 285 643 285 l 634 285 l 634 218 l 642 218 l 642 270 l 641 275 l 680 220 q 682 218 680 218 l 689 218 l 689 285 l 680 285 l 680 235 m 586 224 q 567 232 576 224 q 558 251 558 240 q 566 270 558 262 q 586 278 575 278 q 605 270 597 278 q 613 251 613 262 q 605 232 613 240 q 586 224 597 224 m 441 277 q 449 274 445 277 q 453 265 453 270 q 449 257 453 261 q 441 254 445 254 l 426 254 l 426 277 l 441 277 m 1198 252 q 1196 256 1198 254 l 1178 273 l 1176 270 q 1177 264 1173 267 l 1186 255 l 727 255 l 727 248 l 1185 248 l 1177 239 q 1176 233 1174 236 l 1178 230 l 1196 248 q 1198 252 1198 249 m 514 184 q 479 170 493 184 q 464 134 464 156 q 478 99 464 113 q 514 84 492 84 q 551 99 536 84 q 566 134 566 113 q 551 170 566 155 q 514 184 536 184 m 761 100 q 800 84 780 84 q 826 93 816 84 q 836 116 836 102 q 806 149 836 143 q 796 155 796 152 q 800 158 796 158 q 806 157 801 158 q 812 155 810 155 q 825 163 821 155 l 830 172 q 817 181 825 178 q 800 184 808 184 q 776 176 786 184 q 767 155 767 168 q 775 136 767 143 q 800 123 783 129 q 806 116 806 121 q 800 111 806 111 q 791 113 795 111 q 786 116 787 115 q 778 118 783 118 q 765 111 771 118 l 761 100 m 883 134 q 897 99 883 113 q 932 84 911 84 q 954 90 944 84 q 969 104 965 96 l 963 113 q 953 117 959 117 q 944 114 947 117 q 931 111 936 111 q 916 117 922 111 q 910 134 910 124 q 916 151 910 144 q 931 158 922 158 q 939 156 936 158 q 944 154 942 155 q 952 151 947 151 q 963 155 959 151 l 969 164 q 954 178 965 172 q 932 184 944 184 q 897 170 911 184 q 883 134 883 155 m 1027 184 q 991 170 1005 184 q 976 134 976 156 q 991 99 976 113 q 1027 84 1005 84 q 1063 99 1049 84 q 1078 134 1078 113 q 1063 170 1078 156 q 1027 184 1049 184 m 116 85 l 116 113 l 89 113 q 75 108 81 113 l 113 158 q 116 170 116 162 l 116 183 l 41 183 l 41 157 l 69 157 q 78 161 75 157 l 43 111 q 38 106 40 108 q 37 99 37 103 l 37 85 l 116 85 m 196 85 l 196 113 l 157 113 l 157 122 l 189 122 l 189 146 l 157 146 l 157 157 l 196 157 l 196 183 l 130 183 l 130 85 l 196 85 m 202 157 l 228 157 l 228 85 l 256 85 l 256 157 l 279 157 l 279 183 l 202 183 l 202 157 m 313 183 l 270 85 l 292 85 q 299 88 296 85 q 304 96 302 91 l 307 102 l 342 102 l 345 96 q 351 88 346 91 q 358 85 355 85 l 380 85 l 338 183 l 313 183 m 388 85 l 417 85 l 417 119 l 449 119 l 449 143 l 417 143 l 417 157 l 455 157 l 455 183 l 388 183 l 388 85 m 640 149 q 643 131 640 137 l 614 174 q 609 181 612 179 q 601 183 607 183 l 579 183 l 579 85 l 608 85 l 608 125 q 604 142 608 134 l 605 142 l 638 91 q 649 85 642 85 l 669 85 l 669 183 l 640 183 l 640 149 m 680 157 l 704 157 l 704 85 l 733 85 l 733 157 l 759 157 l 759 183 l 680 183 l 680 157 m 1181 183 q 1170 174 1175 183 l 1153 139 q 1150 128 1150 135 l 1148 128 q 1145 139 1148 135 l 1129 174 q 1123 180 1126 178 q 1116 183 1121 183 l 1092 183 l 1092 85 l 1120 85 l 1120 128 q 1116 143 1120 134 l 1118 143 l 1136 102 q 1150 94 1139 94 q 1161 102 1157 94 l 1180 143 q 1178 136 1179 140 q 1178 128 1178 132 l 1178 85 l 1205 85 l 1205 183 l 1181 183 m 514 111 q 498 117 505 111 q 492 134 492 124 q 498 151 492 144 q 514 158 505 158 q 530 151 524 158 q 536 134 536 145 q 530 117 536 124 q 514 111 524 111 m 1027 111 q 1011 117 1018 111 q 1005 134 1005 124 q 1011 151 1005 145 q 1027 158 1018 158 q 1044 151 1036 158 q 1051 134 1051 144 q 1044 117 1051 124 q 1027 111 1036 111 m 321 134 q 324 152 324 141 l 326 152 q 329 134 326 139 l 335 120 l 316 120 l 321 134 m 844 99 q 848 88 844 93 q 859 84 852 84 q 869 88 865 84 q 873 99 873 93 q 869 110 873 105 q 859 114 865 114 q 848 110 852 114 q 844 99 844 105 z "},"2":{"ha":1217,"x_min":37,"x_max":1217,"o":"m 1217 314 l 38 314 l 38 476 l 485 476 l 485 478 l 485 490 q 485 491 485 491 l 485 493 q 486 499 485 496 q 487 505 487 502 q 487 509 487 506 q 489 514 488 511 q 540 591 501 561 q 628 621 578 621 q 700 602 667 621 q 752 550 733 582 q 771 478 771 517 l 771 476 l 1217 476 l 1217 314 m 629 343 q 695 361 665 343 q 743 410 725 379 q 761 476 761 440 q 743 542 761 511 q 695 590 725 572 q 629 607 665 607 q 562 590 593 607 q 514 542 532 572 q 497 476 497 511 q 514 409 497 440 q 562 361 532 379 q 629 343 593 343 m 689 575 q 697 570 693 573 q 706 564 701 567 l 548 564 q 566 577 554 570 q 585 585 579 583 q 628 594 602 594 q 672 585 650 594 l 689 575 m 716 555 q 745 476 745 517 q 739 435 745 454 q 718 399 735 420 l 563 399 l 716 555 m 539 395 q 516 433 523 415 q 509 476 509 453 q 510 494 509 488 q 517 517 511 507 q 537 550 523 536 l 694 550 l 539 395 m 64 423 l 90 423 l 90 347 l 119 347 l 119 423 l 145 423 l 145 450 l 64 450 l 64 423 m 187 379 l 196 379 l 208 356 q 220 347 213 347 l 246 347 l 228 379 q 210 389 220 389 l 213 389 q 228 397 220 389 q 236 414 236 404 q 225 439 236 429 q 199 450 214 450 l 157 450 l 157 347 l 187 347 l 187 379 m 286 347 l 286 450 l 257 450 l 257 347 l 286 347 m 341 450 l 296 347 l 320 347 q 333 357 327 347 l 336 364 l 371 364 l 376 357 q 388 347 381 347 l 411 347 l 367 450 l 341 450 m 422 347 l 487 347 l 487 374 l 450 374 l 450 450 l 422 450 l 422 347 m 847 450 q 809 435 824 450 q 795 397 795 420 q 809 359 795 373 q 847 344 824 344 q 886 359 871 344 q 901 397 901 373 q 886 435 901 420 q 847 450 871 450 m 980 412 q 983 392 980 400 l 951 438 q 946 445 949 444 q 939 447 944 447 l 914 447 l 914 346 l 945 346 l 945 386 q 942 405 945 391 l 976 352 q 989 346 982 346 l 1010 346 l 1010 447 l 980 447 l 980 412 m 1030 346 l 1095 346 l 1095 373 l 1059 373 l 1059 447 l 1030 447 l 1030 346 m 1153 376 q 1155 386 1153 382 l 1192 447 l 1164 447 q 1153 441 1156 447 l 1141 421 q 1139 412 1139 417 q 1136 405 1138 408 q 1133 421 1136 413 l 1122 441 q 1110 447 1118 447 l 1083 447 l 1120 386 q 1122 376 1122 383 l 1122 346 l 1153 346 l 1153 376 m 197 421 q 205 414 205 421 q 203 408 205 411 q 198 406 201 406 l 187 406 l 187 421 l 197 421 m 847 373 q 830 379 837 373 q 823 397 823 386 q 830 414 823 407 q 847 421 837 421 q 864 414 857 421 q 870 397 870 407 q 864 379 870 386 q 847 373 857 373 m 349 398 q 352 405 350 399 q 353 417 353 411 l 355 417 q 358 398 355 404 l 364 385 l 344 385 l 349 398 m 586 364 q 550 386 568 372 l 706 386 q 689 373 691 374 q 681 369 686 372 q 672 364 676 365 q 662 362 668 364 q 649 359 656 360 q 628 356 639 356 q 586 364 604 356 m 43 218 l 50 218 l 50 247 l 78 247 l 78 254 l 50 254 l 50 277 l 84 277 l 84 285 l 43 285 l 43 218 m 121 224 q 108 230 113 224 q 102 244 102 235 l 102 285 l 95 285 l 95 244 q 102 224 95 231 q 121 217 109 217 q 141 224 133 217 q 149 244 149 232 l 149 285 l 140 285 l 140 244 q 135 229 140 234 q 121 224 130 224 m 166 218 l 202 218 l 202 225 l 174 225 l 174 285 l 166 285 l 166 218 m 217 218 l 254 218 l 254 225 l 223 225 l 223 285 l 217 285 l 217 218 m 346 285 q 343 284 345 285 q 342 282 342 284 l 321 233 q 320 226 320 230 l 319 226 q 318 233 319 230 l 296 282 q 291 285 296 285 l 286 285 l 316 218 l 323 218 l 351 285 l 346 285 m 403 218 l 403 225 l 368 225 l 368 248 l 397 248 l 397 256 l 368 256 l 368 277 l 403 277 l 403 285 l 362 285 l 362 218 l 403 218 m 426 246 l 435 246 l 455 221 q 463 218 459 218 l 467 218 l 447 245 q 444 247 447 247 l 444 247 q 455 253 450 248 q 461 265 461 258 q 455 279 461 273 q 441 285 449 285 l 417 285 l 417 218 l 426 218 l 426 246 m 472 227 q 482 220 476 223 q 493 217 488 217 q 509 222 503 217 q 514 237 514 228 q 495 257 514 252 q 484 268 484 262 q 494 278 484 278 q 506 275 500 278 q 510 277 508 274 l 511 279 q 494 285 506 285 q 481 281 486 285 q 475 268 475 276 q 493 250 475 257 q 508 237 508 244 q 504 227 508 231 q 493 224 500 224 q 479 230 486 226 q 476 230 479 231 q 473 228 474 230 l 472 227 m 536 218 l 536 285 l 530 285 l 530 218 l 536 218 m 586 285 q 561 275 571 285 q 551 251 551 265 q 561 227 551 237 q 586 217 571 217 q 611 226 601 217 q 621 251 621 236 q 611 276 621 266 q 586 285 601 285 m 680 235 q 681 230 680 231 l 646 283 q 640 285 643 285 l 634 285 l 634 218 l 642 218 l 642 270 l 641 275 l 680 220 q 682 218 680 218 l 689 218 l 689 285 l 680 285 l 680 235 m 586 224 q 567 232 576 224 q 558 251 558 240 q 566 270 558 262 q 586 278 575 278 q 605 270 597 278 q 613 251 613 262 q 605 232 613 240 q 586 224 597 224 m 441 277 q 449 274 445 277 q 453 265 453 270 q 449 257 453 261 q 441 254 445 254 l 426 254 l 426 277 l 441 277 m 1198 252 q 1196 256 1198 254 l 1178 273 l 1176 270 q 1177 264 1173 267 l 1186 255 l 727 255 l 727 248 l 1185 248 l 1177 239 q 1176 233 1174 236 l 1178 230 l 1196 248 q 1198 252 1198 249 m 514 184 q 479 170 493 184 q 464 134 464 156 q 478 99 464 113 q 514 84 492 84 q 551 99 536 84 q 566 134 566 113 q 551 170 566 155 q 514 184 536 184 m 761 100 q 800 84 780 84 q 826 93 816 84 q 836 116 836 102 q 806 149 836 143 q 796 155 796 152 q 800 158 796 158 q 806 157 801 158 q 812 155 810 155 q 825 163 821 155 l 830 172 q 817 181 825 178 q 800 184 808 184 q 776 176 786 184 q 767 155 767 168 q 775 136 767 143 q 800 123 783 129 q 806 116 806 121 q 800 111 806 111 q 791 113 795 111 q 786 116 787 115 q 778 118 783 118 q 765 111 771 118 l 761 100 m 883 134 q 897 99 883 113 q 932 84 911 84 q 954 90 944 84 q 969 104 965 96 l 963 113 q 953 117 959 117 q 944 114 947 117 q 931 111 936 111 q 916 117 922 111 q 910 134 910 124 q 916 151 910 144 q 931 158 922 158 q 939 156 936 158 q 944 154 942 155 q 952 151 947 151 q 963 155 959 151 l 969 164 q 954 178 965 172 q 932 184 944 184 q 897 170 911 184 q 883 134 883 155 m 1027 184 q 991 170 1005 184 q 976 134 976 156 q 991 99 976 113 q 1027 84 1005 84 q 1063 99 1049 84 q 1078 134 1078 113 q 1063 170 1078 156 q 1027 184 1049 184 m 116 85 l 116 113 l 89 113 q 75 108 81 113 l 113 158 q 116 170 116 162 l 116 183 l 41 183 l 41 157 l 69 157 q 78 161 75 157 l 43 111 q 38 106 40 108 q 37 99 37 103 l 37 85 l 116 85 m 196 85 l 196 113 l 157 113 l 157 122 l 189 122 l 189 146 l 157 146 l 157 157 l 196 157 l 196 183 l 130 183 l 130 85 l 196 85 m 202 157 l 228 157 l 228 85 l 256 85 l 256 157 l 279 157 l 279 183 l 202 183 l 202 157 m 313 183 l 270 85 l 292 85 q 299 88 296 85 q 304 96 302 91 l 307 102 l 342 102 l 345 96 q 351 88 346 91 q 358 85 355 85 l 380 85 l 338 183 l 313 183 m 388 85 l 417 85 l 417 119 l 449 119 l 449 143 l 417 143 l 417 157 l 455 157 l 455 183 l 388 183 l 388 85 m 640 149 q 643 131 640 137 l 614 174 q 609 181 612 179 q 601 183 607 183 l 579 183 l 579 85 l 608 85 l 608 125 q 604 142 608 134 l 605 142 l 638 91 q 649 85 642 85 l 669 85 l 669 183 l 640 183 l 640 149 m 680 157 l 704 157 l 704 85 l 733 85 l 733 157 l 759 157 l 759 183 l 680 183 l 680 157 m 1181 183 q 1170 174 1175 183 l 1153 139 q 1150 128 1150 135 l 1148 128 q 1145 139 1148 135 l 1129 174 q 1123 180 1126 178 q 1116 183 1121 183 l 1092 183 l 1092 85 l 1120 85 l 1120 128 q 1116 143 1120 134 l 1118 143 l 1136 102 q 1150 94 1139 94 q 1161 102 1157 94 l 1180 143 q 1178 136 1179 140 q 1178 128 1178 132 l 1178 85 l 1205 85 l 1205 183 l 1181 183 m 514 111 q 498 117 505 111 q 492 134 492 124 q 498 151 492 144 q 514 158 505 158 q 530 151 524 158 q 536 134 536 145 q 530 117 536 124 q 514 111 524 111 m 1027 111 q 1011 117 1018 111 q 1005 134 1005 124 q 1011 151 1005 145 q 1027 158 1018 158 q 1044 151 1036 158 q 1051 134 1051 144 q 1044 117 1051 124 q 1027 111 1036 111 m 321 134 q 324 152 324 141 l 326 152 q 329 134 326 139 l 335 120 l 316 120 l 321 134 m 844 99 q 848 88 844 93 q 859 84 852 84 q 869 88 865 84 q 873 99 873 93 q 869 110 873 105 q 859 114 865 114 q 848 110 852 114 q 844 99 844 105 z "},"3":{"ha":1217,"x_min":37,"x_max":1217,"o":"m 1217 314 l 38 314 l 38 476 l 485 476 l 485 478 l 485 490 q 485 491 485 491 l 485 493 q 486 499 485 496 q 487 505 487 502 q 487 509 487 506 q 489 514 488 511 q 540 591 501 561 q 628 621 578 621 q 700 602 667 621 q 752 550 733 582 q 771 478 771 517 l 771 476 l 1217 476 l 1217 314 m 629 343 q 695 361 665 343 q 743 410 725 379 q 761 476 761 440 q 743 542 761 511 q 695 590 725 572 q 629 607 665 607 q 562 590 593 607 q 514 542 532 572 q 497 476 497 511 q 514 409 497 440 q 562 361 532 379 q 629 343 593 343 m 689 575 q 697 570 693 573 q 706 564 701 567 l 548 564 q 566 577 554 570 q 585 585 579 583 q 628 594 602 594 q 672 585 650 594 l 689 575 m 716 555 q 745 476 745 517 q 739 435 745 454 q 718 399 735 420 l 563 399 l 716 555 m 539 395 q 516 433 523 415 q 509 476 509 453 q 510 494 509 488 q 517 517 511 507 q 537 550 523 536 l 694 550 l 539 395 m 64 423 l 90 423 l 90 347 l 119 347 l 119 423 l 145 423 l 145 450 l 64 450 l 64 423 m 187 379 l 196 379 l 208 356 q 220 347 213 347 l 246 347 l 228 379 q 210 389 220 389 l 213 389 q 228 397 220 389 q 236 414 236 404 q 225 439 236 429 q 199 450 214 450 l 157 450 l 157 347 l 187 347 l 187 379 m 286 347 l 286 450 l 257 450 l 257 347 l 286 347 m 341 450 l 296 347 l 320 347 q 333 357 327 347 l 336 364 l 371 364 l 376 357 q 388 347 381 347 l 411 347 l 367 450 l 341 450 m 422 347 l 487 347 l 487 374 l 450 374 l 450 450 l 422 450 l 422 347 m 847 450 q 809 435 824 450 q 795 397 795 420 q 809 359 795 373 q 847 344 824 344 q 886 359 871 344 q 901 397 901 373 q 886 435 901 420 q 847 450 871 450 m 980 412 q 983 392 980 400 l 951 438 q 946 445 949 444 q 939 447 944 447 l 914 447 l 914 346 l 945 346 l 945 386 q 942 405 945 391 l 976 352 q 989 346 982 346 l 1010 346 l 1010 447 l 980 447 l 980 412 m 1030 346 l 1095 346 l 1095 373 l 1059 373 l 1059 447 l 1030 447 l 1030 346 m 1153 376 q 1155 386 1153 382 l 1192 447 l 1164 447 q 1153 441 1156 447 l 1141 421 q 1139 412 1139 417 q 1136 405 1138 408 q 1133 421 1136 413 l 1122 441 q 1110 447 1118 447 l 1083 447 l 1120 386 q 1122 376 1122 383 l 1122 346 l 1153 346 l 1153 376 m 197 421 q 205 414 205 421 q 203 408 205 411 q 198 406 201 406 l 187 406 l 187 421 l 197 421 m 847 373 q 830 379 837 373 q 823 397 823 386 q 830 414 823 407 q 847 421 837 421 q 864 414 857 421 q 870 397 870 407 q 864 379 870 386 q 847 373 857 373 m 349 398 q 352 405 350 399 q 353 417 353 411 l 355 417 q 358 398 355 404 l 364 385 l 344 385 l 349 398 m 586 364 q 550 386 568 372 l 706 386 q 689 373 691 374 q 681 369 686 372 q 672 364 676 365 q 662 362 668 364 q 649 359 656 360 q 628 356 639 356 q 586 364 604 356 m 43 218 l 50 218 l 50 247 l 78 247 l 78 254 l 50 254 l 50 277 l 84 277 l 84 285 l 43 285 l 43 218 m 121 224 q 108 230 113 224 q 102 244 102 235 l 102 285 l 95 285 l 95 244 q 102 224 95 231 q 121 217 109 217 q 141 224 133 217 q 149 244 149 232 l 149 285 l 140 285 l 140 244 q 135 229 140 234 q 121 224 130 224 m 166 218 l 202 218 l 202 225 l 174 225 l 174 285 l 166 285 l 166 218 m 217 218 l 254 218 l 254 225 l 223 225 l 223 285 l 217 285 l 217 218 m 346 285 q 343 284 345 285 q 342 282 342 284 l 321 233 q 320 226 320 230 l 319 226 q 318 233 319 230 l 296 282 q 291 285 296 285 l 286 285 l 316 218 l 323 218 l 351 285 l 346 285 m 403 218 l 403 225 l 368 225 l 368 248 l 397 248 l 397 256 l 368 256 l 368 277 l 403 277 l 403 285 l 362 285 l 362 218 l 403 218 m 426 246 l 435 246 l 455 221 q 463 218 459 218 l 467 218 l 447 245 q 444 247 447 247 l 444 247 q 455 253 450 248 q 461 265 461 258 q 455 279 461 273 q 441 285 449 285 l 417 285 l 417 218 l 426 218 l 426 246 m 472 227 q 482 220 476 223 q 493 217 488 217 q 509 222 503 217 q 514 237 514 228 q 495 257 514 252 q 484 268 484 262 q 494 278 484 278 q 506 275 500 278 q 510 277 508 274 l 511 279 q 494 285 506 285 q 481 281 486 285 q 475 268 475 276 q 493 250 475 257 q 508 237 508 244 q 504 227 508 231 q 493 224 500 224 q 479 230 486 226 q 476 230 479 231 q 473 228 474 230 l 472 227 m 536 218 l 536 285 l 530 285 l 530 218 l 536 218 m 586 285 q 561 275 571 285 q 551 251 551 265 q 561 227 551 237 q 586 217 571 217 q 611 226 601 217 q 621 251 621 236 q 611 276 621 266 q 586 285 601 285 m 680 235 q 681 230 680 231 l 646 283 q 640 285 643 285 l 634 285 l 634 218 l 642 218 l 642 270 l 641 275 l 680 220 q 682 218 680 218 l 689 218 l 689 285 l 680 285 l 680 235 m 586 224 q 567 232 576 224 q 558 251 558 240 q 566 270 558 262 q 586 278 575 278 q 605 270 597 278 q 613 251 613 262 q 605 232 613 240 q 586 224 597 224 m 441 277 q 449 274 445 277 q 453 265 453 270 q 449 257 453 261 q 441 254 445 254 l 426 254 l 426 277 l 441 277 m 1198 252 q 1196 256 1198 254 l 1178 273 l 1176 270 q 1177 264 1173 267 l 1186 255 l 727 255 l 727 248 l 1185 248 l 1177 239 q 1176 233 1174 236 l 1178 230 l 1196 248 q 1198 252 1198 249 m 514 184 q 479 170 493 184 q 464 134 464 156 q 478 99 464 113 q 514 84 492 84 q 551 99 536 84 q 566 134 566 113 q 551 170 566 155 q 514 184 536 184 m 761 100 q 800 84 780 84 q 826 93 816 84 q 836 116 836 102 q 806 149 836 143 q 796 155 796 152 q 800 158 796 158 q 806 157 801 158 q 812 155 810 155 q 825 163 821 155 l 830 172 q 817 181 825 178 q 800 184 808 184 q 776 176 786 184 q 767 155 767 168 q 775 136 767 143 q 800 123 783 129 q 806 116 806 121 q 800 111 806 111 q 791 113 795 111 q 786 116 787 115 q 778 118 783 118 q 765 111 771 118 l 761 100 m 883 134 q 897 99 883 113 q 932 84 911 84 q 954 90 944 84 q 969 104 965 96 l 963 113 q 953 117 959 117 q 944 114 947 117 q 931 111 936 111 q 916 117 922 111 q 910 134 910 124 q 916 151 910 144 q 931 158 922 158 q 939 156 936 158 q 944 154 942 155 q 952 151 947 151 q 963 155 959 151 l 969 164 q 954 178 965 172 q 932 184 944 184 q 897 170 911 184 q 883 134 883 155 m 1027 184 q 991 170 1005 184 q 976 134 976 156 q 991 99 976 113 q 1027 84 1005 84 q 1063 99 1049 84 q 1078 134 1078 113 q 1063 170 1078 156 q 1027 184 1049 184 m 116 85 l 116 113 l 89 113 q 75 108 81 113 l 113 158 q 116 170 116 162 l 116 183 l 41 183 l 41 157 l 69 157 q 78 161 75 157 l 43 111 q 38 106 40 108 q 37 99 37 103 l 37 85 l 116 85 m 196 85 l 196 113 l 157 113 l 157 122 l 189 122 l 189 146 l 157 146 l 157 157 l 196 157 l 196 183 l 130 183 l 130 85 l 196 85 m 202 157 l 228 157 l 228 85 l 256 85 l 256 157 l 279 157 l 279 183 l 202 183 l 202 157 m 313 183 l 270 85 l 292 85 q 299 88 296 85 q 304 96 302 91 l 307 102 l 342 102 l 345 96 q 351 88 346 91 q 358 85 355 85 l 380 85 l 338 183 l 313 183 m 388 85 l 417 85 l 417 119 l 449 119 l 449 143 l 417 143 l 417 157 l 455 157 l 455 183 l 388 183 l 388 85 m 640 149 q 643 131 640 137 l 614 174 q 609 181 612 179 q 601 183 607 183 l 579 183 l 579 85 l 608 85 l 608 125 q 604 142 608 134 l 605 142 l 638 91 q 649 85 642 85 l 669 85 l 669 183 l 640 183 l 640 149 m 680 157 l 704 157 l 704 85 l 733 85 l 733 157 l 759 157 l 759 183 l 680 183 l 680 157 m 1181 183 q 1170 174 1175 183 l 1153 139 q 1150 128 1150 135 l 1148 128 q 1145 139 1148 135 l 1129 174 q 1123 180 1126 178 q 1116 183 1121 183 l 1092 183 l 1092 85 l 1120 85 l 1120 128 q 1116 143 1120 134 l 1118 143 l 1136 102 q 1150 94 1139 94 q 1161 102 1157 94 l 1180 143 q 1178 136 1179 140 q 1178 128 1178 132 l 1178 85 l 1205 85 l 1205 183 l 1181 183 m 514 111 q 498 117 505 111 q 492 134 492 124 q 498 151 492 144 q 514 158 505 158 q 530 151 524 158 q 536 134 536 145 q 530 117 536 124 q 514 111 524 111 m 1027 111 q 1011 117 1018 111 q 1005 134 1005 124 q 1011 151 1005 145 q 1027 158 1018 158 q 1044 151 1036 158 q 1051 134 1051 144 q 1044 117 1051 124 q 1027 111 1036 111 m 321 134 q 324 152 324 141 l 326 152 q 329 134 326 139 l 335 120 l 316 120 l 321 134 m 844 99 q 848 88 844 93 q 859 84 852 84 q 869 88 865 84 q 873 99 873 93 q 869 110 873 105 q 859 114 865 114 q 848 110 852 114 q 844 99 844 105 z "},"4":{"ha":1217,"x_min":37,"x_max":1217,"o":"m 1217 314 l 38 314 l 38 476 l 485 476 l 485 478 l 485 490 q 485 491 485 491 l 485 493 q 486 499 485 496 q 487 505 487 502 q 487 509 487 506 q 489 514 488 511 q 540 591 501 561 q 628 621 578 621 q 700 602 667 621 q 752 550 733 582 q 771 478 771 517 l 771 476 l 1217 476 l 1217 314 m 629 343 q 695 361 665 343 q 743 410 725 379 q 761 476 761 440 q 743 542 761 511 q 695 590 725 572 q 629 607 665 607 q 562 590 593 607 q 514 542 532 572 q 497 476 497 511 q 514 409 497 440 q 562 361 532 379 q 629 343 593 343 m 689 575 q 697 570 693 573 q 706 564 701 567 l 548 564 q 566 577 554 570 q 585 585 579 583 q 628 594 602 594 q 672 585 650 594 l 689 575 m 716 555 q 745 476 745 517 q 739 435 745 454 q 718 399 735 420 l 563 399 l 716 555 m 539 395 q 516 433 523 415 q 509 476 509 453 q 510 494 509 488 q 517 517 511 507 q 537 550 523 536 l 694 550 l 539 395 m 64 423 l 90 423 l 90 347 l 119 347 l 119 423 l 145 423 l 145 450 l 64 450 l 64 423 m 187 379 l 196 379 l 208 356 q 220 347 213 347 l 246 347 l 228 379 q 210 389 220 389 l 213 389 q 228 397 220 389 q 236 414 236 404 q 225 439 236 429 q 199 450 214 450 l 157 450 l 157 347 l 187 347 l 187 379 m 286 347 l 286 450 l 257 450 l 257 347 l 286 347 m 341 450 l 296 347 l 320 347 q 333 357 327 347 l 336 364 l 371 364 l 376 357 q 388 347 381 347 l 411 347 l 367 450 l 341 450 m 422 347 l 487 347 l 487 374 l 450 374 l 450 450 l 422 450 l 422 347 m 847 450 q 809 435 824 450 q 795 397 795 420 q 809 359 795 373 q 847 344 824 344 q 886 359 871 344 q 901 397 901 373 q 886 435 901 420 q 847 450 871 450 m 980 412 q 983 392 980 400 l 951 438 q 946 445 949 444 q 939 447 944 447 l 914 447 l 914 346 l 945 346 l 945 386 q 942 405 945 391 l 976 352 q 989 346 982 346 l 1010 346 l 1010 447 l 980 447 l 980 412 m 1030 346 l 1095 346 l 1095 373 l 1059 373 l 1059 447 l 1030 447 l 1030 346 m 1153 376 q 1155 386 1153 382 l 1192 447 l 1164 447 q 1153 441 1156 447 l 1141 421 q 1139 412 1139 417 q 1136 405 1138 408 q 1133 421 1136 413 l 1122 441 q 1110 447 1118 447 l 1083 447 l 1120 386 q 1122 376 1122 383 l 1122 346 l 1153 346 l 1153 376 m 197 421 q 205 414 205 421 q 203 408 205 411 q 198 406 201 406 l 187 406 l 187 421 l 197 421 m 847 373 q 830 379 837 373 q 823 397 823 386 q 830 414 823 407 q 847 421 837 421 q 864 414 857 421 q 870 397 870 407 q 864 379 870 386 q 847 373 857 373 m 349 398 q 352 405 350 399 q 353 417 353 411 l 355 417 q 358 398 355 404 l 364 385 l 344 385 l 349 398 m 586 364 q 550 386 568 372 l 706 386 q 689 373 691 374 q 681 369 686 372 q 672 364 676 365 q 662 362 668 364 q 649 359 656 360 q 628 356 639 356 q 586 364 604 356 m 43 218 l 50 218 l 50 247 l 78 247 l 78 254 l 50 254 l 50 277 l 84 277 l 84 285 l 43 285 l 43 218 m 121 224 q 108 230 113 224 q 102 244 102 235 l 102 285 l 95 285 l 95 244 q 102 224 95 231 q 121 217 109 217 q 141 224 133 217 q 149 244 149 232 l 149 285 l 140 285 l 140 244 q 135 229 140 234 q 121 224 130 224 m 166 218 l 202 218 l 202 225 l 174 225 l 174 285 l 166 285 l 166 218 m 217 218 l 254 218 l 254 225 l 223 225 l 223 285 l 217 285 l 217 218 m 346 285 q 343 284 345 285 q 342 282 342 284 l 321 233 q 320 226 320 230 l 319 226 q 318 233 319 230 l 296 282 q 291 285 296 285 l 286 285 l 316 218 l 323 218 l 351 285 l 346 285 m 403 218 l 403 225 l 368 225 l 368 248 l 397 248 l 397 256 l 368 256 l 368 277 l 403 277 l 403 285 l 362 285 l 362 218 l 403 218 m 426 246 l 435 246 l 455 221 q 463 218 459 218 l 467 218 l 447 245 q 444 247 447 247 l 444 247 q 455 253 450 248 q 461 265 461 258 q 455 279 461 273 q 441 285 449 285 l 417 285 l 417 218 l 426 218 l 426 246 m 472 227 q 482 220 476 223 q 493 217 488 217 q 509 222 503 217 q 514 237 514 228 q 495 257 514 252 q 484 268 484 262 q 494 278 484 278 q 506 275 500 278 q 510 277 508 274 l 511 279 q 494 285 506 285 q 481 281 486 285 q 475 268 475 276 q 493 250 475 257 q 508 237 508 244 q 504 227 508 231 q 493 224 500 224 q 479 230 486 226 q 476 230 479 231 q 473 228 474 230 l 472 227 m 536 218 l 536 285 l 530 285 l 530 218 l 536 218 m 586 285 q 561 275 571 285 q 551 251 551 265 q 561 227 551 237 q 586 217 571 217 q 611 226 601 217 q 621 251 621 236 q 611 276 621 266 q 586 285 601 285 m 680 235 q 681 230 680 231 l 646 283 q 640 285 643 285 l 634 285 l 634 218 l 642 218 l 642 270 l 641 275 l 680 220 q 682 218 680 218 l 689 218 l 689 285 l 680 285 l 680 235 m 586 224 q 567 232 576 224 q 558 251 558 240 q 566 270 558 262 q 586 278 575 278 q 605 270 597 278 q 613 251 613 262 q 605 232 613 240 q 586 224 597 224 m 441 277 q 449 274 445 277 q 453 265 453 270 q 449 257 453 261 q 441 254 445 254 l 426 254 l 426 277 l 441 277 m 1198 252 q 1196 256 1198 254 l 1178 273 l 1176 270 q 1177 264 1173 267 l 1186 255 l 727 255 l 727 248 l 1185 248 l 1177 239 q 1176 233 1174 236 l 1178 230 l 1196 248 q 1198 252 1198 249 m 514 184 q 479 170 493 184 q 464 134 464 156 q 478 99 464 113 q 514 84 492 84 q 551 99 536 84 q 566 134 566 113 q 551 170 566 155 q 514 184 536 184 m 761 100 q 800 84 780 84 q 826 93 816 84 q 836 116 836 102 q 806 149 836 143 q 796 155 796 152 q 800 158 796 158 q 806 157 801 158 q 812 155 810 155 q 825 163 821 155 l 830 172 q 817 181 825 178 q 800 184 808 184 q 776 176 786 184 q 767 155 767 168 q 775 136 767 143 q 800 123 783 129 q 806 116 806 121 q 800 111 806 111 q 791 113 795 111 q 786 116 787 115 q 778 118 783 118 q 765 111 771 118 l 761 100 m 883 134 q 897 99 883 113 q 932 84 911 84 q 954 90 944 84 q 969 104 965 96 l 963 113 q 953 117 959 117 q 944 114 947 117 q 931 111 936 111 q 916 117 922 111 q 910 134 910 124 q 916 151 910 144 q 931 158 922 158 q 939 156 936 158 q 944 154 942 155 q 952 151 947 151 q 963 155 959 151 l 969 164 q 954 178 965 172 q 932 184 944 184 q 897 170 911 184 q 883 134 883 155 m 1027 184 q 991 170 1005 184 q 976 134 976 156 q 991 99 976 113 q 1027 84 1005 84 q 1063 99 1049 84 q 1078 134 1078 113 q 1063 170 1078 156 q 1027 184 1049 184 m 116 85 l 116 113 l 89 113 q 75 108 81 113 l 113 158 q 116 170 116 162 l 116 183 l 41 183 l 41 157 l 69 157 q 78 161 75 157 l 43 111 q 38 106 40 108 q 37 99 37 103 l 37 85 l 116 85 m 196 85 l 196 113 l 157 113 l 157 122 l 189 122 l 189 146 l 157 146 l 157 157 l 196 157 l 196 183 l 130 183 l 130 85 l 196 85 m 202 157 l 228 157 l 228 85 l 256 85 l 256 157 l 279 157 l 279 183 l 202 183 l 202 157 m 313 183 l 270 85 l 292 85 q 299 88 296 85 q 304 96 302 91 l 307 102 l 342 102 l 345 96 q 351 88 346 91 q 358 85 355 85 l 380 85 l 338 183 l 313 183 m 388 85 l 417 85 l 417 119 l 449 119 l 449 143 l 417 143 l 417 157 l 455 157 l 455 183 l 388 183 l 388 85 m 640 149 q 643 131 640 137 l 614 174 q 609 181 612 179 q 601 183 607 183 l 579 183 l 579 85 l 608 85 l 608 125 q 604 142 608 134 l 605 142 l 638 91 q 649 85 642 85 l 669 85 l 669 183 l 640 183 l 640 149 m 680 157 l 704 157 l 704 85 l 733 85 l 733 157 l 759 157 l 759 183 l 680 183 l 680 157 m 1181 183 q 1170 174 1175 183 l 1153 139 q 1150 128 1150 135 l 1148 128 q 1145 139 1148 135 l 1129 174 q 1123 180 1126 178 q 1116 183 1121 183 l 1092 183 l 1092 85 l 1120 85 l 1120 128 q 1116 143 1120 134 l 1118 143 l 1136 102 q 1150 94 1139 94 q 1161 102 1157 94 l 1180 143 q 1178 136 1179 140 q 1178 128 1178 132 l 1178 85 l 1205 85 l 1205 183 l 1181 183 m 514 111 q 498 117 505 111 q 492 134 492 124 q 498 151 492 144 q 514 158 505 158 q 530 151 524 158 q 536 134 536 145 q 530 117 536 124 q 514 111 524 111 m 1027 111 q 1011 117 1018 111 q 1005 134 1005 124 q 1011 151 1005 145 q 1027 158 1018 158 q 1044 151 1036 158 q 1051 134 1051 144 q 1044 117 1051 124 q 1027 111 1036 111 m 321 134 q 324 152 324 141 l 326 152 q 329 134 326 139 l 335 120 l 316 120 l 321 134 m 844 99 q 848 88 844 93 q 859 84 852 84 q 869 88 865 84 q 873 99 873 93 q 869 110 873 105 q 859 114 865 114 q 848 110 852 114 q 844 99 844 105 z "},"5":{"ha":1217,"x_min":37,"x_max":1217,"o":"m 1217 314 l 38 314 l 38 476 l 485 476 l 485 478 l 485 490 q 485 491 485 491 l 485 493 q 486 499 485 496 q 487 505 487 502 q 487 509 487 506 q 489 514 488 511 q 540 591 501 561 q 628 621 578 621 q 700 602 667 621 q 752 550 733 582 q 771 478 771 517 l 771 476 l 1217 476 l 1217 314 m 629 343 q 695 361 665 343 q 743 410 725 379 q 761 476 761 440 q 743 542 761 511 q 695 590 725 572 q 629 607 665 607 q 562 590 593 607 q 514 542 532 572 q 497 476 497 511 q 514 409 497 440 q 562 361 532 379 q 629 343 593 343 m 689 575 q 697 570 693 573 q 706 564 701 567 l 548 564 q 566 577 554 570 q 585 585 579 583 q 628 594 602 594 q 672 585 650 594 l 689 575 m 716 555 q 745 476 745 517 q 739 435 745 454 q 718 399 735 420 l 563 399 l 716 555 m 539 395 q 516 433 523 415 q 509 476 509 453 q 510 494 509 488 q 517 517 511 507 q 537 550 523 536 l 694 550 l 539 395 m 64 423 l 90 423 l 90 347 l 119 347 l 119 423 l 145 423 l 145 450 l 64 450 l 64 423 m 187 379 l 196 379 l 208 356 q 220 347 213 347 l 246 347 l 228 379 q 210 389 220 389 l 213 389 q 228 397 220 389 q 236 414 236 404 q 225 439 236 429 q 199 450 214 450 l 157 450 l 157 347 l 187 347 l 187 379 m 286 347 l 286 450 l 257 450 l 257 347 l 286 347 m 341 450 l 296 347 l 320 347 q 333 357 327 347 l 336 364 l 371 364 l 376 357 q 388 347 381 347 l 411 347 l 367 450 l 341 450 m 422 347 l 487 347 l 487 374 l 450 374 l 450 450 l 422 450 l 422 347 m 847 450 q 809 435 824 450 q 795 397 795 420 q 809 359 795 373 q 847 344 824 344 q 886 359 871 344 q 901 397 901 373 q 886 435 901 420 q 847 450 871 450 m 980 412 q 983 392 980 400 l 951 438 q 946 445 949 444 q 939 447 944 447 l 914 447 l 914 346 l 945 346 l 945 386 q 942 405 945 391 l 976 352 q 989 346 982 346 l 1010 346 l 1010 447 l 980 447 l 980 412 m 1030 346 l 1095 346 l 1095 373 l 1059 373 l 1059 447 l 1030 447 l 1030 346 m 1153 376 q 1155 386 1153 382 l 1192 447 l 1164 447 q 1153 441 1156 447 l 1141 421 q 1139 412 1139 417 q 1136 405 1138 408 q 1133 421 1136 413 l 1122 441 q 1110 447 1118 447 l 1083 447 l 1120 386 q 1122 376 1122 383 l 1122 346 l 1153 346 l 1153 376 m 197 421 q 205 414 205 421 q 203 408 205 411 q 198 406 201 406 l 187 406 l 187 421 l 197 421 m 847 373 q 830 379 837 373 q 823 397 823 386 q 830 414 823 407 q 847 421 837 421 q 864 414 857 421 q 870 397 870 407 q 864 379 870 386 q 847 373 857 373 m 349 398 q 352 405 350 399 q 353 417 353 411 l 355 417 q 358 398 355 404 l 364 385 l 344 385 l 349 398 m 586 364 q 550 386 568 372 l 706 386 q 689 373 691 374 q 681 369 686 372 q 672 364 676 365 q 662 362 668 364 q 649 359 656 360 q 628 356 639 356 q 586 364 604 356 m 43 218 l 50 218 l 50 247 l 78 247 l 78 254 l 50 254 l 50 277 l 84 277 l 84 285 l 43 285 l 43 218 m 121 224 q 108 230 113 224 q 102 244 102 235 l 102 285 l 95 285 l 95 244 q 102 224 95 231 q 121 217 109 217 q 141 224 133 217 q 149 244 149 232 l 149 285 l 140 285 l 140 244 q 135 229 140 234 q 121 224 130 224 m 166 218 l 202 218 l 202 225 l 174 225 l 174 285 l 166 285 l 166 218 m 217 218 l 254 218 l 254 225 l 223 225 l 223 285 l 217 285 l 217 218 m 346 285 q 343 284 345 285 q 342 282 342 284 l 321 233 q 320 226 320 230 l 319 226 q 318 233 319 230 l 296 282 q 291 285 296 285 l 286 285 l 316 218 l 323 218 l 351 285 l 346 285 m 403 218 l 403 225 l 368 225 l 368 248 l 397 248 l 397 256 l 368 256 l 368 277 l 403 277 l 403 285 l 362 285 l 362 218 l 403 218 m 426 246 l 435 246 l 455 221 q 463 218 459 218 l 467 218 l 447 245 q 444 247 447 247 l 444 247 q 455 253 450 248 q 461 265 461 258 q 455 279 461 273 q 441 285 449 285 l 417 285 l 417 218 l 426 218 l 426 246 m 472 227 q 482 220 476 223 q 493 217 488 217 q 509 222 503 217 q 514 237 514 228 q 495 257 514 252 q 484 268 484 262 q 494 278 484 278 q 506 275 500 278 q 510 277 508 274 l 511 279 q 494 285 506 285 q 481 281 486 285 q 475 268 475 276 q 493 250 475 257 q 508 237 508 244 q 504 227 508 231 q 493 224 500 224 q 479 230 486 226 q 476 230 479 231 q 473 228 474 230 l 472 227 m 536 218 l 536 285 l 530 285 l 530 218 l 536 218 m 586 285 q 561 275 571 285 q 551 251 551 265 q 561 227 551 237 q 586 217 571 217 q 611 226 601 217 q 621 251 621 236 q 611 276 621 266 q 586 285 601 285 m 680 235 q 681 230 680 231 l 646 283 q 640 285 643 285 l 634 285 l 634 218 l 642 218 l 642 270 l 641 275 l 680 220 q 682 218 680 218 l 689 218 l 689 285 l 680 285 l 680 235 m 586 224 q 567 232 576 224 q 558 251 558 240 q 566 270 558 262 q 586 278 575 278 q 605 270 597 278 q 613 251 613 262 q 605 232 613 240 q 586 224 597 224 m 441 277 q 449 274 445 277 q 453 265 453 270 q 449 257 453 261 q 441 254 445 254 l 426 254 l 426 277 l 441 277 m 1198 252 q 1196 256 1198 254 l 1178 273 l 1176 270 q 1177 264 1173 267 l 1186 255 l 727 255 l 727 248 l 1185 248 l 1177 239 q 1176 233 1174 236 l 1178 230 l 1196 248 q 1198 252 1198 249 m 514 184 q 479 170 493 184 q 464 134 464 156 q 478 99 464 113 q 514 84 492 84 q 551 99 536 84 q 566 134 566 113 q 551 170 566 155 q 514 184 536 184 m 761 100 q 800 84 780 84 q 826 93 816 84 q 836 116 836 102 q 806 149 836 143 q 796 155 796 152 q 800 158 796 158 q 806 157 801 158 q 812 155 810 155 q 825 163 821 155 l 830 172 q 817 181 825 178 q 800 184 808 184 q 776 176 786 184 q 767 155 767 168 q 775 136 767 143 q 800 123 783 129 q 806 116 806 121 q 800 111 806 111 q 791 113 795 111 q 786 116 787 115 q 778 118 783 118 q 765 111 771 118 l 761 100 m 883 134 q 897 99 883 113 q 932 84 911 84 q 954 90 944 84 q 969 104 965 96 l 963 113 q 953 117 959 117 q 944 114 947 117 q 931 111 936 111 q 916 117 922 111 q 910 134 910 124 q 916 151 910 144 q 931 158 922 158 q 939 156 936 158 q 944 154 942 155 q 952 151 947 151 q 963 155 959 151 l 969 164 q 954 178 965 172 q 932 184 944 184 q 897 170 911 184 q 883 134 883 155 m 1027 184 q 991 170 1005 184 q 976 134 976 156 q 991 99 976 113 q 1027 84 1005 84 q 1063 99 1049 84 q 1078 134 1078 113 q 1063 170 1078 156 q 1027 184 1049 184 m 116 85 l 116 113 l 89 113 q 75 108 81 113 l 113 158 q 116 170 116 162 l 116 183 l 41 183 l 41 157 l 69 157 q 78 161 75 157 l 43 111 q 38 106 40 108 q 37 99 37 103 l 37 85 l 116 85 m 196 85 l 196 113 l 157 113 l 157 122 l 189 122 l 189 146 l 157 146 l 157 157 l 196 157 l 196 183 l 130 183 l 130 85 l 196 85 m 202 157 l 228 157 l 228 85 l 256 85 l 256 157 l 279 157 l 279 183 l 202 183 l 202 157 m 313 183 l 270 85 l 292 85 q 299 88 296 85 q 304 96 302 91 l 307 102 l 342 102 l 345 96 q 351 88 346 91 q 358 85 355 85 l 380 85 l 338 183 l 313 183 m 388 85 l 417 85 l 417 119 l 449 119 l 449 143 l 417 143 l 417 157 l 455 157 l 455 183 l 388 183 l 388 85 m 640 149 q 643 131 640 137 l 614 174 q 609 181 612 179 q 601 183 607 183 l 579 183 l 579 85 l 608 85 l 608 125 q 604 142 608 134 l 605 142 l 638 91 q 649 85 642 85 l 669 85 l 669 183 l 640 183 l 640 149 m 680 157 l 704 157 l 704 85 l 733 85 l 733 157 l 759 157 l 759 183 l 680 183 l 680 157 m 1181 183 q 1170 174 1175 183 l 1153 139 q 1150 128 1150 135 l 1148 128 q 1145 139 1148 135 l 1129 174 q 1123 180 1126 178 q 1116 183 1121 183 l 1092 183 l 1092 85 l 1120 85 l 1120 128 q 1116 143 1120 134 l 1118 143 l 1136 102 q 1150 94 1139 94 q 1161 102 1157 94 l 1180 143 q 1178 136 1179 140 q 1178 128 1178 132 l 1178 85 l 1205 85 l 1205 183 l 1181 183 m 514 111 q 498 117 505 111 q 492 134 492 124 q 498 151 492 144 q 514 158 505 158 q 530 151 524 158 q 536 134 536 145 q 530 117 536 124 q 514 111 524 111 m 1027 111 q 1011 117 1018 111 q 1005 134 1005 124 q 1011 151 1005 145 q 1027 158 1018 158 q 1044 151 1036 158 q 1051 134 1051 144 q 1044 117 1051 124 q 1027 111 1036 111 m 321 134 q 324 152 324 141 l 326 152 q 329 134 326 139 l 335 120 l 316 120 l 321 134 m 844 99 q 848 88 844 93 q 859 84 852 84 q 869 88 865 84 q 873 99 873 93 q 869 110 873 105 q 859 114 865 114 q 848 110 852 114 q 844 99 844 105 z "},"6":{"ha":1217,"x_min":37,"x_max":1217,"o":"m 1217 314 l 38 314 l 38 476 l 485 476 l 485 478 l 485 490 q 485 491 485 491 l 485 493 q 486 499 485 496 q 487 505 487 502 q 487 509 487 506 q 489 514 488 511 q 540 591 501 561 q 628 621 578 621 q 700 602 667 621 q 752 550 733 582 q 771 478 771 517 l 771 476 l 1217 476 l 1217 314 m 629 343 q 695 361 665 343 q 743 410 725 379 q 761 476 761 440 q 743 542 761 511 q 695 590 725 572 q 629 607 665 607 q 562 590 593 607 q 514 542 532 572 q 497 476 497 511 q 514 409 497 440 q 562 361 532 379 q 629 343 593 343 m 689 575 q 697 570 693 573 q 706 564 701 567 l 548 564 q 566 577 554 570 q 585 585 579 583 q 628 594 602 594 q 672 585 650 594 l 689 575 m 716 555 q 745 476 745 517 q 739 435 745 454 q 718 399 735 420 l 563 399 l 716 555 m 539 395 q 516 433 523 415 q 509 476 509 453 q 510 494 509 488 q 517 517 511 507 q 537 550 523 536 l 694 550 l 539 395 m 64 423 l 90 423 l 90 347 l 119 347 l 119 423 l 145 423 l 145 450 l 64 450 l 64 423 m 187 379 l 196 379 l 208 356 q 220 347 213 347 l 246 347 l 228 379 q 210 389 220 389 l 213 389 q 228 397 220 389 q 236 414 236 404 q 225 439 236 429 q 199 450 214 450 l 157 450 l 157 347 l 187 347 l 187 379 m 286 347 l 286 450 l 257 450 l 257 347 l 286 347 m 341 450 l 296 347 l 320 347 q 333 357 327 347 l 336 364 l 371 364 l 376 357 q 388 347 381 347 l 411 347 l 367 450 l 341 450 m 422 347 l 487 347 l 487 374 l 450 374 l 450 450 l 422 450 l 422 347 m 847 450 q 809 435 824 450 q 795 397 795 420 q 809 359 795 373 q 847 344 824 344 q 886 359 871 344 q 901 397 901 373 q 886 435 901 420 q 847 450 871 450 m 980 412 q 983 392 980 400 l 951 438 q 946 445 949 444 q 939 447 944 447 l 914 447 l 914 346 l 945 346 l 945 386 q 942 405 945 391 l 976 352 q 989 346 982 346 l 1010 346 l 1010 447 l 980 447 l 980 412 m 1030 346 l 1095 346 l 1095 373 l 1059 373 l 1059 447 l 1030 447 l 1030 346 m 1153 376 q 1155 386 1153 382 l 1192 447 l 1164 447 q 1153 441 1156 447 l 1141 421 q 1139 412 1139 417 q 1136 405 1138 408 q 1133 421 1136 413 l 1122 441 q 1110 447 1118 447 l 1083 447 l 1120 386 q 1122 376 1122 383 l 1122 346 l 1153 346 l 1153 376 m 197 421 q 205 414 205 421 q 203 408 205 411 q 198 406 201 406 l 187 406 l 187 421 l 197 421 m 847 373 q 830 379 837 373 q 823 397 823 386 q 830 414 823 407 q 847 421 837 421 q 864 414 857 421 q 870 397 870 407 q 864 379 870 386 q 847 373 857 373 m 349 398 q 352 405 350 399 q 353 417 353 411 l 355 417 q 358 398 355 404 l 364 385 l 344 385 l 349 398 m 586 364 q 550 386 568 372 l 706 386 q 689 373 691 374 q 681 369 686 372 q 672 364 676 365 q 662 362 668 364 q 649 359 656 360 q 628 356 639 356 q 586 364 604 356 m 43 218 l 50 218 l 50 247 l 78 247 l 78 254 l 50 254 l 50 277 l 84 277 l 84 285 l 43 285 l 43 218 m 121 224 q 108 230 113 224 q 102 244 102 235 l 102 285 l 95 285 l 95 244 q 102 224 95 231 q 121 217 109 217 q 141 224 133 217 q 149 244 149 232 l 149 285 l 140 285 l 140 244 q 135 229 140 234 q 121 224 130 224 m 166 218 l 202 218 l 202 225 l 174 225 l 174 285 l 166 285 l 166 218 m 217 218 l 254 218 l 254 225 l 223 225 l 223 285 l 217 285 l 217 218 m 346 285 q 343 284 345 285 q 342 282 342 284 l 321 233 q 320 226 320 230 l 319 226 q 318 233 319 230 l 296 282 q 291 285 296 285 l 286 285 l 316 218 l 323 218 l 351 285 l 346 285 m 403 218 l 403 225 l 368 225 l 368 248 l 397 248 l 397 256 l 368 256 l 368 277 l 403 277 l 403 285 l 362 285 l 362 218 l 403 218 m 426 246 l 435 246 l 455 221 q 463 218 459 218 l 467 218 l 447 245 q 444 247 447 247 l 444 247 q 455 253 450 248 q 461 265 461 258 q 455 279 461 273 q 441 285 449 285 l 417 285 l 417 218 l 426 218 l 426 246 m 472 227 q 482 220 476 223 q 493 217 488 217 q 509 222 503 217 q 514 237 514 228 q 495 257 514 252 q 484 268 484 262 q 494 278 484 278 q 506 275 500 278 q 510 277 508 274 l 511 279 q 494 285 506 285 q 481 281 486 285 q 475 268 475 276 q 493 250 475 257 q 508 237 508 244 q 504 227 508 231 q 493 224 500 224 q 479 230 486 226 q 476 230 479 231 q 473 228 474 230 l 472 227 m 536 218 l 536 285 l 530 285 l 530 218 l 536 218 m 586 285 q 561 275 571 285 q 551 251 551 265 q 561 227 551 237 q 586 217 571 217 q 611 226 601 217 q 621 251 621 236 q 611 276 621 266 q 586 285 601 285 m 680 235 q 681 230 680 231 l 646 283 q 640 285 643 285 l 634 285 l 634 218 l 642 218 l 642 270 l 641 275 l 680 220 q 682 218 680 218 l 689 218 l 689 285 l 680 285 l 680 235 m 586 224 q 567 232 576 224 q 558 251 558 240 q 566 270 558 262 q 586 278 575 278 q 605 270 597 278 q 613 251 613 262 q 605 232 613 240 q 586 224 597 224 m 441 277 q 449 274 445 277 q 453 265 453 270 q 449 257 453 261 q 441 254 445 254 l 426 254 l 426 277 l 441 277 m 1198 252 q 1196 256 1198 254 l 1178 273 l 1176 270 q 1177 264 1173 267 l 1186 255 l 727 255 l 727 248 l 1185 248 l 1177 239 q 1176 233 1174 236 l 1178 230 l 1196 248 q 1198 252 1198 249 m 514 184 q 479 170 493 184 q 464 134 464 156 q 478 99 464 113 q 514 84 492 84 q 551 99 536 84 q 566 134 566 113 q 551 170 566 155 q 514 184 536 184 m 761 100 q 800 84 780 84 q 826 93 816 84 q 836 116 836 102 q 806 149 836 143 q 796 155 796 152 q 800 158 796 158 q 806 157 801 158 q 812 155 810 155 q 825 163 821 155 l 830 172 q 817 181 825 178 q 800 184 808 184 q 776 176 786 184 q 767 155 767 168 q 775 136 767 143 q 800 123 783 129 q 806 116 806 121 q 800 111 806 111 q 791 113 795 111 q 786 116 787 115 q 778 118 783 118 q 765 111 771 118 l 761 100 m 883 134 q 897 99 883 113 q 932 84 911 84 q 954 90 944 84 q 969 104 965 96 l 963 113 q 953 117 959 117 q 944 114 947 117 q 931 111 936 111 q 916 117 922 111 q 910 134 910 124 q 916 151 910 144 q 931 158 922 158 q 939 156 936 158 q 944 154 942 155 q 952 151 947 151 q 963 155 959 151 l 969 164 q 954 178 965 172 q 932 184 944 184 q 897 170 911 184 q 883 134 883 155 m 1027 184 q 991 170 1005 184 q 976 134 976 156 q 991 99 976 113 q 1027 84 1005 84 q 1063 99 1049 84 q 1078 134 1078 113 q 1063 170 1078 156 q 1027 184 1049 184 m 116 85 l 116 113 l 89 113 q 75 108 81 113 l 113 158 q 116 170 116 162 l 116 183 l 41 183 l 41 157 l 69 157 q 78 161 75 157 l 43 111 q 38 106 40 108 q 37 99 37 103 l 37 85 l 116 85 m 196 85 l 196 113 l 157 113 l 157 122 l 189 122 l 189 146 l 157 146 l 157 157 l 196 157 l 196 183 l 130 183 l 130 85 l 196 85 m 202 157 l 228 157 l 228 85 l 256 85 l 256 157 l 279 157 l 279 183 l 202 183 l 202 157 m 313 183 l 270 85 l 292 85 q 299 88 296 85 q 304 96 302 91 l 307 102 l 342 102 l 345 96 q 351 88 346 91 q 358 85 355 85 l 380 85 l 338 183 l 313 183 m 388 85 l 417 85 l 417 119 l 449 119 l 449 143 l 417 143 l 417 157 l 455 157 l 455 183 l 388 183 l 388 85 m 640 149 q 643 131 640 137 l 614 174 q 609 181 612 179 q 601 183 607 183 l 579 183 l 579 85 l 608 85 l 608 125 q 604 142 608 134 l 605 142 l 638 91 q 649 85 642 85 l 669 85 l 669 183 l 640 183 l 640 149 m 680 157 l 704 157 l 704 85 l 733 85 l 733 157 l 759 157 l 759 183 l 680 183 l 680 157 m 1181 183 q 1170 174 1175 183 l 1153 139 q 1150 128 1150 135 l 1148 128 q 1145 139 1148 135 l 1129 174 q 1123 180 1126 178 q 1116 183 1121 183 l 1092 183 l 1092 85 l 1120 85 l 1120 128 q 1116 143 1120 134 l 1118 143 l 1136 102 q 1150 94 1139 94 q 1161 102 1157 94 l 1180 143 q 1178 136 1179 140 q 1178 128 1178 132 l 1178 85 l 1205 85 l 1205 183 l 1181 183 m 514 111 q 498 117 505 111 q 492 134 492 124 q 498 151 492 144 q 514 158 505 158 q 530 151 524 158 q 536 134 536 145 q 530 117 536 124 q 514 111 524 111 m 1027 111 q 1011 117 1018 111 q 1005 134 1005 124 q 1011 151 1005 145 q 1027 158 1018 158 q 1044 151 1036 158 q 1051 134 1051 144 q 1044 117 1051 124 q 1027 111 1036 111 m 321 134 q 324 152 324 141 l 326 152 q 329 134 326 139 l 335 120 l 316 120 l 321 134 m 844 99 q 848 88 844 93 q 859 84 852 84 q 869 88 865 84 q 873 99 873 93 q 869 110 873 105 q 859 114 865 114 q 848 110 852 114 q 844 99 844 105 z "},"7":{"ha":1217,"x_min":37,"x_max":1217,"o":"m 1217 314 l 38 314 l 38 476 l 485 476 l 485 478 l 485 490 q 485 491 485 491 l 485 493 q 486 499 485 496 q 487 505 487 502 q 487 509 487 506 q 489 514 488 511 q 540 591 501 561 q 628 621 578 621 q 700 602 667 621 q 752 550 733 582 q 771 478 771 517 l 771 476 l 1217 476 l 1217 314 m 629 343 q 695 361 665 343 q 743 410 725 379 q 761 476 761 440 q 743 542 761 511 q 695 590 725 572 q 629 607 665 607 q 562 590 593 607 q 514 542 532 572 q 497 476 497 511 q 514 409 497 440 q 562 361 532 379 q 629 343 593 343 m 689 575 q 697 570 693 573 q 706 564 701 567 l 548 564 q 566 577 554 570 q 585 585 579 583 q 628 594 602 594 q 672 585 650 594 l 689 575 m 716 555 q 745 476 745 517 q 739 435 745 454 q 718 399 735 420 l 563 399 l 716 555 m 539 395 q 516 433 523 415 q 509 476 509 453 q 510 494 509 488 q 517 517 511 507 q 537 550 523 536 l 694 550 l 539 395 m 64 423 l 90 423 l 90 347 l 119 347 l 119 423 l 145 423 l 145 450 l 64 450 l 64 423 m 187 379 l 196 379 l 208 356 q 220 347 213 347 l 246 347 l 228 379 q 210 389 220 389 l 213 389 q 228 397 220 389 q 236 414 236 404 q 225 439 236 429 q 199 450 214 450 l 157 450 l 157 347 l 187 347 l 187 379 m 286 347 l 286 450 l 257 450 l 257 347 l 286 347 m 341 450 l 296 347 l 320 347 q 333 357 327 347 l 336 364 l 371 364 l 376 357 q 388 347 381 347 l 411 347 l 367 450 l 341 450 m 422 347 l 487 347 l 487 374 l 450 374 l 450 450 l 422 450 l 422 347 m 847 450 q 809 435 824 450 q 795 397 795 420 q 809 359 795 373 q 847 344 824 344 q 886 359 871 344 q 901 397 901 373 q 886 435 901 420 q 847 450 871 450 m 980 412 q 983 392 980 400 l 951 438 q 946 445 949 444 q 939 447 944 447 l 914 447 l 914 346 l 945 346 l 945 386 q 942 405 945 391 l 976 352 q 989 346 982 346 l 1010 346 l 1010 447 l 980 447 l 980 412 m 1030 346 l 1095 346 l 1095 373 l 1059 373 l 1059 447 l 1030 447 l 1030 346 m 1153 376 q 1155 386 1153 382 l 1192 447 l 1164 447 q 1153 441 1156 447 l 1141 421 q 1139 412 1139 417 q 1136 405 1138 408 q 1133 421 1136 413 l 1122 441 q 1110 447 1118 447 l 1083 447 l 1120 386 q 1122 376 1122 383 l 1122 346 l 1153 346 l 1153 376 m 197 421 q 205 414 205 421 q 203 408 205 411 q 198 406 201 406 l 187 406 l 187 421 l 197 421 m 847 373 q 830 379 837 373 q 823 397 823 386 q 830 414 823 407 q 847 421 837 421 q 864 414 857 421 q 870 397 870 407 q 864 379 870 386 q 847 373 857 373 m 349 398 q 352 405 350 399 q 353 417 353 411 l 355 417 q 358 398 355 404 l 364 385 l 344 385 l 349 398 m 586 364 q 550 386 568 372 l 706 386 q 689 373 691 374 q 681 369 686 372 q 672 364 676 365 q 662 362 668 364 q 649 359 656 360 q 628 356 639 356 q 586 364 604 356 m 43 218 l 50 218 l 50 247 l 78 247 l 78 254 l 50 254 l 50 277 l 84 277 l 84 285 l 43 285 l 43 218 m 121 224 q 108 230 113 224 q 102 244 102 235 l 102 285 l 95 285 l 95 244 q 102 224 95 231 q 121 217 109 217 q 141 224 133 217 q 149 244 149 232 l 149 285 l 140 285 l 140 244 q 135 229 140 234 q 121 224 130 224 m 166 218 l 202 218 l 202 225 l 174 225 l 174 285 l 166 285 l 166 218 m 217 218 l 254 218 l 254 225 l 223 225 l 223 285 l 217 285 l 217 218 m 346 285 q 343 284 345 285 q 342 282 342 284 l 321 233 q 320 226 320 230 l 319 226 q 318 233 319 230 l 296 282 q 291 285 296 285 l 286 285 l 316 218 l 323 218 l 351 285 l 346 285 m 403 218 l 403 225 l 368 225 l 368 248 l 397 248 l 397 256 l 368 256 l 368 277 l 403 277 l 403 285 l 362 285 l 362 218 l 403 218 m 426 246 l 435 246 l 455 221 q 463 218 459 218 l 467 218 l 447 245 q 444 247 447 247 l 444 247 q 455 253 450 248 q 461 265 461 258 q 455 279 461 273 q 441 285 449 285 l 417 285 l 417 218 l 426 218 l 426 246 m 472 227 q 482 220 476 223 q 493 217 488 217 q 509 222 503 217 q 514 237 514 228 q 495 257 514 252 q 484 268 484 262 q 494 278 484 278 q 506 275 500 278 q 510 277 508 274 l 511 279 q 494 285 506 285 q 481 281 486 285 q 475 268 475 276 q 493 250 475 257 q 508 237 508 244 q 504 227 508 231 q 493 224 500 224 q 479 230 486 226 q 476 230 479 231 q 473 228 474 230 l 472 227 m 536 218 l 536 285 l 530 285 l 530 218 l 536 218 m 586 285 q 561 275 571 285 q 551 251 551 265 q 561 227 551 237 q 586 217 571 217 q 611 226 601 217 q 621 251 621 236 q 611 276 621 266 q 586 285 601 285 m 680 235 q 681 230 680 231 l 646 283 q 640 285 643 285 l 634 285 l 634 218 l 642 218 l 642 270 l 641 275 l 680 220 q 682 218 680 218 l 689 218 l 689 285 l 680 285 l 680 235 m 586 224 q 567 232 576 224 q 558 251 558 240 q 566 270 558 262 q 586 278 575 278 q 605 270 597 278 q 613 251 613 262 q 605 232 613 240 q 586 224 597 224 m 441 277 q 449 274 445 277 q 453 265 453 270 q 449 257 453 261 q 441 254 445 254 l 426 254 l 426 277 l 441 277 m 1198 252 q 1196 256 1198 254 l 1178 273 l 1176 270 q 1177 264 1173 267 l 1186 255 l 727 255 l 727 248 l 1185 248 l 1177 239 q 1176 233 1174 236 l 1178 230 l 1196 248 q 1198 252 1198 249 m 514 184 q 479 170 493 184 q 464 134 464 156 q 478 99 464 113 q 514 84 492 84 q 551 99 536 84 q 566 134 566 113 q 551 170 566 155 q 514 184 536 184 m 761 100 q 800 84 780 84 q 826 93 816 84 q 836 116 836 102 q 806 149 836 143 q 796 155 796 152 q 800 158 796 158 q 806 157 801 158 q 812 155 810 155 q 825 163 821 155 l 830 172 q 817 181 825 178 q 800 184 808 184 q 776 176 786 184 q 767 155 767 168 q 775 136 767 143 q 800 123 783 129 q 806 116 806 121 q 800 111 806 111 q 791 113 795 111 q 786 116 787 115 q 778 118 783 118 q 765 111 771 118 l 761 100 m 883 134 q 897 99 883 113 q 932 84 911 84 q 954 90 944 84 q 969 104 965 96 l 963 113 q 953 117 959 117 q 944 114 947 117 q 931 111 936 111 q 916 117 922 111 q 910 134 910 124 q 916 151 910 144 q 931 158 922 158 q 939 156 936 158 q 944 154 942 155 q 952 151 947 151 q 963 155 959 151 l 969 164 q 954 178 965 172 q 932 184 944 184 q 897 170 911 184 q 883 134 883 155 m 1027 184 q 991 170 1005 184 q 976 134 976 156 q 991 99 976 113 q 1027 84 1005 84 q 1063 99 1049 84 q 1078 134 1078 113 q 1063 170 1078 156 q 1027 184 1049 184 m 116 85 l 116 113 l 89 113 q 75 108 81 113 l 113 158 q 116 170 116 162 l 116 183 l 41 183 l 41 157 l 69 157 q 78 161 75 157 l 43 111 q 38 106 40 108 q 37 99 37 103 l 37 85 l 116 85 m 196 85 l 196 113 l 157 113 l 157 122 l 189 122 l 189 146 l 157 146 l 157 157 l 196 157 l 196 183 l 130 183 l 130 85 l 196 85 m 202 157 l 228 157 l 228 85 l 256 85 l 256 157 l 279 157 l 279 183 l 202 183 l 202 157 m 313 183 l 270 85 l 292 85 q 299 88 296 85 q 304 96 302 91 l 307 102 l 342 102 l 345 96 q 351 88 346 91 q 358 85 355 85 l 380 85 l 338 183 l 313 183 m 388 85 l 417 85 l 417 119 l 449 119 l 449 143 l 417 143 l 417 157 l 455 157 l 455 183 l 388 183 l 388 85 m 640 149 q 643 131 640 137 l 614 174 q 609 181 612 179 q 601 183 607 183 l 579 183 l 579 85 l 608 85 l 608 125 q 604 142 608 134 l 605 142 l 638 91 q 649 85 642 85 l 669 85 l 669 183 l 640 183 l 640 149 m 680 157 l 704 157 l 704 85 l 733 85 l 733 157 l 759 157 l 759 183 l 680 183 l 680 157 m 1181 183 q 1170 174 1175 183 l 1153 139 q 1150 128 1150 135 l 1148 128 q 1145 139 1148 135 l 1129 174 q 1123 180 1126 178 q 1116 183 1121 183 l 1092 183 l 1092 85 l 1120 85 l 1120 128 q 1116 143 1120 134 l 1118 143 l 1136 102 q 1150 94 1139 94 q 1161 102 1157 94 l 1180 143 q 1178 136 1179 140 q 1178 128 1178 132 l 1178 85 l 1205 85 l 1205 183 l 1181 183 m 514 111 q 498 117 505 111 q 492 134 492 124 q 498 151 492 144 q 514 158 505 158 q 530 151 524 158 q 536 134 536 145 q 530 117 536 124 q 514 111 524 111 m 1027 111 q 1011 117 1018 111 q 1005 134 1005 124 q 1011 151 1005 145 q 1027 158 1018 158 q 1044 151 1036 158 q 1051 134 1051 144 q 1044 117 1051 124 q 1027 111 1036 111 m 321 134 q 324 152 324 141 l 326 152 q 329 134 326 139 l 335 120 l 316 120 l 321 134 m 844 99 q 848 88 844 93 q 859 84 852 84 q 869 88 865 84 q 873 99 873 93 q 869 110 873 105 q 859 114 865 114 q 848 110 852 114 q 844 99 844 105 z "},"8":{"ha":1217,"x_min":37,"x_max":1217,"o":"m 1217 314 l 38 314 l 38 476 l 485 476 l 485 478 l 485 490 q 485 491 485 491 l 485 493 q 486 499 485 496 q 487 505 487 502 q 487 509 487 506 q 489 514 488 511 q 540 591 501 561 q 628 621 578 621 q 700 602 667 621 q 752 550 733 582 q 771 478 771 517 l 771 476 l 1217 476 l 1217 314 m 629 343 q 695 361 665 343 q 743 410 725 379 q 761 476 761 440 q 743 542 761 511 q 695 590 725 572 q 629 607 665 607 q 562 590 593 607 q 514 542 532 572 q 497 476 497 511 q 514 409 497 440 q 562 361 532 379 q 629 343 593 343 m 689 575 q 697 570 693 573 q 706 564 701 567 l 548 564 q 566 577 554 570 q 585 585 579 583 q 628 594 602 594 q 672 585 650 594 l 689 575 m 716 555 q 745 476 745 517 q 739 435 745 454 q 718 399 735 420 l 563 399 l 716 555 m 539 395 q 516 433 523 415 q 509 476 509 453 q 510 494 509 488 q 517 517 511 507 q 537 550 523 536 l 694 550 l 539 395 m 64 423 l 90 423 l 90 347 l 119 347 l 119 423 l 145 423 l 145 450 l 64 450 l 64 423 m 187 379 l 196 379 l 208 356 q 220 347 213 347 l 246 347 l 228 379 q 210 389 220 389 l 213 389 q 228 397 220 389 q 236 414 236 404 q 225 439 236 429 q 199 450 214 450 l 157 450 l 157 347 l 187 347 l 187 379 m 286 347 l 286 450 l 257 450 l 257 347 l 286 347 m 341 450 l 296 347 l 320 347 q 333 357 327 347 l 336 364 l 371 364 l 376 357 q 388 347 381 347 l 411 347 l 367 450 l 341 450 m 422 347 l 487 347 l 487 374 l 450 374 l 450 450 l 422 450 l 422 347 m 847 450 q 809 435 824 450 q 795 397 795 420 q 809 359 795 373 q 847 344 824 344 q 886 359 871 344 q 901 397 901 373 q 886 435 901 420 q 847 450 871 450 m 980 412 q 983 392 980 400 l 951 438 q 946 445 949 444 q 939 447 944 447 l 914 447 l 914 346 l 945 346 l 945 386 q 942 405 945 391 l 976 352 q 989 346 982 346 l 1010 346 l 1010 447 l 980 447 l 980 412 m 1030 346 l 1095 346 l 1095 373 l 1059 373 l 1059 447 l 1030 447 l 1030 346 m 1153 376 q 1155 386 1153 382 l 1192 447 l 1164 447 q 1153 441 1156 447 l 1141 421 q 1139 412 1139 417 q 1136 405 1138 408 q 1133 421 1136 413 l 1122 441 q 1110 447 1118 447 l 1083 447 l 1120 386 q 1122 376 1122 383 l 1122 346 l 1153 346 l 1153 376 m 197 421 q 205 414 205 421 q 203 408 205 411 q 198 406 201 406 l 187 406 l 187 421 l 197 421 m 847 373 q 830 379 837 373 q 823 397 823 386 q 830 414 823 407 q 847 421 837 421 q 864 414 857 421 q 870 397 870 407 q 864 379 870 386 q 847 373 857 373 m 349 398 q 352 405 350 399 q 353 417 353 411 l 355 417 q 358 398 355 404 l 364 385 l 344 385 l 349 398 m 586 364 q 550 386 568 372 l 706 386 q 689 373 691 374 q 681 369 686 372 q 672 364 676 365 q 662 362 668 364 q 649 359 656 360 q 628 356 639 356 q 586 364 604 356 m 43 218 l 50 218 l 50 247 l 78 247 l 78 254 l 50 254 l 50 277 l 84 277 l 84 285 l 43 285 l 43 218 m 121 224 q 108 230 113 224 q 102 244 102 235 l 102 285 l 95 285 l 95 244 q 102 224 95 231 q 121 217 109 217 q 141 224 133 217 q 149 244 149 232 l 149 285 l 140 285 l 140 244 q 135 229 140 234 q 121 224 130 224 m 166 218 l 202 218 l 202 225 l 174 225 l 174 285 l 166 285 l 166 218 m 217 218 l 254 218 l 254 225 l 223 225 l 223 285 l 217 285 l 217 218 m 346 285 q 343 284 345 285 q 342 282 342 284 l 321 233 q 320 226 320 230 l 319 226 q 318 233 319 230 l 296 282 q 291 285 296 285 l 286 285 l 316 218 l 323 218 l 351 285 l 346 285 m 403 218 l 403 225 l 368 225 l 368 248 l 397 248 l 397 256 l 368 256 l 368 277 l 403 277 l 403 285 l 362 285 l 362 218 l 403 218 m 426 246 l 435 246 l 455 221 q 463 218 459 218 l 467 218 l 447 245 q 444 247 447 247 l 444 247 q 455 253 450 248 q 461 265 461 258 q 455 279 461 273 q 441 285 449 285 l 417 285 l 417 218 l 426 218 l 426 246 m 472 227 q 482 220 476 223 q 493 217 488 217 q 509 222 503 217 q 514 237 514 228 q 495 257 514 252 q 484 268 484 262 q 494 278 484 278 q 506 275 500 278 q 510 277 508 274 l 511 279 q 494 285 506 285 q 481 281 486 285 q 475 268 475 276 q 493 250 475 257 q 508 237 508 244 q 504 227 508 231 q 493 224 500 224 q 479 230 486 226 q 476 230 479 231 q 473 228 474 230 l 472 227 m 536 218 l 536 285 l 530 285 l 530 218 l 536 218 m 586 285 q 561 275 571 285 q 551 251 551 265 q 561 227 551 237 q 586 217 571 217 q 611 226 601 217 q 621 251 621 236 q 611 276 621 266 q 586 285 601 285 m 680 235 q 681 230 680 231 l 646 283 q 640 285 643 285 l 634 285 l 634 218 l 642 218 l 642 270 l 641 275 l 680 220 q 682 218 680 218 l 689 218 l 689 285 l 680 285 l 680 235 m 586 224 q 567 232 576 224 q 558 251 558 240 q 566 270 558 262 q 586 278 575 278 q 605 270 597 278 q 613 251 613 262 q 605 232 613 240 q 586 224 597 224 m 441 277 q 449 274 445 277 q 453 265 453 270 q 449 257 453 261 q 441 254 445 254 l 426 254 l 426 277 l 441 277 m 1198 252 q 1196 256 1198 254 l 1178 273 l 1176 270 q 1177 264 1173 267 l 1186 255 l 727 255 l 727 248 l 1185 248 l 1177 239 q 1176 233 1174 236 l 1178 230 l 1196 248 q 1198 252 1198 249 m 514 184 q 479 170 493 184 q 464 134 464 156 q 478 99 464 113 q 514 84 492 84 q 551 99 536 84 q 566 134 566 113 q 551 170 566 155 q 514 184 536 184 m 761 100 q 800 84 780 84 q 826 93 816 84 q 836 116 836 102 q 806 149 836 143 q 796 155 796 152 q 800 158 796 158 q 806 157 801 158 q 812 155 810 155 q 825 163 821 155 l 830 172 q 817 181 825 178 q 800 184 808 184 q 776 176 786 184 q 767 155 767 168 q 775 136 767 143 q 800 123 783 129 q 806 116 806 121 q 800 111 806 111 q 791 113 795 111 q 786 116 787 115 q 778 118 783 118 q 765 111 771 118 l 761 100 m 883 134 q 897 99 883 113 q 932 84 911 84 q 954 90 944 84 q 969 104 965 96 l 963 113 q 953 117 959 117 q 944 114 947 117 q 931 111 936 111 q 916 117 922 111 q 910 134 910 124 q 916 151 910 144 q 931 158 922 158 q 939 156 936 158 q 944 154 942 155 q 952 151 947 151 q 963 155 959 151 l 969 164 q 954 178 965 172 q 932 184 944 184 q 897 170 911 184 q 883 134 883 155 m 1027 184 q 991 170 1005 184 q 976 134 976 156 q 991 99 976 113 q 1027 84 1005 84 q 1063 99 1049 84 q 1078 134 1078 113 q 1063 170 1078 156 q 1027 184 1049 184 m 116 85 l 116 113 l 89 113 q 75 108 81 113 l 113 158 q 116 170 116 162 l 116 183 l 41 183 l 41 157 l 69 157 q 78 161 75 157 l 43 111 q 38 106 40 108 q 37 99 37 103 l 37 85 l 116 85 m 196 85 l 196 113 l 157 113 l 157 122 l 189 122 l 189 146 l 157 146 l 157 157 l 196 157 l 196 183 l 130 183 l 130 85 l 196 85 m 202 157 l 228 157 l 228 85 l 256 85 l 256 157 l 279 157 l 279 183 l 202 183 l 202 157 m 313 183 l 270 85 l 292 85 q 299 88 296 85 q 304 96 302 91 l 307 102 l 342 102 l 345 96 q 351 88 346 91 q 358 85 355 85 l 380 85 l 338 183 l 313 183 m 388 85 l 417 85 l 417 119 l 449 119 l 449 143 l 417 143 l 417 157 l 455 157 l 455 183 l 388 183 l 388 85 m 640 149 q 643 131 640 137 l 614 174 q 609 181 612 179 q 601 183 607 183 l 579 183 l 579 85 l 608 85 l 608 125 q 604 142 608 134 l 605 142 l 638 91 q 649 85 642 85 l 669 85 l 669 183 l 640 183 l 640 149 m 680 157 l 704 157 l 704 85 l 733 85 l 733 157 l 759 157 l 759 183 l 680 183 l 680 157 m 1181 183 q 1170 174 1175 183 l 1153 139 q 1150 128 1150 135 l 1148 128 q 1145 139 1148 135 l 1129 174 q 1123 180 1126 178 q 1116 183 1121 183 l 1092 183 l 1092 85 l 1120 85 l 1120 128 q 1116 143 1120 134 l 1118 143 l 1136 102 q 1150 94 1139 94 q 1161 102 1157 94 l 1180 143 q 1178 136 1179 140 q 1178 128 1178 132 l 1178 85 l 1205 85 l 1205 183 l 1181 183 m 514 111 q 498 117 505 111 q 492 134 492 124 q 498 151 492 144 q 514 158 505 158 q 530 151 524 158 q 536 134 536 145 q 530 117 536 124 q 514 111 524 111 m 1027 111 q 1011 117 1018 111 q 1005 134 1005 124 q 1011 151 1005 145 q 1027 158 1018 158 q 1044 151 1036 158 q 1051 134 1051 144 q 1044 117 1051 124 q 1027 111 1036 111 m 321 134 q 324 152 324 141 l 326 152 q 329 134 326 139 l 335 120 l 316 120 l 321 134 m 844 99 q 848 88 844 93 q 859 84 852 84 q 869 88 865 84 q 873 99 873 93 q 869 110 873 105 q 859 114 865 114 q 848 110 852 114 q 844 99 844 105 z "},"9":{"ha":1217,"x_min":37,"x_max":1217,"o":"m 1217 314 l 38 314 l 38 476 l 485 476 l 485 478 l 485 490 q 485 491 485 491 l 485 493 q 486 499 485 496 q 487 505 487 502 q 487 509 487 506 q 489 514 488 511 q 540 591 501 561 q 628 621 578 621 q 700 602 667 621 q 752 550 733 582 q 771 478 771 517 l 771 476 l 1217 476 l 1217 314 m 629 343 q 695 361 665 343 q 743 410 725 379 q 761 476 761 440 q 743 542 761 511 q 695 590 725 572 q 629 607 665 607 q 562 590 593 607 q 514 542 532 572 q 497 476 497 511 q 514 409 497 440 q 562 361 532 379 q 629 343 593 343 m 689 575 q 697 570 693 573 q 706 564 701 567 l 548 564 q 566 577 554 570 q 585 585 579 583 q 628 594 602 594 q 672 585 650 594 l 689 575 m 716 555 q 745 476 745 517 q 739 435 745 454 q 718 399 735 420 l 563 399 l 716 555 m 539 395 q 516 433 523 415 q 509 476 509 453 q 510 494 509 488 q 517 517 511 507 q 537 550 523 536 l 694 550 l 539 395 m 64 423 l 90 423 l 90 347 l 119 347 l 119 423 l 145 423 l 145 450 l 64 450 l 64 423 m 187 379 l 196 379 l 208 356 q 220 347 213 347 l 246 347 l 228 379 q 210 389 220 389 l 213 389 q 228 397 220 389 q 236 414 236 404 q 225 439 236 429 q 199 450 214 450 l 157 450 l 157 347 l 187 347 l 187 379 m 286 347 l 286 450 l 257 450 l 257 347 l 286 347 m 341 450 l 296 347 l 320 347 q 333 357 327 347 l 336 364 l 371 364 l 376 357 q 388 347 381 347 l 411 347 l 367 450 l 341 450 m 422 347 l 487 347 l 487 374 l 450 374 l 450 450 l 422 450 l 422 347 m 847 450 q 809 435 824 450 q 795 397 795 420 q 809 359 795 373 q 847 344 824 344 q 886 359 871 344 q 901 397 901 373 q 886 435 901 420 q 847 450 871 450 m 980 412 q 983 392 980 400 l 951 438 q 946 445 949 444 q 939 447 944 447 l 914 447 l 914 346 l 945 346 l 945 386 q 942 405 945 391 l 976 352 q 989 346 982 346 l 1010 346 l 1010 447 l 980 447 l 980 412 m 1030 346 l 1095 346 l 1095 373 l 1059 373 l 1059 447 l 1030 447 l 1030 346 m 1153 376 q 1155 386 1153 382 l 1192 447 l 1164 447 q 1153 441 1156 447 l 1141 421 q 1139 412 1139 417 q 1136 405 1138 408 q 1133 421 1136 413 l 1122 441 q 1110 447 1118 447 l 1083 447 l 1120 386 q 1122 376 1122 383 l 1122 346 l 1153 346 l 1153 376 m 197 421 q 205 414 205 421 q 203 408 205 411 q 198 406 201 406 l 187 406 l 187 421 l 197 421 m 847 373 q 830 379 837 373 q 823 397 823 386 q 830 414 823 407 q 847 421 837 421 q 864 414 857 421 q 870 397 870 407 q 864 379 870 386 q 847 373 857 373 m 349 398 q 352 405 350 399 q 353 417 353 411 l 355 417 q 358 398 355 404 l 364 385 l 344 385 l 349 398 m 586 364 q 550 386 568 372 l 706 386 q 689 373 691 374 q 681 369 686 372 q 672 364 676 365 q 662 362 668 364 q 649 359 656 360 q 628 356 639 356 q 586 364 604 356 m 43 218 l 50 218 l 50 247 l 78 247 l 78 254 l 50 254 l 50 277 l 84 277 l 84 285 l 43 285 l 43 218 m 121 224 q 108 230 113 224 q 102 244 102 235 l 102 285 l 95 285 l 95 244 q 102 224 95 231 q 121 217 109 217 q 141 224 133 217 q 149 244 149 232 l 149 285 l 140 285 l 140 244 q 135 229 140 234 q 121 224 130 224 m 166 218 l 202 218 l 202 225 l 174 225 l 174 285 l 166 285 l 166 218 m 217 218 l 254 218 l 254 225 l 223 225 l 223 285 l 217 285 l 217 218 m 346 285 q 343 284 345 285 q 342 282 342 284 l 321 233 q 320 226 320 230 l 319 226 q 318 233 319 230 l 296 282 q 291 285 296 285 l 286 285 l 316 218 l 323 218 l 351 285 l 346 285 m 403 218 l 403 225 l 368 225 l 368 248 l 397 248 l 397 256 l 368 256 l 368 277 l 403 277 l 403 285 l 362 285 l 362 218 l 403 218 m 426 246 l 435 246 l 455 221 q 463 218 459 218 l 467 218 l 447 245 q 444 247 447 247 l 444 247 q 455 253 450 248 q 461 265 461 258 q 455 279 461 273 q 441 285 449 285 l 417 285 l 417 218 l 426 218 l 426 246 m 472 227 q 482 220 476 223 q 493 217 488 217 q 509 222 503 217 q 514 237 514 228 q 495 257 514 252 q 484 268 484 262 q 494 278 484 278 q 506 275 500 278 q 510 277 508 274 l 511 279 q 494 285 506 285 q 481 281 486 285 q 475 268 475 276 q 493 250 475 257 q 508 237 508 244 q 504 227 508 231 q 493 224 500 224 q 479 230 486 226 q 476 230 479 231 q 473 228 474 230 l 472 227 m 536 218 l 536 285 l 530 285 l 530 218 l 536 218 m 586 285 q 561 275 571 285 q 551 251 551 265 q 561 227 551 237 q 586 217 571 217 q 611 226 601 217 q 621 251 621 236 q 611 276 621 266 q 586 285 601 285 m 680 235 q 681 230 680 231 l 646 283 q 640 285 643 285 l 634 285 l 634 218 l 642 218 l 642 270 l 641 275 l 680 220 q 682 218 680 218 l 689 218 l 689 285 l 680 285 l 680 235 m 586 224 q 567 232 576 224 q 558 251 558 240 q 566 270 558 262 q 586 278 575 278 q 605 270 597 278 q 613 251 613 262 q 605 232 613 240 q 586 224 597 224 m 441 277 q 449 274 445 277 q 453 265 453 270 q 449 257 453 261 q 441 254 445 254 l 426 254 l 426 277 l 441 277 m 1198 252 q 1196 256 1198 254 l 1178 273 l 1176 270 q 1177 264 1173 267 l 1186 255 l 727 255 l 727 248 l 1185 248 l 1177 239 q 1176 233 1174 236 l 1178 230 l 1196 248 q 1198 252 1198 249 m 514 184 q 479 170 493 184 q 464 134 464 156 q 478 99 464 113 q 514 84 492 84 q 551 99 536 84 q 566 134 566 113 q 551 170 566 155 q 514 184 536 184 m 761 100 q 800 84 780 84 q 826 93 816 84 q 836 116 836 102 q 806 149 836 143 q 796 155 796 152 q 800 158 796 158 q 806 157 801 158 q 812 155 810 155 q 825 163 821 155 l 830 172 q 817 181 825 178 q 800 184 808 184 q 776 176 786 184 q 767 155 767 168 q 775 136 767 143 q 800 123 783 129 q 806 116 806 121 q 800 111 806 111 q 791 113 795 111 q 786 116 787 115 q 778 118 783 118 q 765 111 771 118 l 761 100 m 883 134 q 897 99 883 113 q 932 84 911 84 q 954 90 944 84 q 969 104 965 96 l 963 113 q 953 117 959 117 q 944 114 947 117 q 931 111 936 111 q 916 117 922 111 q 910 134 910 124 q 916 151 910 144 q 931 158 922 158 q 939 156 936 158 q 944 154 942 155 q 952 151 947 151 q 963 155 959 151 l 969 164 q 954 178 965 172 q 932 184 944 184 q 897 170 911 184 q 883 134 883 155 m 1027 184 q 991 170 1005 184 q 976 134 976 156 q 991 99 976 113 q 1027 84 1005 84 q 1063 99 1049 84 q 1078 134 1078 113 q 1063 170 1078 156 q 1027 184 1049 184 m 116 85 l 116 113 l 89 113 q 75 108 81 113 l 113 158 q 116 170 116 162 l 116 183 l 41 183 l 41 157 l 69 157 q 78 161 75 157 l 43 111 q 38 106 40 108 q 37 99 37 103 l 37 85 l 116 85 m 196 85 l 196 113 l 157 113 l 157 122 l 189 122 l 189 146 l 157 146 l 157 157 l 196 157 l 196 183 l 130 183 l 130 85 l 196 85 m 202 157 l 228 157 l 228 85 l 256 85 l 256 157 l 279 157 l 279 183 l 202 183 l 202 157 m 313 183 l 270 85 l 292 85 q 299 88 296 85 q 304 96 302 91 l 307 102 l 342 102 l 345 96 q 351 88 346 91 q 358 85 355 85 l 380 85 l 338 183 l 313 183 m 388 85 l 417 85 l 417 119 l 449 119 l 449 143 l 417 143 l 417 157 l 455 157 l 455 183 l 388 183 l 388 85 m 640 149 q 643 131 640 137 l 614 174 q 609 181 612 179 q 601 183 607 183 l 579 183 l 579 85 l 608 85 l 608 125 q 604 142 608 134 l 605 142 l 638 91 q 649 85 642 85 l 669 85 l 669 183 l 640 183 l 640 149 m 680 157 l 704 157 l 704 85 l 733 85 l 733 157 l 759 157 l 759 183 l 680 183 l 680 157 m 1181 183 q 1170 174 1175 183 l 1153 139 q 1150 128 1150 135 l 1148 128 q 1145 139 1148 135 l 1129 174 q 1123 180 1126 178 q 1116 183 1121 183 l 1092 183 l 1092 85 l 1120 85 l 1120 128 q 1116 143 1120 134 l 1118 143 l 1136 102 q 1150 94 1139 94 q 1161 102 1157 94 l 1180 143 q 1178 136 1179 140 q 1178 128 1178 132 l 1178 85 l 1205 85 l 1205 183 l 1181 183 m 514 111 q 498 117 505 111 q 492 134 492 124 q 498 151 492 144 q 514 158 505 158 q 530 151 524 158 q 536 134 536 145 q 530 117 536 124 q 514 111 524 111 m 1027 111 q 1011 117 1018 111 q 1005 134 1005 124 q 1011 151 1005 145 q 1027 158 1018 158 q 1044 151 1036 158 q 1051 134 1051 144 q 1044 117 1051 124 q 1027 111 1036 111 m 321 134 q 324 152 324 141 l 326 152 q 329 134 326 139 l 335 120 l 316 120 l 321 134 m 844 99 q 848 88 844 93 q 859 84 852 84 q 869 88 865 84 q 873 99 873 93 q 869 110 873 105 q 859 114 865 114 q 848 110 852 114 q 844 99 844 105 z "}," ":{"ha":379,"x_min":0,"x_max":0,"o":""},"":{"ha":1217,"x_min":37,"x_max":1217,"o":"m 1217 314 l 38 314 l 38 476 l 485 476 l 485 478 l 485 490 q 485 491 485 491 l 485 493 q 486 499 485 496 q 487 505 487 502 q 487 509 487 506 q 489 514 488 511 q 540 591 501 561 q 628 621 578 621 q 700 602 667 621 q 752 550 733 582 q 771 478 771 517 l 771 476 l 1217 476 l 1217 314 m 629 343 q 695 361 665 343 q 743 410 725 379 q 761 476 761 440 q 743 542 761 511 q 695 590 725 572 q 629 607 665 607 q 562 590 593 607 q 514 542 532 572 q 497 476 497 511 q 514 409 497 440 q 562 361 532 379 q 629 343 593 343 m 689 575 q 697 570 693 573 q 706 564 701 567 l 548 564 q 566 577 554 570 q 585 585 579 583 q 628 594 602 594 q 672 585 650 594 l 689 575 m 716 555 q 745 476 745 517 q 739 435 745 454 q 718 399 735 420 l 563 399 l 716 555 m 539 395 q 516 433 523 415 q 509 476 509 453 q 510 494 509 488 q 517 517 511 507 q 537 550 523 536 l 694 550 l 539 395 m 64 423 l 90 423 l 90 347 l 119 347 l 119 423 l 145 423 l 145 450 l 64 450 l 64 423 m 187 379 l 196 379 l 208 356 q 220 347 213 347 l 246 347 l 228 379 q 210 389 220 389 l 213 389 q 228 397 220 389 q 236 414 236 404 q 225 439 236 429 q 199 450 214 450 l 157 450 l 157 347 l 187 347 l 187 379 m 286 347 l 286 450 l 257 450 l 257 347 l 286 347 m 341 450 l 296 347 l 320 347 q 333 357 327 347 l 336 364 l 371 364 l 376 357 q 388 347 381 347 l 411 347 l 367 450 l 341 450 m 422 347 l 487 347 l 487 374 l 450 374 l 450 450 l 422 450 l 422 347 m 847 450 q 809 435 824 450 q 795 397 795 420 q 809 359 795 373 q 847 344 824 344 q 886 359 871 344 q 901 397 901 373 q 886 435 901 420 q 847 450 871 450 m 980 412 q 983 392 980 400 l 951 438 q 946 445 949 444 q 939 447 944 447 l 914 447 l 914 346 l 945 346 l 945 386 q 942 405 945 391 l 976 352 q 989 346 982 346 l 1010 346 l 1010 447 l 980 447 l 980 412 m 1030 346 l 1095 346 l 1095 373 l 1059 373 l 1059 447 l 1030 447 l 1030 346 m 1153 376 q 1155 386 1153 382 l 1192 447 l 1164 447 q 1153 441 1156 447 l 1141 421 q 1139 412 1139 417 q 1136 405 1138 408 q 1133 421 1136 413 l 1122 441 q 1110 447 1118 447 l 1083 447 l 1120 386 q 1122 376 1122 383 l 1122 346 l 1153 346 l 1153 376 m 197 421 q 205 414 205 421 q 203 408 205 411 q 198 406 201 406 l 187 406 l 187 421 l 197 421 m 847 373 q 830 379 837 373 q 823 397 823 386 q 830 414 823 407 q 847 421 837 421 q 864 414 857 421 q 870 397 870 407 q 864 379 870 386 q 847 373 857 373 m 349 398 q 352 405 350 399 q 353 417 353 411 l 355 417 q 358 398 355 404 l 364 385 l 344 385 l 349 398 m 586 364 q 550 386 568 372 l 706 386 q 689 373 691 374 q 681 369 686 372 q 672 364 676 365 q 662 362 668 364 q 649 359 656 360 q 628 356 639 356 q 586 364 604 356 m 43 218 l 50 218 l 50 247 l 78 247 l 78 254 l 50 254 l 50 277 l 84 277 l 84 285 l 43 285 l 43 218 m 121 224 q 108 230 113 224 q 102 244 102 235 l 102 285 l 95 285 l 95 244 q 102 224 95 231 q 121 217 109 217 q 141 224 133 217 q 149 244 149 232 l 149 285 l 140 285 l 140 244 q 135 229 140 234 q 121 224 130 224 m 166 218 l 202 218 l 202 225 l 174 225 l 174 285 l 166 285 l 166 218 m 217 218 l 254 218 l 254 225 l 223 225 l 223 285 l 217 285 l 217 218 m 346 285 q 343 284 345 285 q 342 282 342 284 l 321 233 q 320 226 320 230 l 319 226 q 318 233 319 230 l 296 282 q 291 285 296 285 l 286 285 l 316 218 l 323 218 l 351 285 l 346 285 m 403 218 l 403 225 l 368 225 l 368 248 l 397 248 l 397 256 l 368 256 l 368 277 l 403 277 l 403 285 l 362 285 l 362 218 l 403 218 m 426 246 l 435 246 l 455 221 q 463 218 459 218 l 467 218 l 447 245 q 444 247 447 247 l 444 247 q 455 253 450 248 q 461 265 461 258 q 455 279 461 273 q 441 285 449 285 l 417 285 l 417 218 l 426 218 l 426 246 m 472 227 q 482 220 476 223 q 493 217 488 217 q 509 222 503 217 q 514 237 514 228 q 495 257 514 252 q 484 268 484 262 q 494 278 484 278 q 506 275 500 278 q 510 277 508 274 l 511 279 q 494 285 506 285 q 481 281 486 285 q 475 268 475 276 q 493 250 475 257 q 508 237 508 244 q 504 227 508 231 q 493 224 500 224 q 479 230 486 226 q 476 230 479 231 q 473 228 474 230 l 472 227 m 536 218 l 536 285 l 530 285 l 530 218 l 536 218 m 586 285 q 561 275 571 285 q 551 251 551 265 q 561 227 551 237 q 586 217 571 217 q 611 226 601 217 q 621 251 621 236 q 611 276 621 266 q 586 285 601 285 m 680 235 q 681 230 680 231 l 646 283 q 640 285 643 285 l 634 285 l 634 218 l 642 218 l 642 270 l 641 275 l 680 220 q 682 218 680 218 l 689 218 l 689 285 l 680 285 l 680 235 m 586 224 q 567 232 576 224 q 558 251 558 240 q 566 270 558 262 q 586 278 575 278 q 605 270 597 278 q 613 251 613 262 q 605 232 613 240 q 586 224 597 224 m 441 277 q 449 274 445 277 q 453 265 453 270 q 449 257 453 261 q 441 254 445 254 l 426 254 l 426 277 l 441 277 m 1198 252 q 1196 256 1198 254 l 1178 273 l 1176 270 q 1177 264 1173 267 l 1186 255 l 727 255 l 727 248 l 1185 248 l 1177 239 q 1176 233 1174 236 l 1178 230 l 1196 248 q 1198 252 1198 249 m 514 184 q 479 170 493 184 q 464 134 464 156 q 478 99 464 113 q 514 84 492 84 q 551 99 536 84 q 566 134 566 113 q 551 170 566 155 q 514 184 536 184 m 761 100 q 800 84 780 84 q 826 93 816 84 q 836 116 836 102 q 806 149 836 143 q 796 155 796 152 q 800 158 796 158 q 806 157 801 158 q 812 155 810 155 q 825 163 821 155 l 830 172 q 817 181 825 178 q 800 184 808 184 q 776 176 786 184 q 767 155 767 168 q 775 136 767 143 q 800 123 783 129 q 806 116 806 121 q 800 111 806 111 q 791 113 795 111 q 786 116 787 115 q 778 118 783 118 q 765 111 771 118 l 761 100 m 883 134 q 897 99 883 113 q 932 84 911 84 q 954 90 944 84 q 969 104 965 96 l 963 113 q 953 117 959 117 q 944 114 947 117 q 931 111 936 111 q 916 117 922 111 q 910 134 910 124 q 916 151 910 144 q 931 158 922 158 q 939 156 936 158 q 944 154 942 155 q 952 151 947 151 q 963 155 959 151 l 969 164 q 954 178 965 172 q 932 184 944 184 q 897 170 911 184 q 883 134 883 155 m 1027 184 q 991 170 1005 184 q 976 134 976 156 q 991 99 976 113 q 1027 84 1005 84 q 1063 99 1049 84 q 1078 134 1078 113 q 1063 170 1078 156 q 1027 184 1049 184 m 116 85 l 116 113 l 89 113 q 75 108 81 113 l 113 158 q 116 170 116 162 l 116 183 l 41 183 l 41 157 l 69 157 q 78 161 75 157 l 43 111 q 38 106 40 108 q 37 99 37 103 l 37 85 l 116 85 m 196 85 l 196 113 l 157 113 l 157 122 l 189 122 l 189 146 l 157 146 l 157 157 l 196 157 l 196 183 l 130 183 l 130 85 l 196 85 m 202 157 l 228 157 l 228 85 l 256 85 l 256 157 l 279 157 l 279 183 l 202 183 l 202 157 m 313 183 l 270 85 l 292 85 q 299 88 296 85 q 304 96 302 91 l 307 102 l 342 102 l 345 96 q 351 88 346 91 q 358 85 355 85 l 380 85 l 338 183 l 313 183 m 388 85 l 417 85 l 417 119 l 449 119 l 449 143 l 417 143 l 417 157 l 455 157 l 455 183 l 388 183 l 388 85 m 640 149 q 643 131 640 137 l 614 174 q 609 181 612 179 q 601 183 607 183 l 579 183 l 579 85 l 608 85 l 608 125 q 604 142 608 134 l 605 142 l 638 91 q 649 85 642 85 l 669 85 l 669 183 l 640 183 l 640 149 m 680 157 l 704 157 l 704 85 l 733 85 l 733 157 l 759 157 l 759 183 l 680 183 l 680 157 m 1181 183 q 1170 174 1175 183 l 1153 139 q 1150 128 1150 135 l 1148 128 q 1145 139 1148 135 l 1129 174 q 1123 180 1126 178 q 1116 183 1121 183 l 1092 183 l 1092 85 l 1120 85 l 1120 128 q 1116 143 1120 134 l 1118 143 l 1136 102 q 1150 94 1139 94 q 1161 102 1157 94 l 1180 143 q 1178 136 1179 140 q 1178 128 1178 132 l 1178 85 l 1205 85 l 1205 183 l 1181 183 m 514 111 q 498 117 505 111 q 492 134 492 124 q 498 151 492 144 q 514 158 505 158 q 530 151 524 158 q 536 134 536 145 q 530 117 536 124 q 514 111 524 111 m 1027 111 q 1011 117 1018 111 q 1005 134 1005 124 q 1011 151 1005 145 q 1027 158 1018 158 q 1044 151 1036 158 q 1051 134 1051 144 q 1044 117 1051 124 q 1027 111 1036 111 m 321 134 q 324 152 324 141 l 326 152 q 329 134 326 139 l 335 120 l 316 120 l 321 134 m 844 99 q 848 88 844 93 q 859 84 852 84 q 869 88 865 84 q 873 99 873 93 q 869 110 873 105 q 859 114 865 114 q 848 110 852 114 q 844 99 844 105 z "},"A":{"ha":1044,"x_min":19,"x_max":1024,"o":"m 1022 34 q 1024 22 1024 28 q 1017 6 1024 11 q 998 0 1010 0 l 811 0 q 777 25 786 0 l 722 178 l 321 178 l 267 25 q 233 0 259 0 l 46 0 q 27 6 34 0 q 19 22 19 11 q 22 34 19 28 l 407 1027 q 441 1051 416 1051 l 603 1051 q 638 1027 629 1051 l 1022 34 m 653 382 l 533 719 l 521 762 l 511 719 l 391 382 l 653 382 z "},"B":{"ha":987,"x_min":113,"x_max":932,"o":"m 143 0 q 113 30 113 0 l 113 1019 q 143 1049 113 1049 l 541 1049 q 721 1014 643 1049 q 840 914 798 979 q 883 765 883 850 q 867 680 883 721 q 823 606 851 638 q 761 561 795 575 q 849 507 810 545 q 910 416 888 469 q 932 305 932 363 q 888 144 932 214 q 766 38 845 75 q 584 0 687 0 l 143 0 m 520 633 q 582 647 555 633 q 625 686 609 662 q 640 740 640 711 q 609 813 640 785 q 526 841 577 841 l 354 841 l 354 633 l 520 633 m 563 202 q 653 238 619 202 q 688 331 688 273 q 671 392 688 364 q 624 438 654 420 q 553 455 593 455 l 354 455 l 354 202 l 563 202 z "},"C":{"ha":991,"x_min":57,"x_max":945,"o":"m 601 -19 q 326 54 450 -19 q 129 252 201 127 q 57 526 57 377 q 128 800 57 676 q 325 996 200 924 q 601 1069 450 1069 q 779 1040 694 1069 q 932 960 864 1012 q 945 937 945 950 q 937 918 945 927 l 832 780 q 809 768 821 768 q 790 774 800 768 q 700 820 748 803 q 601 836 651 836 q 453 795 521 836 q 343 683 384 754 q 302 526 302 612 q 343 368 302 439 q 453 255 385 296 q 601 214 522 214 q 700 228 656 214 q 792 278 744 243 q 811 284 802 284 q 834 272 824 284 l 937 134 q 945 113 945 122 q 934 93 945 102 q 780 10 865 40 q 601 -19 694 -19 z "},"D":{"ha":1108,"x_min":113,"x_max":1052,"o":"m 143 0 q 113 30 113 0 l 113 1019 q 143 1049 113 1049 l 501 1049 q 779 980 653 1049 q 979 792 905 912 q 1052 525 1052 671 q 979 258 1052 379 q 780 69 906 138 q 503 0 654 0 l 143 0 m 511 232 q 662 270 595 232 q 768 373 730 307 q 806 525 806 440 q 768 675 806 609 q 662 780 730 742 q 510 817 594 817 l 355 817 l 355 232 l 511 232 z "},"E":{"ha":937,"x_min":113,"x_max":880,"o":"m 880 30 q 851 0 880 0 l 143 0 q 113 30 113 0 l 113 1019 q 143 1049 113 1049 l 840 1049 q 870 1019 870 1049 l 870 859 q 840 829 870 829 l 355 829 l 355 640 l 728 640 q 758 610 758 640 l 758 462 q 728 432 758 432 l 355 432 l 355 220 l 851 220 q 880 190 880 220 l 880 30 z "},"F":{"ha":862,"x_min":113,"x_max":828,"o":"m 355 30 q 325 0 355 0 l 143 0 q 113 30 113 0 l 113 1019 q 143 1049 113 1049 l 798 1049 q 828 1019 828 1049 l 828 860 q 798 830 828 830 l 355 830 l 355 578 l 689 578 q 719 548 719 578 l 719 401 q 689 371 719 371 l 355 371 l 355 30 z "},"G":{"ha":1035,"x_min":57,"x_max":962,"o":"m 732 453 q 762 483 732 483 l 932 483 q 962 453 962 483 l 962 119 q 944 84 962 96 q 785 8 874 35 q 601 -19 695 -19 q 326 55 450 -19 q 129 253 201 128 q 57 526 57 378 q 129 800 57 676 q 325 997 201 924 q 601 1069 450 1069 q 778 1041 694 1069 q 932 960 863 1012 q 945 938 945 949 q 936 918 945 928 l 831 780 q 809 768 821 768 q 789 774 799 768 q 700 820 748 803 q 601 837 651 837 q 453 796 522 837 q 343 683 384 754 q 302 526 302 612 q 343 366 302 439 q 453 250 385 293 q 601 208 522 208 q 732 231 672 208 l 732 453 z "},"H":{"ha":1136,"x_min":113,"x_max":1024,"o":"m 355 30 q 325 0 355 0 l 143 0 q 113 30 113 0 l 113 1019 q 143 1049 113 1049 l 325 1049 q 355 1019 355 1049 l 355 662 l 781 662 l 781 1019 q 811 1049 781 1049 l 994 1049 q 1024 1019 1024 1049 l 1024 30 q 994 0 1024 0 l 811 0 q 781 30 781 0 l 781 431 l 355 431 l 355 30 z "},"I":{"ha":467,"x_min":113,"x_max":355,"o":"m 355 30 q 325 0 355 0 l 143 0 q 113 30 113 0 l 113 1019 q 143 1049 113 1049 l 325 1049 q 355 1019 355 1049 l 355 30 z "},"J":{"ha":688,"x_min":5,"x_max":597,"o":"m 261 -22 q 140 2 203 -22 q 17 69 76 25 q 5 90 5 78 q 13 111 5 99 l 110 248 q 131 261 118 261 q 152 253 142 261 q 259 211 213 211 q 330 240 304 211 q 355 326 355 269 l 355 1019 q 385 1049 355 1049 l 568 1049 q 597 1019 597 1049 l 597 309 q 557 134 597 208 q 440 19 516 59 q 261 -22 364 -22 z "},"K":{"ha":1072,"x_min":113,"x_max":1044,"o":"m 1038 36 q 1044 18 1044 27 q 1037 5 1044 10 q 1019 0 1030 0 l 796 0 q 760 19 772 0 l 485 429 l 355 279 l 355 30 q 325 0 355 0 l 143 0 q 113 30 113 0 l 113 1019 q 143 1049 113 1049 l 325 1049 q 355 1019 355 1049 l 355 608 l 706 1032 q 743 1049 721 1049 l 968 1049 q 987 1045 980 1049 q 994 1032 994 1040 q 985 1013 994 1023 l 642 613 l 1038 36 z "},"L":{"ha":832,"x_min":113,"x_max":809,"o":"m 809 30 q 780 0 809 0 l 143 0 q 113 30 113 0 l 113 1019 q 143 1049 113 1049 l 325 1049 q 355 1019 355 1049 l 355 231 l 780 231 q 809 202 809 231 l 809 30 z "},"M":{"ha":1353,"x_min":60,"x_max":1293,"o":"m 306 28 q 275 0 302 0 l 90 0 q 68 8 75 0 q 62 31 60 16 l 187 1022 q 197 1042 188 1035 q 219 1049 205 1049 l 438 1049 q 470 1024 464 1049 l 677 336 l 882 1024 q 915 1049 889 1049 l 1134 1049 q 1156 1042 1147 1049 q 1166 1022 1164 1035 l 1291 31 q 1285 7 1293 16 q 1263 -1 1278 -1 l 1078 -1 q 1046 28 1050 -1 l 979 661 l 790 25 q 757 0 783 0 l 598 0 q 565 25 572 0 l 376 661 l 306 28 z "},"N":{"ha":1134,"x_min":113,"x_max":1022,"o":"m 349 30 q 319 0 349 0 l 143 0 q 113 30 113 0 l 113 1019 q 143 1049 113 1049 l 341 1049 q 377 1030 365 1049 l 786 410 l 786 1019 q 815 1049 786 1049 l 992 1049 q 1022 1019 1022 1049 l 1022 30 q 992 0 1022 0 l 815 0 q 779 19 792 0 l 349 668 l 349 30 z "},"O":{"ha":1201,"x_min":57,"x_max":1145,"o":"m 601 -19 q 326 54 450 -19 q 129 252 201 127 q 57 526 57 377 q 128 800 57 676 q 325 996 200 924 q 601 1069 450 1069 q 877 996 752 1069 q 1073 800 1001 924 q 1145 526 1145 676 q 1073 252 1145 377 q 877 54 1001 127 q 601 -19 752 -19 m 601 214 q 750 255 681 214 q 859 367 818 296 q 900 526 900 439 q 859 683 900 612 q 749 795 818 754 q 601 836 680 836 q 453 795 521 836 q 343 683 384 754 q 302 526 302 612 q 343 368 302 439 q 453 255 385 296 q 601 214 522 214 z "},"P":{"ha":946,"x_min":113,"x_max":909,"o":"m 355 30 q 325 0 355 0 l 143 0 q 113 30 113 0 l 113 1019 q 143 1049 113 1049 l 535 1049 q 732 1004 647 1049 q 863 880 817 960 q 909 700 909 800 q 864 510 909 592 q 737 383 820 428 q 538 338 653 338 l 355 338 l 355 30 m 519 557 q 595 575 561 557 q 648 625 629 593 q 667 697 667 657 q 648 767 667 736 q 595 814 629 797 q 520 830 562 830 l 355 830 l 355 557 l 519 557 z "},"Q":{"ha":1201,"x_min":57,"x_max":1145,"o":"m 1145 526 q 1091 285 1145 397 q 939 97 1036 173 q 719 -5 842 21 l 719 -190 q 689 -220 719 -220 l 506 -220 q 476 -190 476 -220 l 476 -4 q 259 100 355 23 q 111 287 164 176 q 57 526 57 398 q 128 800 57 676 q 325 996 200 924 q 601 1069 450 1069 q 877 996 752 1069 q 1073 800 1001 924 q 1145 526 1145 676 m 601 214 q 750 255 681 214 q 859 367 818 296 q 900 526 900 439 q 859 683 900 612 q 749 795 818 754 q 601 836 680 836 q 453 795 521 836 q 343 683 384 754 q 302 526 302 612 q 343 368 302 439 q 453 255 385 296 q 601 214 522 214 z "},"R":{"ha":994,"x_min":113,"x_max":949,"o":"m 143 0 q 113 30 113 0 l 113 1019 q 143 1049 113 1049 l 558 1049 q 748 1004 665 1049 q 877 880 831 960 q 924 696 924 800 q 881 522 924 594 q 761 405 838 450 l 945 35 q 949 19 949 26 q 942 5 949 10 q 923 0 935 0 l 714 0 q 679 22 689 0 l 529 343 q 490 342 516 342 l 355 342 l 355 30 q 325 0 355 0 l 143 0 m 535 550 q 609 570 576 550 q 660 622 641 589 q 678 695 678 656 q 659 771 678 739 q 609 819 641 803 q 538 835 577 835 l 355 835 l 355 550 l 535 550 z "},"S":{"ha":896,"x_min":40,"x_max":845,"o":"m 457 -17 q 232 28 338 -17 q 49 161 126 74 q 40 181 40 171 q 51 203 40 192 l 166 314 q 186 323 175 323 q 208 312 198 323 q 321 234 258 261 q 452 208 385 208 q 562 234 523 208 q 600 307 600 261 q 583 360 600 338 q 522 402 565 382 q 399 444 479 421 q 174 558 270 482 q 78 770 78 634 q 120 919 78 851 q 246 1028 162 987 q 450 1069 329 1069 q 644 1032 551 1069 q 810 934 737 996 q 821 913 821 925 q 812 892 821 903 l 707 773 q 685 761 697 761 q 665 769 676 761 q 566 825 622 803 q 457 848 511 848 q 361 828 396 848 q 326 768 326 807 q 346 716 326 736 q 400 681 367 695 q 500 644 433 666 q 518 638 503 644 q 696 562 626 603 q 806 460 766 520 q 845 312 845 399 q 797 138 845 213 q 660 23 748 63 q 457 -17 572 -17 z "},"T":{"ha":883,"x_min":28,"x_max":855,"o":"m 562 30 q 532 0 562 0 l 350 0 q 320 30 320 0 l 320 824 l 58 824 q 28 853 28 824 l 28 1019 q 58 1049 28 1049 l 825 1049 q 855 1019 855 1049 l 855 853 q 825 824 855 824 l 562 824 l 562 30 z "},"U":{"ha":1077,"x_min":90,"x_max":986,"o":"m 538 -22 q 297 34 398 -22 q 143 190 196 90 q 90 417 90 290 l 90 1019 q 120 1049 90 1049 l 302 1049 q 332 1019 332 1049 l 332 450 q 357 320 332 376 q 428 234 382 264 q 538 204 474 204 q 648 234 601 204 q 719 320 694 264 q 744 450 744 375 l 744 1019 q 774 1049 744 1049 l 957 1049 q 986 1019 986 1049 l 986 417 q 933 190 986 290 q 779 34 880 90 q 538 -22 677 -22 z "},"V":{"ha":1030,"x_min":19,"x_max":1011,"o":"m 626 24 q 592 0 618 0 l 439 0 q 405 24 414 0 l 22 1015 q 19 1028 19 1021 q 27 1044 19 1038 q 46 1049 34 1049 l 243 1049 q 276 1024 267 1049 l 514 341 l 517 342 l 754 1024 q 788 1049 762 1049 l 985 1049 q 1004 1044 998 1049 q 1011 1028 1011 1038 q 1008 1015 1011 1022 l 626 24 z "},"W":{"ha":1508,"x_min":19,"x_max":1487,"o":"m 629 24 q 595 0 621 0 l 438 0 q 404 24 413 0 l 22 1015 q 19 1027 19 1022 q 26 1044 19 1038 q 45 1049 33 1049 l 243 1049 q 277 1025 268 1049 l 520 341 l 745 1024 q 779 1049 753 1049 l 974 1049 q 994 1043 986 1049 q 1001 1027 1001 1037 q 998 1015 1001 1022 l 879 666 l 992 341 l 1230 1024 q 1264 1049 1239 1049 l 1461 1049 q 1481 1044 1474 1049 q 1487 1027 1487 1038 q 1485 1015 1487 1022 l 1101 24 q 1066 0 1092 0 l 912 0 q 878 24 887 0 l 755 352 l 629 24 z "},"X":{"ha":1026,"x_min":28,"x_max":998,"o":"m 308 21 q 272 0 296 0 l 54 0 q 35 5 42 0 q 28 19 28 10 q 34 36 28 25 l 363 536 l 56 1013 q 50 1031 50 1022 q 57 1044 50 1039 q 76 1049 63 1049 l 296 1049 q 332 1028 320 1049 l 513 718 l 691 1028 q 726 1049 701 1049 l 949 1049 q 968 1044 961 1049 q 974 1030 974 1039 q 968 1013 974 1024 l 671 536 l 992 36 q 998 19 998 25 q 991 5 998 10 q 971 0 983 0 l 751 0 q 715 21 727 0 l 512 361 l 308 21 z "},"Y":{"ha":979,"x_min":19,"x_max":959,"o":"m 611 30 q 581 0 611 0 l 398 0 q 368 30 368 0 l 368 408 l 24 1013 q 19 1030 19 1022 q 26 1044 19 1039 q 45 1049 33 1049 l 260 1049 q 295 1027 284 1049 l 491 635 l 682 1027 q 718 1049 694 1049 l 933 1049 q 952 1044 945 1049 q 959 1030 959 1039 q 954 1013 959 1022 l 611 410 l 611 30 z "},"Z":{"ha":950,"x_min":57,"x_max":894,"o":"m 894 30 q 864 0 894 0 l 87 0 q 57 30 57 0 l 57 157 q 69 194 57 177 l 551 830 l 96 830 q 66 860 66 830 l 66 1019 q 96 1049 66 1049 l 843 1049 q 873 1019 873 1049 l 873 904 q 860 866 873 883 l 371 219 l 864 219 q 894 189 894 219 l 894 30 z "},"":{"ha":1639,"x_min":19,"x_max":1582,"o":"m 1552 220 q 1582 190 1582 220 l 1582 30 q 1552 0 1582 0 l 845 0 q 815 30 815 0 l 815 172 l 402 172 l 296 19 q 281 4 289 8 q 261 -1 273 -1 l 46 -1 q 27 4 34 -1 q 19 17 19 9 q 27 36 19 26 l 741 1030 q 777 1049 754 1049 l 1541 1049 q 1571 1019 1571 1049 l 1571 859 q 1541 829 1571 829 l 1057 829 l 1057 634 l 1433 634 q 1463 604 1463 634 l 1463 456 q 1433 426 1463 426 l 1057 426 l 1057 220 l 1552 220 m 815 397 l 815 775 l 554 397 l 815 397 z "},"":{"ha":1756,"x_min":57,"x_max":1700,"o":"m 1670 220 q 1700 190 1700 220 l 1700 30 q 1670 0 1700 0 l 962 0 q 932 30 932 0 l 932 97 q 779 12 864 42 q 601 -19 694 -19 q 326 54 450 -19 q 129 252 201 127 q 57 526 57 377 q 128 800 57 676 q 325 996 200 924 q 601 1069 450 1069 q 779 1038 694 1069 q 932 954 864 1008 l 932 1019 q 962 1049 932 1049 l 1658 1049 q 1688 1019 1688 1049 l 1688 859 q 1658 829 1688 829 l 1174 829 l 1174 634 l 1550 634 q 1580 604 1580 634 l 1580 456 q 1550 426 1580 426 l 1174 426 l 1174 220 l 1670 220 m 601 214 q 750 255 681 214 q 859 367 818 296 q 900 526 900 439 q 859 683 900 612 q 749 795 818 754 q 601 836 680 836 q 453 795 521 836 q 343 683 384 754 q 302 526 302 612 q 343 368 302 439 q 453 255 385 296 q 601 214 522 214 z "},"":{"ha":1108,"x_min":-16,"x_max":1052,"o":"m 113 1019 q 143 1049 113 1049 l 501 1049 q 779 980 653 1049 q 979 792 905 912 q 1052 525 1052 671 q 979 258 1052 379 q 780 69 906 138 q 503 0 654 0 l 143 0 q 113 30 113 0 l 113 434 l 13 434 q -16 464 -16 434 l -16 597 q 13 626 -16 626 l 113 626 l 113 1019 m 511 231 q 662 268 595 231 q 768 373 730 306 q 806 525 806 440 q 768 676 806 609 q 662 781 730 743 q 510 818 594 818 l 355 818 l 355 626 l 494 626 q 523 597 523 626 l 523 464 q 494 434 523 434 l 355 434 l 355 231 l 511 231 z "},"":{"ha":918,"x_min":113,"x_max":862,"o":"m 499 889 q 693 845 611 889 q 818 719 774 800 q 862 526 862 637 q 817 333 862 416 q 691 206 772 251 q 503 162 609 162 l 358 162 l 358 30 q 328 0 358 0 l 143 0 q 113 30 113 0 l 113 1019 q 143 1049 113 1049 l 328 1049 q 358 1019 358 1049 l 358 889 l 499 889 m 471 386 q 584 423 539 386 q 628 526 628 459 q 584 628 628 592 q 472 665 540 665 l 358 665 l 358 386 l 471 386 z "},"":{"ha":1104,"x_min":90,"x_max":1048,"o":"m 709 -22 q 588 -11 647 -22 q 488 19 529 0 q 471 44 471 28 q 474 59 471 52 l 521 194 q 547 213 529 213 q 560 211 553 213 q 680 187 621 187 q 741 205 714 187 q 785 253 769 223 q 801 317 801 283 q 782 387 801 357 q 727 434 762 417 q 647 450 692 450 q 538 447 578 450 q 515 453 523 445 q 507 474 507 460 l 507 568 q 519 606 507 590 l 664 804 q 588 834 625 825 q 506 844 550 844 q 374 789 416 844 q 332 646 332 733 l 332 30 q 302 0 332 0 l 120 0 q 90 30 90 0 l 90 684 q 140 895 90 808 q 283 1026 189 981 q 508 1071 376 1071 q 708 1042 610 1071 q 891 963 805 1014 q 911 928 911 951 l 911 818 q 898 782 911 797 l 756 613 q 779 615 763 615 q 906 576 844 615 q 1008 472 968 538 q 1048 325 1048 405 q 1002 152 1048 231 q 880 25 957 72 q 709 -22 802 -22 z "},"a":{"ha":1079,"x_min":50,"x_max":969,"o":"m 778 877 q 812 901 786 901 l 939 901 q 969 871 969 901 l 969 30 q 939 0 969 0 l 807 0 q 774 25 783 0 l 759 84 q 510 -19 660 -19 q 278 43 384 -19 q 111 214 172 106 q 50 450 50 322 q 112 684 50 577 q 279 854 173 792 q 510 916 385 916 q 760 812 662 916 l 778 877 m 514 200 q 637 232 582 200 q 723 320 691 264 q 754 447 754 376 q 723 575 754 517 q 637 665 691 632 q 515 697 582 697 q 394 665 448 697 q 310 575 341 632 q 279 447 279 517 q 310 319 279 376 q 393 231 340 263 q 514 200 447 200 z "},"b":{"ha":1079,"x_min":110,"x_max":1029,"o":"m 569 916 q 800 854 694 916 q 967 684 906 792 q 1029 450 1029 577 q 968 214 1029 322 q 801 43 907 106 q 569 -19 695 -19 q 428 8 491 -19 q 320 84 366 36 l 305 25 q 272 0 296 0 l 140 0 q 110 30 110 0 l 110 1139 q 140 1169 110 1169 l 310 1169 q 340 1139 340 1169 l 340 831 q 569 916 432 916 m 565 200 q 686 231 632 200 q 769 319 739 263 q 800 447 800 376 q 769 575 800 517 q 685 665 739 632 q 564 697 631 697 q 442 665 497 697 q 356 575 388 632 q 325 447 325 517 q 356 320 325 376 q 442 232 388 264 q 565 200 497 200 z "},"c":{"ha":893,"x_min":50,"x_max":834,"o":"m 515 -22 q 277 41 383 -22 q 110 211 170 104 q 50 446 50 319 q 110 682 50 574 q 277 853 170 790 q 517 916 383 916 q 682 890 605 916 q 821 815 759 863 q 833 792 833 804 q 827 773 833 783 l 744 656 q 722 642 735 642 q 702 650 712 642 q 620 693 662 678 q 525 708 577 708 q 402 674 458 708 q 311 580 345 640 q 278 446 278 520 q 312 314 278 373 q 403 221 346 255 q 526 187 460 187 q 620 202 578 187 q 702 245 662 217 q 721 252 713 252 q 744 238 734 252 l 827 121 q 834 101 834 111 q 825 83 834 91 q 684 5 763 33 q 515 -22 606 -22 z "},"d":{"ha":1079,"x_min":50,"x_max":969,"o":"m 739 1139 q 769 1169 739 1169 l 939 1169 q 969 1139 969 1169 l 969 30 q 939 0 969 0 l 807 0 q 774 25 783 0 l 759 84 q 510 -19 660 -19 q 278 43 384 -19 q 111 214 172 106 q 50 450 50 322 q 112 684 50 577 q 279 854 173 792 q 510 916 385 916 q 739 831 647 916 l 739 1139 m 514 200 q 637 232 582 200 q 723 320 691 264 q 754 447 754 376 q 723 575 754 517 q 637 665 691 632 q 515 697 582 697 q 394 665 448 697 q 310 575 341 632 q 279 447 279 517 q 310 319 279 376 q 393 231 340 263 q 514 200 447 200 z "},"e":{"ha":988,"x_min":50,"x_max":938,"o":"m 514 -22 q 276 41 382 -22 q 110 211 170 104 q 50 446 50 319 q 107 681 50 573 q 265 853 164 789 q 492 916 366 916 q 730 856 629 916 q 884 689 831 795 q 938 447 938 582 q 936 395 938 423 q 904 369 933 369 l 284 369 q 335 269 300 311 q 419 205 370 227 q 524 182 468 182 q 619 198 576 182 q 702 242 662 213 q 721 249 712 249 q 743 236 734 249 l 823 122 q 830 103 830 111 q 818 81 830 90 q 679 5 756 32 q 514 -22 603 -22 m 711 541 q 636 672 691 625 q 500 718 580 718 q 363 671 421 718 q 283 541 304 624 l 711 541 z "},"f":{"ha":509,"x_min":10,"x_max":509,"o":"m 345 30 q 315 0 345 0 l 146 0 q 116 30 116 0 l 116 689 l 40 689 q 10 719 10 689 l 10 871 q 40 901 10 901 l 116 901 l 116 960 q 152 1109 116 1052 q 259 1193 187 1166 q 446 1219 332 1219 l 476 1219 q 506 1190 506 1219 l 506 1060 q 480 1030 506 1030 l 457 1030 q 371 1006 397 1030 q 345 931 345 981 l 345 901 l 479 901 q 509 871 509 901 l 509 719 q 479 689 509 689 l 345 689 l 345 30 z "},"g":{"ha":1061,"x_min":50,"x_max":951,"o":"m 506 -293 q 315 -268 414 -293 q 154 -205 217 -243 q 140 -181 140 -197 q 143 -165 140 -174 l 211 -31 q 235 -16 220 -16 q 252 -20 243 -16 q 369 -63 303 -47 q 490 -80 435 -80 q 614 -54 562 -80 q 695 16 667 -28 q 723 117 723 61 l 723 124 q 489 16 606 16 q 263 75 364 16 q 106 236 163 134 q 50 459 50 338 q 106 698 50 593 q 263 861 163 803 q 490 920 363 920 q 628 892 559 920 q 740 817 697 863 l 756 877 q 768 895 759 888 q 789 901 777 901 l 921 901 q 942 893 934 901 q 951 871 951 885 l 951 143 q 895 -79 951 21 q 739 -236 840 -178 q 506 -293 638 -293 m 507 233 q 625 263 573 233 q 706 346 677 293 q 736 465 736 399 q 706 586 736 532 q 625 672 677 641 q 508 704 573 704 q 389 674 441 704 q 308 588 338 643 q 279 464 279 534 q 308 345 279 398 q 389 262 338 292 q 507 233 441 233 z "},"h":{"ha":1063,"x_min":110,"x_max":974,"o":"m 609 917 q 802 868 719 917 q 929 728 884 818 q 974 518 974 638 l 974 30 q 945 0 974 0 l 775 0 q 745 30 745 0 l 745 493 q 721 605 745 557 q 654 680 697 653 q 554 706 611 706 q 445 678 494 706 q 366 603 395 650 q 337 503 337 556 l 337 30 q 307 0 337 0 l 140 0 q 110 30 110 0 l 110 1137 q 140 1167 110 1167 l 307 1167 q 337 1137 337 1167 l 337 804 q 464 886 389 854 q 609 917 539 917 z "},"i":{"ha":452,"x_min":110,"x_max":342,"o":"m 140 1010 q 110 1039 110 1010 l 110 1195 q 140 1225 110 1225 l 312 1225 q 342 1195 342 1225 l 342 1039 q 312 1010 342 1010 l 140 1010 m 341 30 q 311 0 341 0 l 141 0 q 111 30 111 0 l 111 871 q 141 901 111 901 l 311 901 q 341 871 341 901 l 341 30 z "},"":{"ha":449,"x_min":110,"x_max":339,"o":"m 339 30 q 309 0 339 0 l 140 0 q 110 30 110 0 l 110 871 q 140 901 110 901 l 309 901 q 339 871 339 901 l 339 30 z "},"j":{"ha":447,"x_min":-16,"x_max":337,"o":"m 134 1013 q 105 1043 105 1013 l 105 1198 q 134 1228 105 1228 l 307 1228 q 337 1198 337 1228 l 337 1043 q 307 1013 337 1013 l 134 1013 m 13 -284 q -8 -277 -1 -284 q -16 -255 -16 -269 l -16 -108 q 1 -78 -16 -78 q 82 -48 57 -78 q 107 43 107 -18 l 107 871 q 137 901 107 901 l 304 901 q 334 871 334 901 l 334 43 q 252 -199 334 -114 q 13 -284 170 -284 z "},"":{"ha":444,"x_min":-16,"x_max":334,"o":"m 13 -284 q -8 -277 -1 -284 q -16 -255 -16 -269 l -16 -108 q -10 -85 -16 -93 q 10 -78 -4 -78 q 84 -47 60 -78 q 107 43 107 -17 l 107 871 q 137 901 107 901 l 304 901 q 334 871 334 901 l 334 43 q 252 -199 334 -114 q 13 -284 170 -284 z "},"k":{"ha":986,"x_min":110,"x_max":956,"o":"m 950 36 q 956 18 956 27 q 949 5 956 10 q 930 0 942 0 l 729 0 q 693 19 705 0 l 454 370 l 339 248 l 339 30 q 309 0 339 0 l 140 0 q 110 30 110 0 l 110 1137 q 140 1167 110 1167 l 309 1167 q 339 1137 339 1167 l 339 545 l 633 885 q 670 901 647 901 l 900 901 q 919 897 912 901 q 926 885 926 892 q 915 865 926 877 l 610 538 l 950 36 z "},"l":{"ha":447,"x_min":110,"x_max":337,"o":"m 337 30 q 307 0 337 0 l 140 0 q 110 30 110 0 l 110 1137 q 140 1167 110 1167 l 307 1167 q 337 1137 337 1167 l 337 30 z "},"m":{"ha":1576,"x_min":110,"x_max":1488,"o":"m 1154 923 q 1331 877 1255 923 q 1447 740 1406 830 q 1488 521 1488 650 l 1488 30 q 1458 0 1488 0 l 1290 0 q 1260 30 1260 0 l 1260 512 q 1216 654 1260 602 q 1095 706 1173 706 q 1005 680 1045 706 q 941 612 966 655 q 914 520 917 570 l 914 30 q 884 0 914 0 l 715 0 q 685 30 685 0 l 685 512 q 642 654 685 602 q 520 706 599 706 q 427 678 469 706 q 363 604 386 650 q 339 506 339 558 l 339 30 q 309 0 339 0 l 140 0 q 110 30 110 0 l 110 871 q 140 901 110 901 l 270 901 q 304 877 296 901 l 320 825 q 439 898 372 872 q 579 923 506 923 q 739 886 669 923 q 852 778 809 849 q 984 885 905 848 q 1154 923 1063 923 z "},"n":{"ha":1064,"x_min":110,"x_max":977,"o":"m 612 917 q 804 868 721 917 q 932 728 886 818 q 977 518 977 638 l 977 30 q 947 0 977 0 l 777 0 q 747 30 747 0 l 747 493 q 724 605 747 557 q 660 680 702 653 q 561 706 618 706 q 450 678 501 706 q 369 603 399 650 q 339 503 339 556 l 339 30 q 309 0 339 0 l 140 0 q 110 30 110 0 l 110 871 q 140 901 110 901 l 270 901 q 304 877 296 901 l 330 797 q 460 883 382 849 q 612 917 538 917 z "},"o":{"ha":1051,"x_min":50,"x_max":1001,"o":"m 523 -22 q 286 40 394 -22 q 114 210 177 103 q 50 445 50 317 q 114 682 50 574 q 287 853 178 791 q 525 916 396 916 q 764 853 655 916 q 938 682 874 791 q 1001 445 1001 574 q 937 210 1001 317 q 763 40 873 103 q 523 -22 653 -22 m 526 197 q 649 230 593 197 q 739 320 706 263 q 772 447 772 376 q 739 574 772 517 q 649 665 706 632 q 526 697 593 697 q 402 665 458 697 q 313 574 346 632 q 279 447 279 517 q 313 320 279 376 q 402 230 346 263 q 526 197 458 197 z "},"p":{"ha":1079,"x_min":110,"x_max":1029,"o":"m 569 916 q 800 854 694 916 q 967 684 906 792 q 1029 450 1029 577 q 968 214 1029 322 q 801 43 907 106 q 569 -19 695 -19 q 441 4 499 -19 q 339 68 383 27 l 339 -235 q 309 -265 339 -265 l 140 -265 q 110 -235 110 -265 l 110 871 q 140 901 110 901 l 267 901 q 301 877 293 901 l 319 812 q 569 916 417 916 m 565 200 q 686 231 632 200 q 769 319 739 263 q 800 447 800 376 q 769 575 800 517 q 685 665 739 632 q 564 697 631 697 q 442 665 497 697 q 356 575 388 632 q 325 447 325 517 q 356 320 325 376 q 442 232 388 264 q 565 200 497 200 z "},"q":{"ha":1079,"x_min":50,"x_max":969,"o":"m 778 877 q 812 901 786 901 l 939 901 q 969 871 969 901 l 969 -235 q 939 -265 969 -265 l 770 -265 q 740 -235 740 -265 l 740 68 q 638 4 696 27 q 510 -19 580 -19 q 278 43 384 -19 q 111 214 172 106 q 50 450 50 322 q 112 684 50 577 q 279 854 173 792 q 510 916 385 916 q 760 812 662 916 l 778 877 m 514 200 q 637 232 582 200 q 723 320 691 264 q 754 447 754 376 q 723 575 754 517 q 637 665 691 632 q 515 697 582 697 q 394 665 448 697 q 310 575 341 632 q 279 447 279 517 q 310 319 279 376 q 393 231 340 263 q 514 200 447 200 z "},"r":{"ha":777,"x_min":110,"x_max":760,"o":"m 565 916 q 744 865 654 916 q 760 840 760 855 q 756 824 760 833 l 681 683 q 658 667 672 667 q 641 672 649 667 q 533 703 584 703 q 439 674 484 703 q 367 590 394 645 q 339 457 339 534 l 339 30 q 309 0 339 0 l 140 0 q 110 30 110 0 l 110 871 q 140 901 110 901 l 270 901 q 304 877 296 901 l 333 792 q 432 884 376 852 q 565 916 489 916 z "},"s":{"ha":771,"x_min":43,"x_max":725,"o":"m 411 -22 q 55 114 210 -22 q 43 136 43 124 q 51 156 43 146 l 137 263 q 158 276 147 276 q 178 267 167 276 q 289 206 231 228 q 404 183 346 183 q 478 203 450 183 q 506 257 506 223 q 490 297 506 280 q 440 331 475 314 q 343 367 405 347 q 156 470 228 405 q 83 647 83 535 q 118 780 83 718 q 227 879 154 841 q 405 916 299 916 q 556 887 479 916 q 691 803 632 859 q 702 783 702 794 q 692 762 702 771 l 590 656 q 569 645 579 645 q 548 654 559 645 q 476 695 516 679 q 397 711 437 711 q 327 692 352 711 q 302 644 302 674 q 318 607 302 623 q 367 575 333 591 q 463 541 402 560 q 657 436 588 501 q 725 260 725 372 q 687 122 725 187 q 578 17 650 57 q 411 -22 507 -22 z "},"t":{"ha":532,"x_min":10,"x_max":531,"o":"m 352 30 q 322 0 352 0 l 152 0 q 122 30 122 0 l 122 689 l 40 689 q 10 719 10 689 l 10 871 q 40 901 10 901 l 121 901 l 121 1063 q 148 1095 121 1090 l 320 1128 q 327 1129 323 1129 q 346 1122 339 1129 q 352 1101 352 1114 l 352 901 l 501 901 q 531 871 531 901 l 531 719 q 501 689 531 689 l 352 689 l 352 30 z "},"u":{"ha":1064,"x_min":88,"x_max":954,"o":"m 725 871 q 755 901 725 901 l 924 901 q 954 871 954 901 l 954 30 q 924 0 954 0 l 794 0 q 760 25 768 0 l 734 105 q 605 19 683 52 q 453 -15 526 -15 q 261 34 343 -15 q 133 174 178 84 q 88 383 88 264 l 88 871 q 118 901 88 901 l 287 901 q 317 871 317 901 l 317 408 q 341 296 317 344 q 408 222 364 248 q 509 196 451 196 q 617 224 568 196 q 696 299 667 252 q 725 399 725 346 l 725 871 z "},"v":{"ha":939,"x_min":19,"x_max":921,"o":"m 589 24 q 555 0 580 0 l 385 0 q 350 24 359 0 l 22 867 q 19 880 19 873 q 26 895 19 889 q 46 901 33 901 l 236 901 q 270 877 263 901 l 470 277 l 669 877 q 703 901 677 901 l 894 901 q 913 896 906 901 q 921 880 921 890 q 918 867 921 873 l 589 24 z "},"w":{"ha":1391,"x_min":19,"x_max":1372,"o":"m 1123 877 q 1157 901 1131 901 l 1346 901 q 1365 896 1358 901 q 1372 880 1372 890 q 1370 867 1372 874 l 1062 24 q 1027 0 1053 0 l 859 0 q 825 24 834 0 l 691 373 l 568 24 q 534 0 560 0 l 364 0 q 329 24 338 0 l 21 867 q 19 880 19 874 q 26 896 19 890 q 45 901 33 901 l 225 901 q 258 877 251 901 l 450 277 l 619 877 q 652 901 626 901 l 842 901 q 861 896 853 901 q 868 880 868 890 q 865 867 868 874 l 793 660 l 930 277 l 1123 877 z "},"x":{"ha":940,"x_min":31,"x_max":909,"o":"m 299 20 q 264 0 287 0 l 56 0 q 37 5 44 0 q 31 18 31 10 q 37 37 31 27 l 331 461 l 56 865 q 49 883 49 876 q 56 896 49 892 q 75 901 63 901 l 284 901 q 320 881 308 901 l 470 624 l 620 881 q 634 896 626 892 q 655 901 642 901 l 865 901 q 884 896 877 901 q 891 883 891 892 q 885 865 891 874 l 617 461 l 904 36 q 909 19 909 27 q 903 5 909 10 q 884 0 896 0 l 677 0 q 641 20 653 0 l 469 302 l 299 20 z "},"y":{"ha":939,"x_min":19,"x_max":920,"o":"m 496 -241 q 461 -265 487 -265 l 282 -265 q 263 -260 270 -265 q 256 -245 256 -255 q 259 -231 256 -237 l 353 4 l 21 867 q 19 880 19 874 q 25 896 19 890 q 44 901 32 901 l 234 901 q 269 877 261 901 l 468 293 l 668 877 q 703 901 676 901 l 894 901 q 913 896 906 901 q 920 880 920 890 q 918 867 920 874 l 496 -241 z "},"z":{"ha":855,"x_min":55,"x_max":800,"o":"m 800 30 q 770 0 800 0 l 85 0 q 55 30 55 0 l 55 139 q 68 176 55 159 l 470 693 l 93 693 q 63 723 63 693 l 63 871 q 93 901 63 901 l 753 901 q 783 871 783 901 l 783 771 q 771 733 783 750 l 359 208 l 770 208 q 800 178 800 208 l 800 30 z "},"":{"ha":1733,"x_min":50,"x_max":1682,"o":"m 508 -22 q 277 40 382 -22 q 111 211 172 103 q 50 446 50 318 q 111 682 50 573 q 277 853 172 790 q 507 916 382 916 q 675 881 602 916 q 800 786 749 847 l 824 877 q 858 901 831 901 l 926 901 q 959 877 951 901 l 970 821 q 1093 892 1025 867 q 1237 916 1161 916 q 1475 856 1374 916 q 1629 689 1576 795 q 1682 447 1682 582 q 1680 395 1682 414 q 1649 369 1678 369 l 1030 369 q 1080 269 1045 311 q 1164 205 1116 227 q 1269 182 1213 182 q 1364 198 1321 182 q 1446 242 1407 213 q 1466 249 1456 249 q 1488 236 1478 249 l 1568 122 q 1575 104 1575 113 q 1563 81 1575 91 q 1424 5 1501 32 q 1260 -22 1347 -22 q 1104 4 1177 -22 q 971 79 1030 31 l 960 25 q 926 0 952 0 l 853 0 q 820 25 828 0 l 800 106 q 675 12 748 46 q 508 -22 602 -22 m 1456 541 q 1380 672 1436 625 q 1244 718 1325 718 q 1107 671 1166 718 q 1028 541 1049 623 l 1456 541 m 531 187 q 659 221 601 187 q 750 313 717 254 q 784 446 784 371 q 751 580 784 520 q 660 673 718 639 q 531 706 602 706 q 405 673 463 706 q 312 579 346 639 q 278 446 278 520 q 312 313 278 372 q 404 221 346 254 q 531 187 462 187 z "},"":{"ha":1711,"x_min":50,"x_max":1661,"o":"m 523 -22 q 286 40 394 -22 q 114 210 177 103 q 50 445 50 317 q 114 682 50 574 q 287 853 178 791 q 525 916 396 916 q 723 874 630 916 q 881 756 815 831 q 1027 874 941 831 q 1215 916 1113 916 q 1453 856 1352 916 q 1607 689 1554 795 q 1661 447 1661 582 q 1658 395 1661 423 q 1627 369 1655 369 l 1007 369 q 1058 269 1023 311 q 1142 205 1093 227 q 1247 182 1191 182 q 1342 198 1299 182 q 1425 242 1385 213 q 1444 249 1434 249 q 1466 236 1457 249 l 1546 122 q 1553 104 1553 113 q 1541 81 1553 91 q 1402 5 1478 32 q 1237 -22 1325 -22 q 1038 21 1130 -22 q 883 141 947 65 q 724 21 818 65 q 523 -22 629 -22 m 1434 541 q 1359 672 1414 625 q 1222 718 1303 718 q 1085 671 1144 718 q 1006 541 1027 624 l 1434 541 m 526 197 q 649 230 593 197 q 739 319 706 262 q 771 447 771 376 q 739 575 771 517 q 649 665 706 632 q 526 697 593 697 q 402 665 458 697 q 313 574 346 632 q 279 447 279 517 q 313 320 279 376 q 402 230 346 263 q 526 197 458 197 z "},"":{"ha":1002,"x_min":50,"x_max":952,"o":"m 838 1107 q 844 1089 844 1096 q 827 1066 844 1075 l 733 1014 q 893 731 834 875 q 952 428 952 588 q 893 195 952 297 q 731 35 834 92 q 499 -22 628 -22 q 274 33 377 -22 q 111 184 171 88 q 50 398 50 281 q 103 597 50 504 q 249 746 155 690 q 461 802 343 802 q 598 774 526 802 q 521 901 568 839 l 465 871 q 448 865 455 865 q 424 881 435 865 l 391 934 q 385 951 385 944 q 401 975 385 966 l 446 999 l 435 1013 q 403 1050 408 1045 q 394 1069 394 1060 q 411 1091 394 1081 l 569 1176 q 587 1181 579 1181 q 610 1168 599 1181 q 657 1112 635 1141 l 764 1169 q 781 1175 772 1175 q 805 1160 796 1175 l 838 1107 m 501 189 q 604 216 559 189 q 674 294 649 243 q 699 414 699 345 q 682 568 699 491 q 602 600 644 588 q 506 612 560 612 q 396 584 445 612 q 318 507 346 556 q 290 398 290 458 q 318 283 290 330 q 395 212 346 235 q 501 189 443 189 z "},"":{"ha":1079,"x_min":110,"x_max":1029,"o":"m 569 916 q 800 854 694 916 q 967 684 906 792 q 1029 450 1029 577 q 968 214 1029 322 q 801 43 907 106 q 569 -19 695 -19 q 441 4 499 -19 q 339 68 383 27 l 339 -235 q 309 -265 339 -265 l 140 -265 q 110 -235 110 -265 l 110 1137 q 140 1167 110 1167 l 307 1167 q 337 1137 337 1167 l 337 828 q 569 916 430 916 m 565 200 q 686 231 632 200 q 769 319 739 263 q 800 447 800 376 q 769 575 800 517 q 685 665 739 632 q 564 697 631 697 q 442 665 497 697 q 356 575 388 632 q 325 447 325 517 q 356 320 325 376 q 442 232 388 264 q 565 200 497 200 z "},"":{"ha":980,"x_min":110,"x_max":930,"o":"m 140 0 q 110 30 110 0 l 110 815 q 159 1019 110 937 q 291 1139 208 1101 q 475 1178 373 1178 q 674 1136 589 1178 q 803 1023 759 1094 q 848 868 848 952 q 815 726 848 786 q 720 634 781 667 q 874 531 817 603 q 930 361 930 459 q 881 170 930 252 q 743 44 833 88 q 537 0 654 0 l 479 0 q 450 30 450 0 l 450 189 q 479 219 450 219 l 538 219 q 656 256 612 219 q 701 356 701 293 q 655 458 701 422 q 519 494 609 494 q 489 524 489 494 l 489 674 q 495 697 489 690 q 517 704 500 704 q 566 719 541 704 q 607 762 591 734 q 624 827 624 790 q 583 923 624 886 q 476 960 542 960 q 401 939 432 960 q 355 884 370 918 q 339 809 339 850 l 339 30 q 309 0 339 0 l 140 0 z "},"":{"ha":1044,"x_min":19,"x_max":1024,"o":"m 1022 34 q 1024 22 1024 28 q 1017 6 1024 11 q 998 0 1010 0 l 811 0 q 777 25 786 0 l 722 178 l 321 178 l 267 25 q 233 0 259 0 l 46 0 q 27 6 34 0 q 19 22 19 11 q 22 34 19 28 l 407 1027 q 441 1051 416 1051 l 603 1051 q 638 1027 629 1051 l 1022 34 m 653 382 l 533 719 l 521 762 l 511 719 l 391 382 l 653 382 m 686 1300 q 706 1296 699 1300 q 712 1283 712 1291 q 702 1263 712 1273 l 572 1134 q 535 1118 556 1118 l 419 1118 q 400 1123 407 1118 q 394 1136 394 1128 q 400 1154 394 1145 l 492 1282 q 529 1300 505 1300 l 686 1300 z "},"":{"ha":1044,"x_min":19,"x_max":1024,"o":"m 1022 34 q 1024 22 1024 28 q 1017 6 1024 11 q 998 0 1010 0 l 811 0 q 777 25 786 0 l 722 178 l 321 178 l 267 25 q 233 0 259 0 l 46 0 q 27 6 34 0 q 19 22 19 11 q 22 34 19 28 l 407 1027 q 441 1051 416 1051 l 603 1051 q 638 1027 629 1051 l 1022 34 m 653 382 l 533 719 l 521 762 l 511 719 l 391 382 l 653 382 m 511 1118 q 361 1164 415 1118 q 297 1284 307 1210 q 296 1291 296 1287 q 304 1309 296 1302 q 326 1316 312 1316 l 421 1316 q 442 1309 435 1316 q 453 1287 449 1302 q 511 1241 462 1241 q 570 1287 561 1241 q 602 1316 576 1316 l 697 1316 q 719 1309 712 1316 q 726 1292 727 1303 q 665 1166 719 1213 q 511 1118 610 1118 z "},"":{"ha":1044,"x_min":19,"x_max":1024,"o":"m 1022 34 q 1024 22 1024 28 q 1017 6 1024 11 q 998 0 1010 0 l 811 0 q 777 25 786 0 l 722 178 l 321 178 l 267 25 q 233 0 259 0 l 46 0 q 27 6 34 0 q 19 22 19 11 q 22 34 19 28 l 407 1027 q 441 1051 416 1051 l 603 1051 q 638 1027 629 1051 l 1022 34 m 653 382 l 533 719 l 521 762 l 511 719 l 391 382 l 653 382 m 645 1507 q 664 1503 657 1508 q 671 1490 671 1498 q 663 1471 671 1481 l 578 1359 q 562 1345 570 1349 q 542 1341 554 1341 l 473 1340 q 453 1345 460 1340 q 447 1361 447 1351 q 450 1375 447 1368 l 501 1484 q 536 1506 512 1506 l 645 1507 m 511 1115 q 358 1163 413 1115 q 295 1293 304 1212 q 301 1316 293 1307 q 324 1324 309 1324 l 419 1324 q 450 1295 446 1324 q 469 1256 455 1268 q 511 1244 484 1244 q 554 1256 539 1244 q 573 1295 568 1268 q 603 1324 576 1324 l 697 1324 q 720 1317 712 1324 q 727 1298 728 1310 q 666 1164 720 1213 q 511 1115 612 1115 z "},"":{"ha":1044,"x_min":19,"x_max":1024,"o":"m 1022 34 q 1024 22 1024 28 q 1017 6 1024 11 q 998 0 1010 0 l 811 0 q 777 25 786 0 l 722 178 l 321 178 l 267 25 q 233 0 259 0 l 46 0 q 27 6 34 0 q 19 22 19 11 q 22 34 19 28 l 407 1027 q 441 1051 416 1051 l 603 1051 q 638 1027 629 1051 l 1022 34 m 653 382 l 533 719 l 521 762 l 511 719 l 391 382 l 653 382 m 616 -235 q 586 -265 616 -265 l 441 -265 q 411 -235 411 -265 l 411 -104 q 441 -74 411 -74 l 586 -74 q 616 -104 616 -74 l 616 -235 m 511 1118 q 361 1164 415 1118 q 297 1284 307 1210 q 296 1291 296 1287 q 304 1309 296 1302 q 326 1316 312 1316 l 421 1316 q 442 1309 435 1316 q 453 1287 449 1302 q 511 1241 462 1241 q 570 1287 561 1241 q 602 1316 576 1316 l 697 1316 q 719 1309 712 1316 q 726 1292 727 1303 q 665 1166 719 1213 q 511 1118 610 1118 z "},"":{"ha":1044,"x_min":19,"x_max":1024,"o":"m 1022 34 q 1024 22 1024 28 q 1017 6 1024 11 q 998 0 1010 0 l 811 0 q 777 25 786 0 l 722 178 l 321 178 l 267 25 q 233 0 259 0 l 46 0 q 27 6 34 0 q 19 22 19 11 q 22 34 19 28 l 407 1027 q 441 1051 416 1051 l 603 1051 q 638 1027 629 1051 l 1022 34 m 653 382 l 533 719 l 521 762 l 511 719 l 391 382 l 653 382 m 571 1375 q 575 1360 575 1365 q 568 1346 575 1351 q 549 1340 562 1340 l 480 1341 q 444 1359 457 1341 l 358 1471 q 351 1490 351 1481 q 358 1503 351 1498 q 376 1507 364 1508 l 485 1506 q 520 1484 510 1506 l 571 1375 m 511 1115 q 357 1163 411 1115 q 295 1293 303 1211 q 301 1316 293 1307 q 324 1324 309 1324 l 419 1324 q 450 1295 445 1324 q 468 1256 453 1268 q 511 1244 482 1244 q 553 1256 538 1244 q 571 1295 567 1268 q 603 1324 576 1324 l 697 1324 q 720 1317 712 1324 q 727 1299 728 1310 q 665 1165 719 1214 q 511 1115 611 1115 z "},"":{"ha":1044,"x_min":19,"x_max":1024,"o":"m 1022 34 q 1024 22 1024 28 q 1017 6 1024 11 q 998 0 1010 0 l 811 0 q 777 25 786 0 l 722 178 l 321 178 l 267 25 q 233 0 259 0 l 46 0 q 27 6 34 0 q 19 22 19 11 q 22 34 19 28 l 407 1027 q 441 1051 416 1051 l 603 1051 q 638 1027 629 1051 l 1022 34 m 653 382 l 533 719 l 521 762 l 511 719 l 391 382 l 653 382 m 559 1346 q 543 1333 551 1337 q 523 1328 535 1328 q 487 1344 487 1328 q 491 1357 487 1348 q 498 1388 498 1375 q 481 1408 498 1408 q 470 1407 474 1408 q 455 1405 461 1405 q 442 1408 447 1405 q 435 1421 438 1412 q 433 1435 433 1429 q 451 1461 433 1454 q 513 1476 485 1476 q 573 1462 550 1476 q 596 1424 596 1449 q 587 1389 596 1406 q 559 1346 578 1372 m 511 1116 q 358 1164 413 1116 q 295 1294 304 1213 q 301 1316 293 1308 q 324 1325 309 1325 l 419 1325 q 450 1296 446 1325 q 469 1257 455 1269 q 511 1245 484 1245 q 554 1257 539 1245 q 573 1296 568 1269 q 603 1325 576 1325 l 697 1325 q 720 1318 712 1325 q 727 1299 728 1311 q 666 1165 720 1214 q 511 1116 612 1116 z "},"":{"ha":1044,"x_min":19,"x_max":1024,"o":"m 1022 34 q 1024 22 1024 28 q 1017 6 1024 11 q 998 0 1010 0 l 811 0 q 777 25 786 0 l 722 178 l 321 178 l 267 25 q 233 0 259 0 l 46 0 q 27 6 34 0 q 19 22 19 11 q 22 34 19 28 l 407 1027 q 441 1051 416 1051 l 603 1051 q 638 1027 629 1051 l 1022 34 m 653 382 l 533 719 l 521 762 l 511 719 l 391 382 l 653 382 m 442 1375 q 418 1363 431 1363 q 403 1366 413 1363 q 377 1383 385 1376 q 370 1399 370 1390 q 375 1416 370 1406 q 467 1486 410 1486 q 505 1481 487 1486 q 544 1467 523 1476 q 566 1458 555 1461 q 586 1454 578 1454 q 606 1462 597 1454 q 630 1476 621 1476 q 643 1473 635 1476 q 661 1464 651 1470 q 678 1440 678 1455 q 674 1424 678 1431 q 583 1353 640 1353 q 545 1358 562 1353 q 505 1373 529 1364 q 464 1386 476 1386 q 442 1375 452 1386 m 511 1116 q 358 1165 413 1116 q 295 1295 304 1213 q 301 1317 293 1309 q 324 1325 309 1325 l 419 1325 q 450 1296 446 1325 q 469 1257 455 1269 q 511 1246 484 1246 q 554 1257 539 1246 q 573 1296 568 1269 q 603 1325 576 1325 l 697 1325 q 720 1319 712 1325 q 727 1299 728 1312 q 666 1166 720 1215 q 511 1116 612 1116 z "},"":{"ha":1044,"x_min":19,"x_max":1024,"o":"m 1022 34 q 1024 22 1024 28 q 1017 6 1024 11 q 998 0 1010 0 l 811 0 q 777 25 786 0 l 722 178 l 321 178 l 267 25 q 233 0 259 0 l 46 0 q 27 6 34 0 q 19 22 19 11 q 22 34 19 28 l 407 1027 q 441 1051 416 1051 l 603 1051 q 638 1027 629 1051 l 1022 34 m 653 382 l 533 719 l 521 762 l 511 719 l 391 382 l 653 382 m 316 1246 q 302 1269 302 1254 q 309 1287 302 1278 l 351 1344 q 374 1358 361 1358 q 393 1352 383 1358 l 511 1270 l 630 1352 q 649 1358 639 1358 q 672 1343 663 1358 l 714 1287 q 721 1269 721 1278 q 706 1246 721 1256 l 548 1128 q 512 1116 533 1116 q 476 1128 491 1116 l 316 1246 z "},"":{"ha":1044,"x_min":19,"x_max":1024,"o":"m 1022 34 q 1024 22 1024 28 q 1017 6 1024 11 q 998 0 1010 0 l 811 0 q 777 25 786 0 l 722 178 l 321 178 l 267 25 q 233 0 259 0 l 46 0 q 27 6 34 0 q 19 22 19 11 q 22 34 19 28 l 407 1027 q 441 1051 416 1051 l 603 1051 q 638 1027 629 1051 l 1022 34 m 653 382 l 533 719 l 521 762 l 511 719 l 391 382 l 653 382 m 390 1120 q 371 1113 380 1113 q 348 1127 358 1113 l 306 1184 q 299 1202 299 1193 q 313 1226 299 1216 l 473 1343 q 509 1355 489 1355 q 545 1343 529 1355 l 703 1226 q 718 1202 718 1216 q 711 1184 718 1193 l 669 1127 q 647 1113 660 1113 q 627 1120 637 1113 l 509 1201 l 390 1120 z "},"":{"ha":1044,"x_min":19,"x_max":1024,"o":"m 1022 34 q 1024 22 1024 28 q 1017 6 1024 11 q 998 0 1010 0 l 811 0 q 777 25 786 0 l 722 178 l 321 178 l 267 25 q 233 0 259 0 l 46 0 q 27 6 34 0 q 19 22 19 11 q 22 34 19 28 l 407 1027 q 441 1051 416 1051 l 603 1051 q 638 1027 629 1051 l 1022 34 m 653 382 l 533 719 l 521 762 l 511 719 l 391 382 l 653 382 z "},"":{"ha":1044,"x_min":19,"x_max":1024,"o":"m 1022 34 q 1024 22 1024 28 q 1017 6 1024 11 q 998 0 1010 0 l 811 0 q 777 25 786 0 l 722 178 l 321 178 l 267 25 q 233 0 259 0 l 46 0 q 27 6 34 0 q 19 22 19 11 q 22 34 19 28 l 407 1027 q 441 1051 416 1051 l 603 1051 q 638 1027 629 1051 l 1022 34 m 653 382 l 533 719 l 521 762 l 511 719 l 391 382 l 653 382 m 616 -235 q 586 -265 616 -265 l 441 -265 q 411 -235 411 -265 l 411 -104 q 441 -74 411 -74 l 586 -74 q 616 -104 616 -74 l 616 -235 m 390 1120 q 371 1113 380 1113 q 348 1127 358 1113 l 306 1184 q 299 1202 299 1193 q 313 1226 299 1216 l 473 1343 q 509 1355 489 1355 q 545 1343 529 1355 l 703 1226 q 718 1202 718 1216 q 711 1184 718 1193 l 669 1127 q 647 1113 660 1113 q 627 1120 637 1113 l 509 1201 l 390 1120 z "},"":{"ha":1044,"x_min":19,"x_max":1024,"o":"m 1022 34 q 1024 22 1024 28 q 1017 6 1024 11 q 998 0 1010 0 l 811 0 q 777 25 786 0 l 722 178 l 321 178 l 267 25 q 233 0 259 0 l 46 0 q 27 6 34 0 q 19 22 19 11 q 22 34 19 28 l 407 1027 q 441 1051 416 1051 l 603 1051 q 638 1027 629 1051 l 1022 34 m 653 382 l 533 719 l 521 762 l 511 719 l 391 382 l 653 382 m 725 1241 q 741 1217 741 1232 q 736 1200 741 1208 l 702 1143 q 678 1128 693 1128 q 661 1133 669 1128 l 530 1204 l 399 1133 q 383 1128 391 1128 q 359 1143 368 1128 l 326 1201 q 320 1219 320 1209 q 335 1241 320 1233 l 405 1284 l 333 1281 q 296 1298 311 1281 l 228 1377 q 220 1396 220 1386 q 226 1408 220 1404 q 244 1414 232 1413 l 320 1417 q 342 1412 333 1417 q 356 1396 350 1408 l 412 1294 q 414 1289 414 1291 l 490 1335 q 527 1346 506 1346 q 550 1344 541 1346 q 569 1336 559 1342 l 725 1241 z "},"":{"ha":1044,"x_min":19,"x_max":1024,"o":"m 1022 34 q 1024 22 1024 28 q 1017 6 1024 11 q 998 0 1010 0 l 811 0 q 777 25 786 0 l 722 178 l 321 178 l 267 25 q 233 0 259 0 l 46 0 q 27 6 34 0 q 19 22 19 11 q 22 34 19 28 l 407 1027 q 441 1051 416 1051 l 603 1051 q 638 1027 629 1051 l 1022 34 m 653 382 l 533 719 l 521 762 l 511 719 l 391 382 l 653 382 m 724 1284 q 688 1266 711 1266 q 658 1281 658 1266 q 661 1292 658 1286 q 668 1320 668 1309 q 653 1337 668 1337 q 646 1337 648 1337 l 631 1335 q 618 1338 623 1335 q 612 1350 614 1342 q 610 1361 610 1358 q 629 1387 610 1378 q 682 1399 655 1399 q 735 1386 714 1399 q 756 1352 756 1373 q 747 1320 756 1336 q 724 1284 739 1305 m 381 1115 q 364 1110 370 1110 q 340 1126 349 1110 l 307 1182 q 302 1200 302 1192 q 317 1223 302 1215 l 473 1318 q 491 1326 482 1324 q 514 1328 500 1328 q 552 1317 535 1328 l 706 1223 q 721 1200 721 1215 q 716 1182 721 1192 l 683 1126 q 659 1110 674 1110 q 642 1115 651 1110 l 511 1186 l 381 1115 z "},"":{"ha":1044,"x_min":19,"x_max":1024,"o":"m 1022 34 q 1024 22 1024 28 q 1017 6 1024 11 q 998 0 1010 0 l 811 0 q 777 25 786 0 l 722 178 l 321 178 l 267 25 q 233 0 259 0 l 46 0 q 27 6 34 0 q 19 22 19 11 q 22 34 19 28 l 407 1027 q 441 1051 416 1051 l 603 1051 q 638 1027 629 1051 l 1022 34 m 653 382 l 533 719 l 521 762 l 511 719 l 391 382 l 653 382 m 438 1377 q 417 1365 429 1365 q 401 1369 410 1365 q 379 1385 386 1378 q 373 1400 373 1392 q 377 1415 373 1406 q 461 1478 409 1478 q 496 1473 480 1478 q 532 1460 512 1468 q 572 1448 559 1448 q 588 1455 582 1448 q 614 1468 603 1468 q 638 1459 622 1468 q 657 1434 657 1450 q 653 1419 657 1427 q 569 1355 621 1355 q 534 1360 550 1355 q 498 1374 517 1365 q 482 1380 496 1375 q 458 1386 468 1386 q 438 1377 447 1386 m 382 1114 q 366 1110 373 1110 q 341 1125 350 1110 l 308 1181 q 303 1199 303 1191 q 318 1223 303 1213 l 474 1317 q 493 1325 484 1323 q 516 1328 502 1328 q 553 1317 537 1328 l 708 1223 q 723 1199 723 1213 q 718 1181 723 1191 l 685 1125 q 660 1110 674 1110 q 644 1114 653 1110 l 513 1185 l 382 1114 z "},"":{"ha":1044,"x_min":19,"x_max":1024,"o":"m 1022 34 q 1024 22 1024 28 q 1017 6 1024 11 q 998 0 1010 0 l 811 0 q 777 25 786 0 l 722 178 l 321 178 l 267 25 q 233 0 259 0 l 46 0 q 27 6 34 0 q 19 22 19 11 q 22 34 19 28 l 407 1027 q 441 1051 416 1051 l 603 1051 q 638 1027 629 1051 l 1022 34 m 653 382 l 533 719 l 521 762 l 511 719 l 391 382 l 653 382 m 467 1159 q 475 1139 475 1149 q 468 1126 475 1131 q 449 1121 461 1121 l 349 1121 q 311 1137 327 1121 l 197 1251 q 187 1271 187 1261 q 194 1283 187 1278 q 214 1288 201 1288 l 351 1288 q 371 1284 363 1288 q 388 1269 380 1279 l 467 1159 m 747 1158 q 754 1139 754 1148 q 747 1126 754 1131 q 727 1121 741 1121 l 628 1121 q 590 1136 606 1121 l 476 1250 q 465 1269 465 1260 q 472 1282 465 1278 q 492 1287 479 1287 l 629 1287 q 667 1269 653 1287 l 747 1158 z "},"":{"ha":1044,"x_min":19,"x_max":1024,"o":"m 1022 34 q 1024 22 1024 28 q 1017 6 1024 11 q 998 0 1010 0 l 811 0 q 777 25 786 0 l 722 178 l 321 178 l 267 25 q 233 0 259 0 l 46 0 q 27 6 34 0 q 19 22 19 11 q 22 34 19 28 l 407 1027 q 441 1051 416 1051 l 603 1051 q 638 1027 629 1051 l 1022 34 m 653 382 l 533 719 l 521 762 l 511 719 l 391 382 l 653 382 m 438 1153 q 408 1123 438 1123 l 275 1123 q 245 1153 245 1123 l 245 1295 q 275 1325 245 1325 l 408 1325 q 438 1295 438 1325 l 438 1153 m 780 1153 q 750 1123 780 1123 l 618 1123 q 588 1153 588 1123 l 588 1295 q 618 1325 588 1325 l 750 1325 q 780 1295 780 1325 l 780 1153 z "},"":{"ha":1044,"x_min":19,"x_max":1024,"o":"m 1022 34 q 1024 22 1024 28 q 1017 6 1024 11 q 998 0 1010 0 l 811 0 q 777 25 786 0 l 722 178 l 321 178 l 267 25 q 233 0 259 0 l 46 0 q 27 6 34 0 q 19 22 19 11 q 22 34 19 28 l 407 1027 q 441 1051 416 1051 l 603 1051 q 638 1027 629 1051 l 1022 34 m 653 382 l 533 719 l 521 762 l 511 719 l 391 382 l 653 382 m 438 1153 q 408 1123 438 1123 l 275 1123 q 245 1153 245 1123 l 245 1295 q 275 1325 245 1325 l 408 1325 q 438 1295 438 1325 l 438 1153 m 780 1153 q 750 1123 780 1123 l 618 1123 q 588 1153 588 1123 l 588 1295 q 618 1325 588 1325 l 750 1325 q 780 1295 780 1325 l 780 1153 m 718 1419 q 688 1389 718 1389 l 338 1389 q 308 1419 308 1389 l 308 1498 q 338 1528 308 1528 l 688 1528 q 718 1498 718 1528 l 718 1419 z "},"":{"ha":1044,"x_min":19,"x_max":1024,"o":"m 1022 34 q 1024 22 1024 28 q 1017 6 1024 11 q 998 0 1010 0 l 811 0 q 777 25 786 0 l 722 178 l 321 178 l 267 25 q 233 0 259 0 l 46 0 q 27 6 34 0 q 19 22 19 11 q 22 34 19 28 l 407 1027 q 441 1051 416 1051 l 603 1051 q 638 1027 629 1051 l 1022 34 m 653 382 l 533 719 l 521 762 l 511 719 l 391 382 l 653 382 m 615 1152 q 585 1122 615 1122 l 441 1122 q 411 1152 411 1122 l 411 1283 q 441 1313 411 1313 l 585 1313 q 615 1283 615 1313 l 615 1152 z "},"":{"ha":1044,"x_min":19,"x_max":1024,"o":"m 1022 34 q 1024 22 1024 28 q 1017 6 1024 11 q 998 0 1010 0 l 811 0 q 777 25 786 0 l 722 178 l 321 178 l 267 25 q 233 0 259 0 l 46 0 q 27 6 34 0 q 19 22 19 11 q 22 34 19 28 l 407 1027 q 441 1051 416 1051 l 603 1051 q 638 1027 629 1051 l 1022 34 m 653 382 l 533 719 l 521 762 l 511 719 l 391 382 l 653 382 m 616 -235 q 586 -265 616 -265 l 441 -265 q 411 -235 411 -265 l 411 -104 q 441 -74 411 -74 l 586 -74 q 616 -104 616 -74 l 616 -235 z "},"":{"ha":1044,"x_min":19,"x_max":1024,"o":"m 1022 34 q 1024 22 1024 28 q 1017 6 1024 11 q 998 0 1010 0 l 811 0 q 777 25 786 0 l 722 178 l 321 178 l 267 25 q 233 0 259 0 l 46 0 q 27 6 34 0 q 19 22 19 11 q 22 34 19 28 l 407 1027 q 441 1051 416 1051 l 603 1051 q 638 1027 629 1051 l 1022 34 m 653 382 l 533 719 l 521 762 l 511 719 l 391 382 l 653 382 m 615 1152 q 585 1122 615 1122 l 441 1122 q 411 1152 411 1122 l 411 1283 q 441 1313 411 1313 l 585 1313 q 615 1283 615 1313 l 615 1152 m 724 1386 q 694 1356 724 1356 l 344 1356 q 314 1386 314 1356 l 314 1465 q 344 1495 314 1495 l 694 1495 q 724 1465 724 1495 l 724 1386 z "},"":{"ha":1044,"x_min":19,"x_max":1024,"o":"m 1022 34 q 1024 22 1024 28 q 1017 6 1024 11 q 998 0 1010 0 l 811 0 q 777 25 786 0 l 722 178 l 321 178 l 267 25 q 233 0 259 0 l 46 0 q 27 6 34 0 q 19 22 19 11 q 22 34 19 28 l 407 1027 q 441 1051 416 1051 l 603 1051 q 638 1027 629 1051 l 1022 34 m 653 382 l 533 719 l 521 762 l 511 719 l 391 382 l 653 382 m 600 1154 q 608 1136 608 1145 q 601 1123 608 1128 q 582 1118 594 1118 l 465 1118 q 429 1134 444 1118 l 299 1263 q 288 1284 288 1274 q 295 1296 288 1291 q 314 1300 302 1300 l 472 1300 q 508 1282 495 1300 l 600 1154 z "},"":{"ha":1044,"x_min":19,"x_max":1024,"o":"m 1022 34 q 1024 22 1024 28 q 1017 6 1024 11 q 998 0 1010 0 l 811 0 q 777 25 786 0 l 722 178 l 321 178 l 267 25 q 233 0 259 0 l 46 0 q 27 6 34 0 q 19 22 19 11 q 22 34 19 28 l 407 1027 q 441 1051 416 1051 l 603 1051 q 638 1027 629 1051 l 1022 34 m 653 382 l 533 719 l 521 762 l 511 719 l 391 382 l 653 382 m 566 1145 q 548 1129 557 1132 q 511 1126 538 1126 q 477 1145 477 1126 q 481 1161 477 1151 q 491 1200 491 1183 q 470 1223 491 1223 q 450 1221 461 1223 q 435 1219 442 1219 q 411 1245 417 1219 q 408 1263 408 1256 q 412 1277 408 1272 q 426 1288 416 1283 q 509 1310 467 1310 q 585 1293 556 1310 q 614 1244 614 1275 q 602 1199 614 1221 q 566 1145 591 1178 z "},"":{"ha":1044,"x_min":19,"x_max":1024,"o":"m 1022 34 q 1024 22 1024 28 q 1017 6 1024 11 q 998 0 1010 0 l 811 0 q 777 25 786 0 l 722 178 l 321 178 l 267 25 q 233 0 259 0 l 46 0 q 27 6 34 0 q 19 22 19 11 q 22 34 19 28 l 407 1027 q 441 1051 416 1051 l 603 1051 q 638 1027 629 1051 l 1022 34 m 653 382 l 533 719 l 521 762 l 511 719 l 391 382 l 653 382 m 513 1318 q 663 1272 610 1318 q 727 1151 717 1226 q 727 1144 727 1148 q 719 1126 727 1133 q 698 1120 711 1120 l 603 1120 q 582 1127 590 1120 q 572 1148 575 1134 q 513 1194 562 1194 q 454 1148 464 1194 q 443 1127 450 1134 q 423 1120 436 1120 l 327 1120 q 304 1126 312 1120 q 298 1143 296 1132 q 360 1269 305 1221 q 513 1318 414 1318 z "},"":{"ha":1044,"x_min":19,"x_max":1024,"o":"m 1022 34 q 1024 22 1024 28 q 1017 6 1024 11 q 998 0 1010 0 l 811 0 q 777 25 786 0 l 722 178 l 321 178 l 267 25 q 233 0 259 0 l 46 0 q 27 6 34 0 q 19 22 19 11 q 22 34 19 28 l 407 1027 q 441 1051 416 1051 l 603 1051 q 638 1027 629 1051 l 1022 34 m 653 382 l 533 719 l 521 762 l 511 719 l 391 382 l 653 382 m 724 1153 q 694 1123 724 1123 l 344 1123 q 314 1153 314 1123 l 314 1232 q 344 1262 314 1262 l 694 1262 q 724 1232 724 1262 l 724 1153 z "},"":{"ha":1044,"x_min":19,"x_max":1052,"o":"m 1022 34 q 1024 22 1024 28 q 1017 6 1024 11 q 998 0 1010 0 l 811 0 q 777 25 786 0 l 722 178 l 321 178 l 267 25 q 233 0 259 0 l 46 0 q 27 6 34 0 q 19 22 19 11 q 22 34 19 28 l 407 1027 q 441 1051 416 1051 l 603 1051 q 638 1027 629 1051 l 1022 34 m 653 382 l 533 719 l 521 762 l 511 719 l 391 382 l 653 382 m 854 -16 q 891 0 868 0 l 957 0 l 998 0 q 953 -68 965 -43 q 941 -111 941 -92 q 955 -150 941 -134 q 995 -167 970 -167 q 1009 -166 1004 -167 q 1043 -191 1040 -162 l 1048 -232 q 1027 -269 1052 -260 q 928 -282 989 -282 q 821 -250 855 -282 q 788 -170 788 -218 q 854 -16 788 -91 z "},"":{"ha":1044,"x_min":19,"x_max":1024,"o":"m 1022 34 q 1024 22 1024 28 q 1017 6 1024 11 q 998 0 1010 0 l 811 0 q 777 25 786 0 l 722 178 l 321 178 l 267 25 q 233 0 259 0 l 46 0 q 27 6 34 0 q 19 22 19 11 q 22 34 19 28 l 407 1027 q 441 1051 416 1051 l 603 1051 q 638 1027 629 1051 l 1022 34 m 653 382 l 533 719 l 521 762 l 511 719 l 391 382 l 653 382 m 514 1122 q 419 1154 455 1122 q 382 1241 382 1186 q 419 1330 382 1297 q 514 1364 455 1364 q 610 1330 573 1364 q 647 1241 647 1297 q 610 1154 647 1187 q 514 1122 573 1122 m 514 1196 q 550 1209 536 1196 q 563 1242 563 1221 q 550 1276 563 1263 q 514 1289 536 1289 q 479 1276 493 1289 q 466 1242 466 1263 q 479 1209 466 1221 q 514 1196 493 1196 z "},"":{"ha":1044,"x_min":19,"x_max":1024,"o":"m 1022 34 q 1024 22 1024 28 q 1017 6 1024 11 q 998 0 1010 0 l 811 0 q 777 25 786 0 l 722 178 l 321 178 l 267 25 q 233 0 259 0 l 46 0 q 27 6 34 0 q 19 22 19 11 q 22 34 19 28 l 407 1027 q 441 1051 416 1051 l 603 1051 q 638 1027 629 1051 l 1022 34 m 653 382 l 533 719 l 521 762 l 511 719 l 391 382 l 653 382 m 514 1122 q 419 1154 455 1122 q 382 1241 382 1186 q 419 1330 382 1297 q 514 1364 455 1364 q 610 1330 573 1364 q 647 1241 647 1297 q 610 1154 647 1187 q 514 1122 573 1122 m 514 1196 q 550 1209 536 1196 q 563 1242 563 1221 q 550 1276 563 1263 q 514 1289 536 1289 q 479 1276 493 1289 q 466 1242 466 1263 q 479 1209 466 1221 q 514 1196 493 1196 m 678 1580 q 697 1576 691 1580 q 704 1563 704 1571 q 694 1543 704 1553 l 564 1414 q 526 1398 548 1398 l 411 1398 q 392 1403 399 1398 q 385 1416 385 1408 q 392 1434 385 1425 l 484 1562 q 520 1580 497 1580 l 678 1580 z "},"":{"ha":1044,"x_min":19,"x_max":1024,"o":"m 1022 34 q 1024 22 1024 28 q 1017 6 1024 11 q 998 0 1010 0 l 811 0 q 777 25 786 0 l 722 178 l 321 178 l 267 25 q 233 0 259 0 l 46 0 q 27 6 34 0 q 19 22 19 11 q 22 34 19 28 l 407 1027 q 441 1051 416 1051 l 603 1051 q 638 1027 629 1051 l 1022 34 m 653 382 l 533 719 l 521 762 l 511 719 l 391 382 l 653 382 m 517 -304 q 414 -269 453 -304 q 375 -174 375 -234 q 414 -79 375 -114 q 517 -43 453 -43 q 621 -79 581 -43 q 660 -174 660 -114 q 621 -268 660 -233 q 517 -304 581 -304 m 517 -223 q 555 -209 541 -223 q 570 -173 570 -196 q 555 -137 570 -151 q 517 -123 541 -123 q 480 -137 494 -123 q 465 -173 465 -151 q 480 -209 465 -196 q 517 -223 494 -223 z "},"":{"ha":1044,"x_min":19,"x_max":1024,"o":"m 1022 34 q 1024 22 1024 28 q 1017 6 1024 11 q 998 0 1010 0 l 811 0 q 777 25 786 0 l 722 178 l 321 178 l 267 25 q 233 0 259 0 l 46 0 q 27 6 34 0 q 19 22 19 11 q 22 34 19 28 l 407 1027 q 441 1051 416 1051 l 603 1051 q 638 1027 629 1051 l 1022 34 m 653 382 l 533 719 l 521 762 l 511 719 l 391 382 l 653 382 m 378 1139 q 353 1124 367 1124 q 338 1128 345 1124 l 294 1151 q 276 1175 276 1160 q 280 1191 276 1182 q 419 1305 331 1305 q 472 1298 448 1305 q 530 1277 497 1291 q 566 1263 553 1267 q 591 1258 579 1258 q 627 1278 611 1258 q 652 1294 639 1294 q 668 1290 659 1294 l 710 1267 q 728 1243 728 1258 q 724 1226 728 1236 q 587 1113 674 1113 q 534 1120 558 1113 q 476 1141 509 1127 q 439 1155 452 1151 q 414 1160 426 1160 q 378 1139 395 1160 z "},"":{"ha":1639,"x_min":19,"x_max":1582,"o":"m 1552 220 q 1582 190 1582 220 l 1582 30 q 1552 0 1582 0 l 845 0 q 815 30 815 0 l 815 172 l 402 172 l 296 19 q 281 4 289 8 q 261 -1 273 -1 l 46 -1 q 27 4 34 -1 q 19 17 19 9 q 27 36 19 26 l 741 1030 q 777 1049 754 1049 l 1541 1049 q 1571 1019 1571 1049 l 1571 859 q 1541 829 1571 829 l 1057 829 l 1057 634 l 1433 634 q 1463 604 1463 634 l 1463 456 q 1433 426 1463 426 l 1057 426 l 1057 220 l 1552 220 m 815 397 l 815 775 l 554 397 l 815 397 m 1345 1300 q 1364 1296 1358 1300 q 1371 1283 1371 1291 q 1361 1263 1371 1273 l 1231 1134 q 1193 1118 1215 1118 l 1078 1118 q 1059 1123 1066 1118 q 1052 1136 1052 1128 q 1059 1154 1052 1145 l 1151 1282 q 1187 1300 1163 1300 l 1345 1300 z "},"":{"ha":1639,"x_min":19,"x_max":1582,"o":"m 1552 220 q 1582 190 1582 220 l 1582 30 q 1552 0 1582 0 l 845 0 q 815 30 815 0 l 815 172 l 402 172 l 296 19 q 281 4 289 8 q 261 -1 273 -1 l 46 -1 q 27 4 34 -1 q 19 17 19 9 q 27 36 19 26 l 741 1030 q 777 1049 754 1049 l 1541 1049 q 1571 1019 1571 1049 l 1571 859 q 1541 829 1571 829 l 1057 829 l 1057 634 l 1433 634 q 1463 604 1463 634 l 1463 456 q 1433 426 1463 426 l 1057 426 l 1057 220 l 1552 220 m 815 397 l 815 775 l 554 397 l 815 397 m 1382 1153 q 1352 1123 1382 1123 l 1003 1123 q 973 1153 973 1123 l 973 1232 q 1003 1262 973 1262 l 1352 1262 q 1382 1232 1382 1262 l 1382 1153 z "},"":{"ha":987,"x_min":113,"x_max":932,"o":"m 143 0 q 113 30 113 0 l 113 1019 q 143 1049 113 1049 l 541 1049 q 721 1014 643 1049 q 840 914 798 979 q 883 765 883 850 q 867 680 883 721 q 823 606 851 638 q 761 561 795 575 q 849 507 810 545 q 910 416 888 469 q 932 305 932 363 q 888 144 932 214 q 766 38 845 75 q 584 0 687 0 l 143 0 m 520 633 q 582 647 555 633 q 625 686 609 662 q 640 740 640 711 q 609 813 640 785 q 526 841 577 841 l 354 841 l 354 633 l 520 633 m 563 202 q 653 238 619 202 q 688 331 688 273 q 671 392 688 364 q 624 438 654 420 q 553 455 593 455 l 354 455 l 354 202 l 563 202 m 517 1152 q 487 1122 517 1122 l 342 1122 q 312 1152 312 1122 l 312 1283 q 342 1313 312 1313 l 487 1313 q 517 1283 517 1313 l 517 1152 z "},"":{"ha":987,"x_min":113,"x_max":932,"o":"m 143 0 q 113 30 113 0 l 113 1019 q 143 1049 113 1049 l 541 1049 q 721 1014 643 1049 q 840 914 798 979 q 883 765 883 850 q 867 680 883 721 q 823 606 851 638 q 761 561 795 575 q 849 507 810 545 q 910 416 888 469 q 932 305 932 363 q 888 144 932 214 q 766 38 845 75 q 584 0 687 0 l 143 0 m 520 633 q 582 647 555 633 q 625 686 609 662 q 640 740 640 711 q 609 813 640 785 q 526 841 577 841 l 354 841 l 354 633 l 520 633 m 563 202 q 653 238 619 202 q 688 331 688 273 q 671 392 688 364 q 624 438 654 420 q 553 455 593 455 l 354 455 l 354 202 l 563 202 m 560 -235 q 530 -265 560 -265 l 385 -265 q 355 -235 355 -265 l 355 -104 q 385 -74 355 -74 l 530 -74 q 560 -104 560 -74 l 560 -235 z "},"":{"ha":987,"x_min":113,"x_max":932,"o":"m 143 0 q 113 30 113 0 l 113 1019 q 143 1049 113 1049 l 541 1049 q 721 1014 643 1049 q 840 914 798 979 q 883 765 883 850 q 867 680 883 721 q 823 606 851 638 q 761 561 795 575 q 849 507 810 545 q 910 416 888 469 q 932 305 932 363 q 888 144 932 214 q 766 38 845 75 q 584 0 687 0 l 143 0 m 520 633 q 582 647 555 633 q 625 686 609 662 q 640 740 640 711 q 609 813 640 785 q 526 841 577 841 l 354 841 l 354 633 l 520 633 m 563 202 q 653 238 619 202 q 688 331 688 273 q 671 392 688 364 q 624 438 654 420 q 553 455 593 455 l 354 455 l 354 202 l 563 202 m 671 -197 q 641 -227 671 -227 l 291 -227 q 261 -197 261 -227 l 261 -118 q 291 -88 261 -88 l 641 -88 q 671 -118 671 -88 l 671 -197 z "},"":{"ha":991,"x_min":57,"x_max":945,"o":"m 601 -19 q 326 54 450 -19 q 129 252 201 127 q 57 526 57 377 q 128 800 57 676 q 325 996 200 924 q 601 1069 450 1069 q 779 1040 694 1069 q 932 960 864 1012 q 945 937 945 950 q 937 918 945 927 l 832 780 q 809 768 821 768 q 790 774 800 768 q 700 820 748 803 q 601 836 651 836 q 453 795 521 836 q 343 683 384 754 q 302 526 302 612 q 343 368 302 439 q 453 255 385 296 q 601 214 522 214 q 700 228 656 214 q 792 278 744 243 q 811 284 802 284 q 834 272 824 284 l 937 134 q 945 113 945 122 q 934 93 945 102 q 780 10 865 40 q 601 -19 694 -19 m 779 1311 q 798 1307 792 1311 q 805 1294 805 1302 q 795 1275 805 1284 l 665 1145 q 627 1129 649 1129 l 511 1129 q 493 1134 500 1129 q 486 1147 486 1139 q 493 1166 486 1156 l 585 1293 q 621 1311 597 1311 l 779 1311 z "},"":{"ha":991,"x_min":57,"x_max":945,"o":"m 601 -19 q 326 54 450 -19 q 129 252 201 127 q 57 526 57 377 q 128 800 57 676 q 325 996 200 924 q 601 1069 450 1069 q 779 1040 694 1069 q 932 960 864 1012 q 945 937 945 950 q 937 918 945 927 l 832 780 q 809 768 821 768 q 790 774 800 768 q 700 820 748 803 q 601 836 651 836 q 453 795 521 836 q 343 683 384 754 q 302 526 302 612 q 343 368 302 439 q 453 255 385 296 q 601 214 522 214 q 700 228 656 214 q 792 278 744 243 q 811 284 802 284 q 834 272 824 284 l 937 134 q 945 113 945 122 q 934 93 945 102 q 780 10 865 40 q 601 -19 694 -19 m 408 1257 q 395 1280 395 1266 q 402 1298 395 1289 l 444 1355 q 467 1369 454 1369 q 485 1363 476 1369 l 604 1281 l 723 1363 q 741 1369 732 1369 q 765 1355 756 1369 l 806 1298 q 813 1280 813 1289 q 799 1257 813 1267 l 641 1139 q 605 1128 626 1128 q 568 1139 583 1128 l 408 1257 z "},"":{"ha":991,"x_min":57,"x_max":945,"o":"m 937 134 q 945 113 945 122 q 934 93 945 102 q 805 20 875 49 q 657 -16 735 -8 q 697 -98 680 -57 q 713 -169 713 -139 q 697 -233 713 -205 q 638 -282 682 -261 q 517 -310 595 -302 q 481 -283 485 -313 l 473 -231 q 473 -224 473 -229 q 501 -196 473 -202 q 548 -176 538 -189 q 559 -140 559 -163 q 544 -84 559 -123 q 510 -11 529 -46 q 277 86 380 10 q 115 277 174 162 q 57 526 57 393 q 128 800 57 676 q 325 996 200 924 q 601 1069 450 1069 q 779 1040 694 1069 q 932 960 864 1012 q 945 937 945 950 q 937 918 945 927 l 832 780 q 809 768 821 768 q 790 774 800 768 q 700 820 748 803 q 601 836 651 836 q 453 795 521 836 q 343 683 384 754 q 302 526 302 612 q 343 368 302 439 q 453 255 385 296 q 601 214 522 214 q 700 228 656 214 q 792 278 744 243 q 811 284 802 284 q 834 272 824 284 l 937 134 z "},"":{"ha":991,"x_min":57,"x_max":945,"o":"m 511 1129 q 493 1134 500 1129 q 486 1147 486 1139 q 493 1166 486 1156 l 585 1293 q 621 1311 597 1311 l 779 1311 q 798 1307 792 1311 q 805 1294 805 1302 q 795 1275 805 1284 l 665 1145 q 627 1129 649 1129 l 511 1129 m 937 134 q 945 113 945 122 q 934 93 945 102 q 805 20 875 49 q 657 -16 735 -8 q 697 -98 680 -57 q 713 -169 713 -139 q 697 -233 713 -205 q 638 -282 682 -261 q 517 -310 595 -302 q 481 -283 485 -313 l 473 -231 q 473 -224 473 -229 q 501 -196 473 -202 q 548 -176 538 -189 q 559 -140 559 -163 q 544 -84 559 -123 q 510 -11 529 -46 q 277 86 380 10 q 115 277 174 162 q 57 526 57 393 q 128 800 57 676 q 325 996 200 924 q 601 1069 450 1069 q 779 1040 694 1069 q 932 960 864 1012 q 945 937 945 950 q 937 918 945 927 l 832 780 q 809 768 821 768 q 790 774 800 768 q 700 820 748 803 q 601 836 651 836 q 453 795 521 836 q 343 683 384 754 q 302 526 302 612 q 343 368 302 439 q 453 255 385 296 q 601 214 522 214 q 700 228 656 214 q 792 278 744 243 q 811 284 802 284 q 834 272 824 284 l 937 134 z "},"":{"ha":991,"x_min":57,"x_max":945,"o":"m 601 -19 q 326 54 450 -19 q 129 252 201 127 q 57 526 57 377 q 128 800 57 676 q 325 996 200 924 q 601 1069 450 1069 q 779 1040 694 1069 q 932 960 864 1012 q 945 937 945 950 q 937 918 945 927 l 832 780 q 809 768 821 768 q 790 774 800 768 q 700 820 748 803 q 601 836 651 836 q 453 795 521 836 q 343 683 384 754 q 302 526 302 612 q 343 368 302 439 q 453 255 385 296 q 601 214 522 214 q 700 228 656 214 q 792 278 744 243 q 811 284 802 284 q 834 272 824 284 l 937 134 q 945 113 945 122 q 934 93 945 102 q 780 10 865 40 q 601 -19 694 -19 m 482 1131 q 464 1125 473 1125 q 441 1138 450 1125 l 399 1195 q 392 1213 392 1204 q 405 1237 392 1228 l 565 1355 q 602 1366 582 1366 q 638 1355 621 1366 l 796 1237 q 810 1213 810 1227 q 803 1195 810 1204 l 762 1138 q 739 1125 753 1125 q 720 1131 730 1125 l 601 1213 l 482 1131 z "},"":{"ha":991,"x_min":57,"x_max":945,"o":"m 601 -19 q 326 54 450 -19 q 129 252 201 127 q 57 526 57 377 q 128 800 57 676 q 325 996 200 924 q 601 1069 450 1069 q 779 1040 694 1069 q 932 960 864 1012 q 945 937 945 950 q 937 918 945 927 l 832 780 q 809 768 821 768 q 790 774 800 768 q 700 820 748 803 q 601 836 651 836 q 453 795 521 836 q 343 683 384 754 q 302 526 302 612 q 343 368 302 439 q 453 255 385 296 q 601 214 522 214 q 700 228 656 214 q 792 278 744 243 q 811 284 802 284 q 834 272 824 284 l 937 134 q 945 113 945 122 q 934 93 945 102 q 780 10 865 40 q 601 -19 694 -19 m 708 1163 q 678 1134 708 1134 l 533 1134 q 503 1163 503 1134 l 503 1294 q 533 1324 503 1324 l 678 1324 q 708 1294 708 1324 l 708 1163 z "},"":{"ha":2024,"x_min":113,"x_max":1968,"o":"m 143 0 q 113 30 113 0 l 113 1019 q 143 1049 113 1049 l 501 1049 q 779 980 653 1049 q 979 792 905 912 q 1052 525 1052 671 q 979 258 1052 379 q 780 69 906 138 q 503 0 654 0 l 143 0 m 511 232 q 662 270 595 232 q 768 373 730 307 q 806 525 806 440 q 768 675 806 609 q 662 780 730 742 q 510 817 594 817 l 355 817 l 355 232 l 511 232 m 1968 30 q 1938 0 1968 0 l 1160 0 q 1131 30 1131 0 l 1131 157 q 1143 194 1131 177 l 1625 830 l 1169 830 q 1139 860 1139 830 l 1139 1019 q 1169 1049 1139 1049 l 1917 1049 q 1947 1019 1947 1049 l 1947 904 q 1934 866 1947 883 l 1445 219 l 1938 219 q 1968 189 1968 219 l 1968 30 z "},"":{"ha":2024,"x_min":113,"x_max":1968,"o":"m 143 0 q 113 30 113 0 l 113 1019 q 143 1049 113 1049 l 501 1049 q 779 980 653 1049 q 979 792 905 912 q 1052 525 1052 671 q 979 258 1052 379 q 780 69 906 138 q 503 0 654 0 l 143 0 m 511 232 q 662 270 595 232 q 768 373 730 307 q 806 525 806 440 q 768 675 806 609 q 662 780 730 742 q 510 817 594 817 l 355 817 l 355 232 l 511 232 z "},"":{"ha":1108,"x_min":-16,"x_max":1052,"o":"m 113 1019 q 143 1049 113 1049 l 501 1049 q 779 980 653 1049 q 979 792 905 912 q 1052 525 1052 671 q 979 258 1052 379 q 780 69 906 138 q 503 0 654 0 l 143 0 q 113 30 113 0 l 113 434 l 13 434 q -16 464 -16 434 l -16 597 q 13 626 -16 626 l 113 626 l 113 1019 m 511 231 q 662 268 595 231 q 768 373 730 306 q 806 525 806 440 q 768 676 806 609 q 662 781 730 743 q 510 818 594 818 l 355 818 l 355 626 l 494 626 q 523 597 523 626 l 523 464 q 494 434 523 434 l 355 434 l 355 231 l 511 231 z "},"":{"ha":1108,"x_min":-16,"x_max":1052,"o":"m 113 1019 q 143 1049 113 1049 l 501 1049 q 779 980 653 1049 q 979 792 905 912 q 1052 525 1052 671 q 979 258 1052 379 q 780 69 906 138 q 503 0 654 0 l 143 0 q 113 30 113 0 l 113 434 l 13 434 q -16 464 -16 434 l -16 597 q 13 626 -16 626 l 113 626 l 113 1019 m 511 231 q 662 268 595 231 q 768 373 730 306 q 806 525 806 440 q 768 676 806 609 q 662 781 730 743 q 510 818 594 818 l 355 818 l 355 626 l 494 626 q 523 597 523 626 l 523 464 q 494 434 523 434 l 355 434 l 355 231 l 511 231 z "},"":{"ha":1108,"x_min":113,"x_max":1052,"o":"m 143 0 q 113 30 113 0 l 113 1019 q 143 1049 113 1049 l 501 1049 q 779 980 653 1049 q 979 792 905 912 q 1052 525 1052 671 q 979 258 1052 379 q 780 69 906 138 q 503 0 654 0 l 143 0 m 511 232 q 662 270 595 232 q 768 373 730 307 q 806 525 806 440 q 768 675 806 609 q 662 780 730 742 q 510 817 594 817 l 355 817 l 355 232 l 511 232 m 237 1246 q 223 1269 223 1254 q 230 1287 223 1278 l 272 1344 q 295 1358 282 1358 q 314 1352 304 1358 l 432 1270 l 551 1352 q 570 1358 560 1358 q 593 1343 584 1358 l 635 1287 q 641 1269 641 1278 q 627 1246 641 1256 l 469 1128 q 433 1116 454 1116 q 397 1128 411 1116 l 237 1246 z "},"":{"ha":1108,"x_min":113,"x_max":1052,"o":"m 143 0 q 113 30 113 0 l 113 1019 q 143 1049 113 1049 l 501 1049 q 779 980 653 1049 q 979 792 905 912 q 1052 525 1052 671 q 979 258 1052 379 q 780 69 906 138 q 503 0 654 0 l 143 0 m 511 232 q 662 270 595 232 q 768 373 730 307 q 806 525 806 440 q 768 675 806 609 q 662 780 730 742 q 510 817 594 817 l 355 817 l 355 232 l 511 232 m 446 -412 q 420 -424 434 -424 q 393 -411 405 -424 q 380 -387 380 -400 q 394 -359 380 -373 q 441 -270 441 -306 l 441 -264 l 392 -264 q 355 -227 355 -264 l 355 -131 q 392 -95 355 -95 l 500 -95 q 537 -131 537 -95 l 537 -230 q 511 -327 537 -281 q 446 -412 486 -373 z "},"":{"ha":1108,"x_min":113,"x_max":1052,"o":"m 143 0 q 113 30 113 0 l 113 1019 q 143 1049 113 1049 l 501 1049 q 779 980 653 1049 q 979 792 905 912 q 1052 525 1052 671 q 979 258 1052 379 q 780 69 906 138 q 503 0 654 0 l 143 0 m 511 232 q 662 270 595 232 q 768 373 730 307 q 806 525 806 440 q 768 675 806 609 q 662 780 730 742 q 510 817 594 817 l 355 817 l 355 232 l 511 232 m 298 -274 q 281 -279 290 -279 q 257 -263 266 -279 l 224 -207 q 219 -189 219 -197 q 234 -165 219 -175 l 390 -71 q 408 -63 399 -65 q 430 -60 417 -60 q 469 -72 451 -60 l 624 -165 q 638 -189 638 -175 q 633 -207 638 -197 l 600 -263 q 576 -279 591 -279 q 559 -274 568 -279 l 429 -203 l 298 -274 z "},"":{"ha":1108,"x_min":-16,"x_max":1052,"o":"m 113 1019 q 143 1049 113 1049 l 501 1049 q 779 980 653 1049 q 979 792 905 912 q 1052 525 1052 671 q 979 258 1052 379 q 780 69 906 138 q 503 0 654 0 l 143 0 q 113 30 113 0 l 113 434 l 13 434 q -16 464 -16 434 l -16 597 q 13 626 -16 626 l 113 626 l 113 1019 m 511 231 q 662 268 595 231 q 768 373 730 306 q 806 525 806 440 q 768 676 806 609 q 662 781 730 743 q 510 818 594 818 l 355 818 l 355 626 l 494 626 q 523 597 523 626 l 523 464 q 494 434 523 434 l 355 434 l 355 231 l 511 231 z "},"":{"ha":1108,"x_min":113,"x_max":1052,"o":"m 143 0 q 113 30 113 0 l 113 1019 q 143 1049 113 1049 l 501 1049 q 779 980 653 1049 q 979 792 905 912 q 1052 525 1052 671 q 979 258 1052 379 q 780 69 906 138 q 503 0 654 0 l 143 0 m 511 232 q 662 270 595 232 q 768 373 730 307 q 806 525 806 440 q 768 675 806 609 q 662 780 730 742 q 510 817 594 817 l 355 817 l 355 232 l 511 232 m 535 1152 q 506 1122 535 1122 l 361 1122 q 331 1152 331 1122 l 331 1283 q 361 1313 331 1313 l 506 1313 q 535 1283 535 1313 l 535 1152 z "},"":{"ha":1108,"x_min":113,"x_max":1052,"o":"m 143 0 q 113 30 113 0 l 113 1019 q 143 1049 113 1049 l 501 1049 q 779 980 653 1049 q 979 792 905 912 q 1052 525 1052 671 q 979 258 1052 379 q 780 69 906 138 q 503 0 654 0 l 143 0 m 511 232 q 662 270 595 232 q 768 373 730 307 q 806 525 806 440 q 768 675 806 609 q 662 780 730 742 q 510 817 594 817 l 355 817 l 355 232 l 511 232 m 539 -235 q 509 -265 539 -265 l 364 -265 q 335 -235 335 -265 l 335 -104 q 364 -74 335 -74 l 509 -74 q 539 -104 539 -74 l 539 -235 z "},"":{"ha":1108,"x_min":113,"x_max":1052,"o":"m 143 0 q 113 30 113 0 l 113 1019 q 143 1049 113 1049 l 501 1049 q 779 980 653 1049 q 979 792 905 912 q 1052 525 1052 671 q 979 258 1052 379 q 780 69 906 138 q 503 0 654 0 l 143 0 m 511 232 q 662 270 595 232 q 768 373 730 307 q 806 525 806 440 q 768 675 806 609 q 662 780 730 742 q 510 817 594 817 l 355 817 l 355 232 l 511 232 m 650 -197 q 620 -227 650 -227 l 270 -227 q 240 -197 240 -227 l 240 -118 q 270 -88 240 -88 l 620 -88 q 650 -118 650 -88 l 650 -197 z "},"":{"ha":1963,"x_min":113,"x_max":1908,"o":"m 143 0 q 113 30 113 0 l 113 1019 q 143 1049 113 1049 l 501 1049 q 779 980 653 1049 q 979 792 905 912 q 1052 525 1052 671 q 979 258 1052 379 q 780 69 906 138 q 503 0 654 0 l 143 0 m 511 232 q 662 270 595 232 q 768 373 730 307 q 806 525 806 440 q 768 675 806 609 q 662 780 730 742 q 510 817 594 817 l 355 817 l 355 232 l 511 232 m 1908 30 q 1878 0 1908 0 l 1193 0 q 1163 30 1163 0 l 1163 139 q 1176 176 1163 159 l 1579 693 l 1201 693 q 1171 723 1171 693 l 1171 871 q 1201 901 1171 901 l 1862 901 q 1891 871 1891 901 l 1891 771 q 1879 733 1891 750 l 1467 208 l 1878 208 q 1908 178 1908 208 l 1908 30 z "},"":{"ha":1963,"x_min":113,"x_max":1908,"o":"m 143 0 q 113 30 113 0 l 113 1019 q 143 1049 113 1049 l 501 1049 q 779 980 653 1049 q 979 792 905 912 q 1052 525 1052 671 q 979 258 1052 379 q 780 69 906 138 q 503 0 654 0 l 143 0 m 511 232 q 662 270 595 232 q 768 373 730 307 q 806 525 806 440 q 768 675 806 609 q 662 780 730 742 q 510 817 594 817 l 355 817 l 355 232 l 511 232 z "},"":{"ha":937,"x_min":113,"x_max":880,"o":"m 880 30 q 851 0 880 0 l 143 0 q 113 30 113 0 l 113 1019 q 143 1049 113 1049 l 840 1049 q 870 1019 870 1049 l 870 859 q 840 829 870 829 l 355 829 l 355 640 l 728 640 q 758 610 758 640 l 758 462 q 728 432 758 432 l 355 432 l 355 220 l 851 220 q 880 190 880 220 l 880 30 m 679 1300 q 698 1296 691 1300 q 705 1283 705 1291 q 694 1263 705 1273 l 565 1134 q 527 1118 549 1118 l 411 1118 q 393 1123 399 1118 q 386 1136 386 1128 q 393 1154 386 1145 l 485 1282 q 521 1300 497 1300 l 679 1300 z "},"":{"ha":937,"x_min":113,"x_max":880,"o":"m 880 30 q 851 0 880 0 l 143 0 q 113 30 113 0 l 113 1019 q 143 1049 113 1049 l 840 1049 q 870 1019 870 1049 l 870 859 q 840 829 870 829 l 355 829 l 355 640 l 728 640 q 758 610 758 640 l 758 462 q 728 432 758 432 l 355 432 l 355 220 l 851 220 q 880 190 880 220 l 880 30 m 505 1118 q 354 1164 408 1118 q 290 1284 300 1210 q 290 1291 290 1287 q 298 1309 290 1302 q 319 1316 305 1316 l 414 1316 q 435 1309 428 1316 q 446 1287 442 1302 q 505 1241 455 1241 q 564 1287 554 1241 q 595 1316 570 1316 l 690 1316 q 713 1309 705 1316 q 719 1292 721 1303 q 658 1166 712 1213 q 505 1118 603 1118 z "},"":{"ha":937,"x_min":113,"x_max":880,"o":"m 880 30 q 851 0 880 0 l 143 0 q 113 30 113 0 l 113 1019 q 143 1049 113 1049 l 840 1049 q 870 1019 870 1049 l 870 859 q 840 829 870 829 l 355 829 l 355 640 l 728 640 q 758 610 758 640 l 758 462 q 728 432 758 432 l 355 432 l 355 220 l 851 220 q 880 190 880 220 l 880 30 m 309 1246 q 296 1269 296 1254 q 302 1287 296 1278 l 344 1344 q 367 1358 355 1358 q 386 1352 376 1358 l 505 1270 l 624 1352 q 642 1358 632 1358 q 665 1343 656 1358 l 707 1287 q 714 1269 714 1278 q 700 1246 714 1256 l 541 1128 q 506 1116 526 1116 q 469 1128 484 1116 l 309 1246 z "},"":{"ha":937,"x_min":113,"x_max":880,"o":"m 851 220 q 880 190 880 220 l 880 30 q 851 0 880 0 l 579 0 q 621 -85 603 -40 q 639 -161 639 -130 q 624 -226 639 -198 q 565 -274 608 -254 q 443 -302 521 -294 q 407 -276 411 -305 l 399 -224 q 399 -217 399 -222 q 427 -189 399 -195 q 475 -168 464 -181 q 485 -133 485 -155 q 470 -75 485 -115 q 434 0 454 -34 l 143 0 q 113 30 113 0 l 113 1019 q 143 1049 113 1049 l 840 1049 q 870 1019 870 1049 l 870 859 q 840 829 870 829 l 355 829 l 355 640 l 728 640 q 758 610 758 640 l 758 462 q 728 432 758 432 l 355 432 l 355 220 l 851 220 z "},"":{"ha":937,"x_min":113,"x_max":880,"o":"m 505 1118 q 354 1164 408 1118 q 290 1284 300 1210 q 290 1291 290 1287 q 298 1309 290 1302 q 319 1316 305 1316 l 414 1316 q 435 1309 428 1316 q 446 1287 442 1302 q 505 1241 455 1241 q 564 1287 554 1241 q 595 1316 570 1316 l 690 1316 q 713 1309 705 1316 q 719 1292 721 1303 q 658 1166 712 1213 q 505 1118 603 1118 m 851 220 q 880 190 880 220 l 880 30 q 851 0 880 0 l 579 0 q 621 -85 603 -40 q 639 -161 639 -130 q 624 -226 639 -198 q 565 -274 608 -254 q 443 -302 521 -294 q 407 -276 411 -305 l 399 -224 q 399 -217 399 -222 q 427 -189 399 -195 q 475 -168 464 -181 q 485 -133 485 -155 q 470 -75 485 -115 q 434 0 454 -34 l 143 0 q 113 30 113 0 l 113 1019 q 143 1049 113 1049 l 840 1049 q 870 1019 870 1049 l 870 859 q 840 829 870 829 l 355 829 l 355 640 l 728 640 q 758 610 758 640 l 758 462 q 728 432 758 432 l 355 432 l 355 220 l 851 220 z "},"":{"ha":937,"x_min":113,"x_max":880,"o":"m 880 30 q 851 0 880 0 l 143 0 q 113 30 113 0 l 113 1019 q 143 1049 113 1049 l 840 1049 q 870 1019 870 1049 l 870 859 q 840 829 870 829 l 355 829 l 355 640 l 728 640 q 758 610 758 640 l 758 462 q 728 432 758 432 l 355 432 l 355 220 l 851 220 q 880 190 880 220 l 880 30 m 383 1120 q 364 1113 373 1113 q 341 1127 351 1113 l 299 1184 q 293 1202 293 1193 q 306 1226 293 1216 l 466 1343 q 503 1355 482 1355 q 538 1343 522 1355 l 697 1226 q 711 1202 711 1216 q 704 1184 711 1193 l 662 1127 q 640 1113 653 1113 q 621 1120 630 1113 l 502 1201 l 383 1120 z "},"":{"ha":937,"x_min":113,"x_max":880,"o":"m 880 30 q 851 0 880 0 l 143 0 q 113 30 113 0 l 113 1019 q 143 1049 113 1049 l 840 1049 q 870 1019 870 1049 l 870 859 q 840 829 870 829 l 355 829 l 355 640 l 728 640 q 758 610 758 640 l 758 462 q 728 432 758 432 l 355 432 l 355 220 l 851 220 q 880 190 880 220 l 880 30 z "},"":{"ha":937,"x_min":113,"x_max":880,"o":"m 880 30 q 851 0 880 0 l 143 0 q 113 30 113 0 l 113 1019 q 143 1049 113 1049 l 840 1049 q 870 1019 870 1049 l 870 859 q 840 829 870 829 l 355 829 l 355 640 l 728 640 q 758 610 758 640 l 758 462 q 728 432 758 432 l 355 432 l 355 220 l 851 220 q 880 190 880 220 l 880 30 m 366 -274 q 349 -279 358 -279 q 325 -263 334 -279 l 292 -207 q 287 -189 287 -197 q 302 -165 287 -175 l 458 -71 q 476 -63 467 -65 q 498 -60 485 -60 q 537 -72 519 -60 l 691 -165 q 706 -189 706 -175 q 701 -207 706 -197 l 668 -263 q 644 -279 659 -279 q 627 -274 635 -279 l 497 -203 l 366 -274 z "},"":{"ha":937,"x_min":113,"x_max":880,"o":"m 880 30 q 851 0 880 0 l 143 0 q 113 30 113 0 l 113 1019 q 143 1049 113 1049 l 840 1049 q 870 1019 870 1049 l 870 859 q 840 829 870 829 l 355 829 l 355 640 l 728 640 q 758 610 758 640 l 758 462 q 728 432 758 432 l 355 432 l 355 220 l 851 220 q 880 190 880 220 l 880 30 m 607 -235 q 577 -265 607 -265 l 432 -265 q 402 -235 402 -265 l 402 -104 q 432 -74 402 -74 l 577 -74 q 607 -104 607 -74 l 607 -235 m 383 1120 q 364 1113 373 1113 q 341 1127 351 1113 l 299 1184 q 293 1202 293 1193 q 306 1226 293 1216 l 466 1343 q 503 1355 482 1355 q 538 1343 522 1355 l 697 1226 q 711 1202 711 1216 q 704 1184 711 1193 l 662 1127 q 640 1113 653 1113 q 621 1120 630 1113 l 502 1201 l 383 1120 z "},"":{"ha":937,"x_min":113,"x_max":880,"o":"m 880 30 q 851 0 880 0 l 143 0 q 113 30 113 0 l 113 1019 q 143 1049 113 1049 l 840 1049 q 870 1019 870 1049 l 870 859 q 840 829 870 829 l 355 829 l 355 640 l 728 640 q 758 610 758 640 l 758 462 q 728 432 758 432 l 355 432 l 355 220 l 851 220 q 880 190 880 220 l 880 30 m 718 1241 q 733 1217 733 1232 q 728 1200 733 1208 l 694 1143 q 671 1128 685 1128 q 653 1133 662 1128 l 523 1204 l 392 1133 q 376 1128 384 1128 q 352 1143 361 1128 l 318 1201 q 313 1219 313 1209 q 328 1241 313 1233 l 397 1284 l 326 1281 q 288 1298 303 1281 l 220 1377 q 212 1396 212 1386 q 218 1408 212 1404 q 237 1414 225 1413 l 313 1417 q 334 1412 326 1417 q 349 1396 343 1408 l 405 1294 q 406 1289 406 1291 l 482 1335 q 520 1346 499 1346 q 543 1344 534 1346 q 562 1336 552 1342 l 718 1241 z "},"":{"ha":937,"x_min":113,"x_max":880,"o":"m 880 30 q 851 0 880 0 l 143 0 q 113 30 113 0 l 113 1019 q 143 1049 113 1049 l 840 1049 q 870 1019 870 1049 l 870 859 q 840 829 870 829 l 355 829 l 355 640 l 728 640 q 758 610 758 640 l 758 462 q 728 432 758 432 l 355 432 l 355 220 l 851 220 q 880 190 880 220 l 880 30 m 717 1284 q 681 1266 704 1266 q 651 1281 651 1266 q 654 1292 651 1286 q 662 1320 662 1309 q 646 1337 662 1337 q 639 1337 641 1337 l 624 1335 q 612 1338 616 1335 q 605 1350 607 1342 q 603 1361 603 1358 q 622 1387 603 1378 q 675 1399 648 1399 q 728 1386 707 1399 q 749 1352 749 1373 q 741 1320 749 1336 q 717 1284 733 1305 m 374 1115 q 357 1110 364 1110 q 333 1126 342 1110 l 300 1182 q 295 1200 295 1192 q 310 1223 295 1215 l 466 1318 q 485 1326 476 1324 q 508 1328 494 1328 q 545 1317 529 1328 l 700 1223 q 715 1200 715 1215 q 709 1182 715 1192 l 677 1126 q 652 1110 668 1110 q 635 1115 644 1110 l 505 1186 l 374 1115 z "},"":{"ha":937,"x_min":113,"x_max":880,"o":"m 880 30 q 851 0 880 0 l 143 0 q 113 30 113 0 l 113 1019 q 143 1049 113 1049 l 840 1049 q 870 1019 870 1049 l 870 859 q 840 829 870 829 l 355 829 l 355 640 l 728 640 q 758 610 758 640 l 758 462 q 728 432 758 432 l 355 432 l 355 220 l 851 220 q 880 190 880 220 l 880 30 m 431 1377 q 410 1365 421 1365 q 394 1369 402 1365 q 372 1385 379 1378 q 365 1400 365 1392 q 370 1415 365 1406 q 454 1478 402 1478 q 489 1473 473 1478 q 525 1460 505 1468 q 565 1448 552 1448 q 581 1455 574 1448 q 606 1468 595 1468 q 631 1459 615 1468 q 650 1434 650 1450 q 645 1419 650 1427 q 562 1355 613 1355 q 526 1360 543 1355 q 491 1374 509 1365 q 475 1380 488 1375 q 450 1386 461 1386 q 431 1377 440 1386 m 375 1114 q 358 1110 366 1110 q 334 1125 343 1110 l 301 1181 q 296 1199 296 1191 q 311 1223 296 1213 l 467 1317 q 485 1325 476 1323 q 509 1328 494 1328 q 546 1317 529 1328 l 700 1223 q 715 1199 715 1213 q 710 1181 715 1191 l 677 1125 q 653 1110 667 1110 q 636 1114 645 1110 l 506 1185 l 375 1114 z "},"":{"ha":937,"x_min":113,"x_max":880,"o":"m 880 30 q 851 0 880 0 l 143 0 q 113 30 113 0 l 113 1019 q 143 1049 113 1049 l 840 1049 q 870 1019 870 1049 l 870 859 q 840 829 870 829 l 355 829 l 355 640 l 728 640 q 758 610 758 640 l 758 462 q 728 432 758 432 l 355 432 l 355 220 l 851 220 q 880 190 880 220 l 880 30 m 461 1159 q 468 1139 468 1149 q 461 1126 468 1131 q 442 1121 454 1121 l 342 1121 q 305 1137 320 1121 l 190 1251 q 180 1271 180 1261 q 187 1283 180 1278 q 207 1288 194 1288 l 344 1288 q 365 1284 356 1288 q 381 1269 373 1279 l 461 1159 m 741 1158 q 747 1139 747 1148 q 741 1126 747 1131 q 721 1121 734 1121 l 621 1121 q 583 1136 599 1121 l 469 1250 q 458 1269 458 1260 q 466 1282 458 1278 q 485 1287 473 1287 l 623 1287 q 660 1269 647 1287 l 741 1158 z "},"":{"ha":937,"x_min":113,"x_max":880,"o":"m 880 30 q 851 0 880 0 l 143 0 q 113 30 113 0 l 113 1019 q 143 1049 113 1049 l 840 1049 q 870 1019 870 1049 l 870 859 q 840 829 870 829 l 355 829 l 355 640 l 728 640 q 758 610 758 640 l 758 462 q 728 432 758 432 l 355 432 l 355 220 l 851 220 q 880 190 880 220 l 880 30 m 431 1153 q 401 1123 431 1123 l 268 1123 q 238 1153 238 1123 l 238 1295 q 268 1325 238 1325 l 401 1325 q 431 1295 431 1325 l 431 1153 m 774 1153 q 744 1123 774 1123 l 611 1123 q 581 1153 581 1123 l 581 1295 q 611 1325 581 1325 l 744 1325 q 774 1295 774 1325 l 774 1153 z "},"":{"ha":937,"x_min":113,"x_max":880,"o":"m 880 30 q 851 0 880 0 l 143 0 q 113 30 113 0 l 113 1019 q 143 1049 113 1049 l 840 1049 q 870 1019 870 1049 l 870 859 q 840 829 870 829 l 355 829 l 355 640 l 728 640 q 758 610 758 640 l 758 462 q 728 432 758 432 l 355 432 l 355 220 l 851 220 q 880 190 880 220 l 880 30 m 608 1152 q 578 1122 608 1122 l 433 1122 q 403 1152 403 1122 l 403 1283 q 433 1313 403 1313 l 578 1313 q 608 1283 608 1313 l 608 1152 z "},"":{"ha":937,"x_min":113,"x_max":880,"o":"m 880 30 q 851 0 880 0 l 143 0 q 113 30 113 0 l 113 1019 q 143 1049 113 1049 l 840 1049 q 870 1019 870 1049 l 870 859 q 840 829 870 829 l 355 829 l 355 640 l 728 640 q 758 610 758 640 l 758 462 q 728 432 758 432 l 355 432 l 355 220 l 851 220 q 880 190 880 220 l 880 30 m 607 -235 q 577 -265 607 -265 l 432 -265 q 402 -235 402 -265 l 402 -104 q 432 -74 402 -74 l 577 -74 q 607 -104 607 -74 l 607 -235 z "},"":{"ha":937,"x_min":113,"x_max":880,"o":"m 880 30 q 851 0 880 0 l 143 0 q 113 30 113 0 l 113 1019 q 143 1049 113 1049 l 840 1049 q 870 1019 870 1049 l 870 859 q 840 829 870 829 l 355 829 l 355 640 l 728 640 q 758 610 758 640 l 758 462 q 728 432 758 432 l 355 432 l 355 220 l 851 220 q 880 190 880 220 l 880 30 m 594 1154 q 601 1136 601 1145 q 594 1123 601 1128 q 575 1118 587 1118 l 458 1118 q 422 1134 437 1118 l 292 1263 q 282 1284 282 1274 q 288 1296 282 1291 q 308 1300 295 1300 l 465 1300 q 501 1282 488 1300 l 594 1154 z "},"":{"ha":937,"x_min":113,"x_max":880,"o":"m 880 30 q 851 0 880 0 l 143 0 q 113 30 113 0 l 113 1019 q 143 1049 113 1049 l 840 1049 q 870 1019 870 1049 l 870 859 q 840 829 870 829 l 355 829 l 355 640 l 728 640 q 758 610 758 640 l 758 462 q 728 432 758 432 l 355 432 l 355 220 l 851 220 q 880 190 880 220 l 880 30 m 559 1145 q 541 1129 550 1132 q 504 1126 532 1126 q 470 1145 470 1126 q 474 1161 470 1151 q 484 1200 484 1183 q 463 1223 484 1223 q 443 1221 454 1223 q 429 1219 435 1219 q 404 1245 411 1219 q 402 1263 402 1256 q 405 1277 402 1272 q 419 1288 409 1283 q 502 1310 460 1310 q 578 1293 549 1310 q 607 1244 607 1275 q 596 1199 607 1221 q 559 1145 584 1178 z "},"":{"ha":937,"x_min":113,"x_max":880,"o":"m 880 30 q 851 0 880 0 l 143 0 q 113 30 113 0 l 113 1019 q 143 1049 113 1049 l 840 1049 q 870 1019 870 1049 l 870 859 q 840 829 870 829 l 355 829 l 355 640 l 728 640 q 758 610 758 640 l 758 462 q 728 432 758 432 l 355 432 l 355 220 l 851 220 q 880 190 880 220 l 880 30 m 506 1318 q 657 1272 603 1318 q 720 1151 710 1226 q 721 1144 721 1148 q 712 1126 721 1133 q 691 1120 704 1120 l 597 1120 q 576 1127 583 1120 q 565 1148 568 1134 q 506 1194 556 1194 q 447 1148 457 1194 q 436 1127 444 1134 q 416 1120 429 1120 l 320 1120 q 298 1126 305 1120 q 291 1143 290 1132 q 353 1269 299 1221 q 506 1318 407 1318 z "},"":{"ha":937,"x_min":113,"x_max":880,"o":"m 880 30 q 851 0 880 0 l 143 0 q 113 30 113 0 l 113 1019 q 143 1049 113 1049 l 840 1049 q 870 1019 870 1049 l 870 859 q 840 829 870 829 l 355 829 l 355 640 l 728 640 q 758 610 758 640 l 758 462 q 728 432 758 432 l 355 432 l 355 220 l 851 220 q 880 190 880 220 l 880 30 m 716 1153 q 686 1123 716 1123 l 337 1123 q 307 1153 307 1123 l 307 1232 q 337 1262 307 1262 l 686 1262 q 716 1232 716 1262 l 716 1153 z "},"":{"ha":937,"x_min":113,"x_max":880,"o":"m 880 30 q 851 0 880 0 l 143 0 q 113 30 113 0 l 113 1019 q 143 1049 113 1049 l 840 1049 q 870 1019 870 1049 l 870 859 q 840 829 870 829 l 355 829 l 355 640 l 728 640 q 758 610 758 640 l 758 462 q 728 432 758 432 l 355 432 l 355 220 l 851 220 q 880 190 880 220 l 880 30 m 716 1153 q 686 1123 716 1123 l 337 1123 q 307 1153 307 1123 l 307 1232 q 337 1262 307 1262 l 686 1262 q 716 1232 716 1262 l 716 1153 m 679 1485 q 698 1481 691 1485 q 705 1468 705 1476 q 694 1449 705 1458 l 565 1319 q 527 1303 549 1303 l 411 1303 q 393 1308 399 1303 q 386 1321 386 1313 q 393 1340 386 1330 l 485 1467 q 521 1485 497 1485 l 679 1485 z "},"":{"ha":937,"x_min":113,"x_max":880,"o":"m 880 30 q 851 0 880 0 l 143 0 q 113 30 113 0 l 113 1019 q 143 1049 113 1049 l 840 1049 q 870 1019 870 1049 l 870 859 q 840 829 870 829 l 355 829 l 355 640 l 728 640 q 758 610 758 640 l 758 462 q 728 432 758 432 l 355 432 l 355 220 l 851 220 q 880 190 880 220 l 880 30 m 716 1153 q 686 1123 716 1123 l 337 1123 q 307 1153 307 1123 l 307 1232 q 337 1262 307 1262 l 686 1262 q 716 1232 716 1262 l 716 1153 m 594 1340 q 601 1321 601 1330 q 594 1308 601 1313 q 575 1303 587 1303 l 458 1303 q 422 1319 437 1303 l 292 1449 q 282 1469 282 1459 q 288 1481 282 1476 q 308 1485 295 1485 l 465 1485 q 501 1467 488 1485 l 594 1340 z "},"":{"ha":937,"x_min":113,"x_max":904,"o":"m 880 30 q 851 0 880 0 l 143 0 q 113 30 113 0 l 113 1019 q 143 1049 113 1049 l 840 1049 q 870 1019 870 1049 l 870 859 q 840 829 870 829 l 355 829 l 355 640 l 728 640 q 758 610 758 640 l 758 462 q 728 432 758 432 l 355 432 l 355 220 l 851 220 q 880 190 880 220 l 880 30 m 706 -16 q 743 0 720 0 l 809 0 l 851 0 q 805 -68 817 -43 q 793 -111 793 -92 q 808 -150 793 -134 q 847 -167 822 -167 q 861 -166 856 -167 q 895 -191 892 -162 l 901 -232 q 879 -269 904 -260 q 780 -282 841 -282 q 674 -250 707 -282 q 640 -170 640 -218 q 706 -16 640 -91 z "},"":{"ha":937,"x_min":113,"x_max":880,"o":"m 880 30 q 851 0 880 0 l 143 0 q 113 30 113 0 l 113 1019 q 143 1049 113 1049 l 840 1049 q 870 1019 870 1049 l 870 859 q 840 829 870 829 l 355 829 l 355 640 l 728 640 q 758 610 758 640 l 758 462 q 728 432 758 432 l 355 432 l 355 220 l 851 220 q 880 190 880 220 l 880 30 m 371 1139 q 346 1124 360 1124 q 332 1128 338 1124 l 287 1151 q 270 1175 270 1160 q 273 1191 270 1182 q 412 1305 324 1305 q 466 1298 441 1305 q 523 1277 490 1291 q 559 1263 546 1267 q 585 1258 572 1258 q 621 1278 604 1258 q 645 1294 632 1294 q 661 1290 652 1294 l 703 1267 q 721 1243 721 1258 q 718 1226 721 1236 q 580 1113 667 1113 q 527 1120 551 1113 q 469 1141 503 1127 q 432 1155 445 1151 q 407 1160 420 1160 q 371 1139 388 1160 z "},"":{"ha":937,"x_min":113,"x_max":880,"o":"m 880 30 q 851 0 880 0 l 143 0 q 113 30 113 0 l 113 1019 q 143 1049 113 1049 l 840 1049 q 870 1019 870 1049 l 870 859 q 840 829 870 829 l 355 829 l 355 640 l 728 640 q 758 610 758 640 l 758 462 q 728 432 758 432 l 355 432 l 355 220 l 851 220 q 880 190 880 220 l 880 30 m 379 -224 q 354 -240 367 -240 q 339 -235 346 -240 l 295 -213 q 277 -187 277 -204 q 281 -172 277 -181 q 420 -58 332 -58 q 473 -65 449 -58 q 531 -87 497 -72 q 566 -101 553 -96 q 592 -105 579 -105 q 628 -85 611 -105 q 653 -69 640 -69 q 668 -73 659 -69 l 711 -96 q 729 -121 729 -105 q 725 -137 729 -128 q 588 -250 674 -250 q 532 -243 558 -250 q 476 -222 507 -235 q 441 -208 455 -213 q 414 -204 427 -204 q 379 -224 396 -204 z "},"":{"ha":862,"x_min":113,"x_max":828,"o":"m 355 30 q 325 0 355 0 l 143 0 q 113 30 113 0 l 113 1019 q 143 1049 113 1049 l 798 1049 q 828 1019 828 1049 l 828 860 q 798 830 828 830 l 355 830 l 355 578 l 689 578 q 719 548 719 578 l 719 401 q 689 371 719 371 l 355 371 l 355 30 m 564 1151 q 534 1122 564 1122 l 389 1122 q 359 1151 359 1122 l 359 1282 q 389 1312 359 1312 l 534 1312 q 564 1282 564 1312 l 564 1151 z "},"":{"ha":1035,"x_min":57,"x_max":962,"o":"m 732 453 q 762 483 732 483 l 932 483 q 962 453 962 483 l 962 119 q 944 84 962 96 q 785 8 874 35 q 601 -19 695 -19 q 326 55 450 -19 q 129 253 201 128 q 57 526 57 378 q 129 800 57 676 q 325 997 201 924 q 601 1069 450 1069 q 778 1041 694 1069 q 932 960 863 1012 q 945 938 945 949 q 936 918 945 928 l 831 780 q 809 768 821 768 q 789 774 799 768 q 700 820 748 803 q 601 837 651 837 q 453 796 522 837 q 343 683 384 754 q 302 526 302 612 q 343 366 302 439 q 453 250 385 293 q 601 208 522 208 q 732 231 672 208 l 732 453 m 778 1300 q 797 1296 791 1300 q 804 1283 804 1291 q 794 1263 804 1273 l 664 1134 q 626 1118 648 1118 l 511 1118 q 492 1123 499 1118 q 485 1136 485 1128 q 492 1154 485 1145 l 584 1282 q 621 1300 597 1300 l 778 1300 z "},"":{"ha":1035,"x_min":57,"x_max":962,"o":"m 732 453 q 762 483 732 483 l 932 483 q 962 453 962 483 l 962 119 q 944 84 962 96 q 785 8 874 35 q 601 -19 695 -19 q 326 55 450 -19 q 129 253 201 128 q 57 526 57 378 q 129 800 57 676 q 325 997 201 924 q 601 1069 450 1069 q 778 1041 694 1069 q 932 960 863 1012 q 945 938 945 949 q 936 918 945 928 l 831 780 q 809 768 821 768 q 789 774 799 768 q 700 820 748 803 q 601 837 651 837 q 453 796 522 837 q 343 683 384 754 q 302 526 302 612 q 343 366 302 439 q 453 250 385 293 q 601 208 522 208 q 732 231 672 208 l 732 453 m 604 1118 q 454 1164 508 1118 q 390 1284 399 1210 q 389 1291 389 1287 q 397 1309 389 1302 q 418 1316 405 1316 l 514 1316 q 534 1309 527 1316 q 545 1287 541 1302 q 604 1241 555 1241 q 663 1287 653 1241 q 694 1316 669 1316 l 789 1316 q 812 1309 804 1316 q 818 1292 820 1303 q 757 1166 812 1213 q 604 1118 703 1118 z "},"":{"ha":1035,"x_min":57,"x_max":962,"o":"m 732 453 q 762 483 732 483 l 932 483 q 962 453 962 483 l 962 119 q 944 84 962 96 q 785 8 874 35 q 601 -19 695 -19 q 326 55 450 -19 q 129 253 201 128 q 57 526 57 378 q 129 800 57 676 q 325 997 201 924 q 601 1069 450 1069 q 778 1041 694 1069 q 932 960 863 1012 q 945 938 945 949 q 936 918 945 928 l 831 780 q 809 768 821 768 q 789 774 799 768 q 700 820 748 803 q 601 837 651 837 q 453 796 522 837 q 343 683 384 754 q 302 526 302 612 q 343 366 302 439 q 453 250 385 293 q 601 208 522 208 q 732 231 672 208 l 732 453 m 408 1246 q 394 1269 394 1254 q 401 1287 394 1278 l 443 1344 q 466 1358 453 1358 q 485 1352 475 1358 l 603 1270 l 722 1352 q 741 1358 731 1358 q 764 1343 755 1358 l 806 1287 q 812 1269 812 1278 q 798 1246 812 1256 l 640 1128 q 604 1116 625 1116 q 568 1128 582 1116 l 408 1246 z "},"":{"ha":1035,"x_min":57,"x_max":962,"o":"m 732 453 q 762 483 732 483 l 932 483 q 962 453 962 483 l 962 119 q 944 84 962 96 q 785 8 874 35 q 601 -19 695 -19 q 326 55 450 -19 q 129 253 201 128 q 57 526 57 378 q 129 800 57 676 q 325 997 201 924 q 601 1069 450 1069 q 778 1041 694 1069 q 932 960 863 1012 q 945 938 945 949 q 936 918 945 928 l 831 780 q 809 768 821 768 q 789 774 799 768 q 700 820 748 803 q 601 837 651 837 q 453 796 522 837 q 343 683 384 754 q 302 526 302 612 q 343 366 302 439 q 453 250 385 293 q 601 208 522 208 q 732 231 672 208 l 732 453 m 482 1120 q 463 1113 472 1113 q 440 1127 450 1113 l 398 1184 q 391 1202 391 1193 q 405 1226 391 1216 l 565 1343 q 601 1355 581 1355 q 637 1343 621 1355 l 795 1226 q 809 1202 809 1216 q 803 1184 809 1193 l 761 1127 q 739 1113 752 1113 q 719 1120 729 1113 l 600 1201 l 482 1120 z "},"":{"ha":1035,"x_min":57,"x_max":962,"o":"m 732 453 q 762 483 732 483 l 932 483 q 962 453 962 483 l 962 119 q 944 84 962 96 q 785 8 874 35 q 601 -19 695 -19 q 326 55 450 -19 q 129 253 201 128 q 57 526 57 378 q 129 800 57 676 q 325 997 201 924 q 601 1069 450 1069 q 778 1041 694 1069 q 932 960 863 1012 q 945 938 945 949 q 936 918 945 928 l 831 780 q 809 768 821 768 q 789 774 799 768 q 700 820 748 803 q 601 837 651 837 q 453 796 522 837 q 343 683 384 754 q 302 526 302 612 q 343 366 302 439 q 453 250 385 293 q 601 208 522 208 q 732 231 672 208 l 732 453 m 615 -418 q 588 -430 603 -430 q 562 -417 574 -430 q 549 -393 549 -406 q 562 -365 549 -379 q 610 -276 610 -312 l 610 -270 l 561 -270 q 524 -233 524 -270 l 524 -137 q 561 -101 524 -101 l 668 -101 q 706 -137 706 -101 l 706 -236 q 680 -333 706 -287 q 615 -418 655 -379 z "},"":{"ha":1035,"x_min":57,"x_max":962,"o":"m 732 453 q 762 483 732 483 l 932 483 q 962 453 962 483 l 962 119 q 944 84 962 96 q 785 8 874 35 q 601 -19 695 -19 q 326 55 450 -19 q 129 253 201 128 q 57 526 57 378 q 129 800 57 676 q 325 997 201 924 q 601 1069 450 1069 q 778 1041 694 1069 q 932 960 863 1012 q 945 938 945 949 q 936 918 945 928 l 831 780 q 809 768 821 768 q 789 774 799 768 q 700 820 748 803 q 601 837 651 837 q 453 796 522 837 q 343 683 384 754 q 302 526 302 612 q 343 366 302 439 q 453 250 385 293 q 601 208 522 208 q 732 231 672 208 l 732 453 m 707 1152 q 677 1122 707 1122 l 532 1122 q 503 1152 503 1122 l 503 1283 q 532 1313 503 1313 l 677 1313 q 707 1283 707 1313 l 707 1152 z "},"":{"ha":1035,"x_min":57,"x_max":962,"o":"m 732 453 q 762 483 732 483 l 932 483 q 962 453 962 483 l 962 119 q 944 84 962 96 q 785 8 874 35 q 601 -19 695 -19 q 326 55 450 -19 q 129 253 201 128 q 57 526 57 378 q 129 800 57 676 q 325 997 201 924 q 601 1069 450 1069 q 778 1041 694 1069 q 932 960 863 1012 q 945 938 945 949 q 936 918 945 928 l 831 780 q 809 768 821 768 q 789 774 799 768 q 700 820 748 803 q 601 837 651 837 q 453 796 522 837 q 343 683 384 754 q 302 526 302 612 q 343 366 302 439 q 453 250 385 293 q 601 208 522 208 q 732 231 672 208 l 732 453 m 815 1153 q 786 1123 815 1123 l 436 1123 q 406 1153 406 1123 l 406 1232 q 436 1262 406 1262 l 786 1262 q 815 1232 815 1262 l 815 1153 z "},"":{"ha":1136,"x_min":46,"x_max":1094,"o":"m 1064 942 q 1094 912 1094 942 l 1094 818 q 1064 788 1094 788 l 1024 788 l 1024 30 q 994 0 1024 0 l 811 0 q 781 30 781 0 l 781 431 l 355 431 l 355 30 q 325 0 355 0 l 143 0 q 113 30 113 0 l 113 788 l 76 788 q 46 818 46 788 l 46 912 q 76 942 46 942 l 113 942 l 113 1019 q 143 1049 113 1049 l 325 1049 q 355 1019 355 1049 l 355 942 l 781 942 l 781 1019 q 811 1049 781 1049 l 994 1049 q 1024 1019 1024 1049 l 1024 942 l 1064 942 m 781 662 l 781 788 l 355 788 l 355 662 l 781 662 z "},"":{"ha":1136,"x_min":113,"x_max":1024,"o":"m 355 30 q 325 0 355 0 l 143 0 q 113 30 113 0 l 113 1019 q 143 1049 113 1049 l 325 1049 q 355 1019 355 1049 l 355 662 l 781 662 l 781 1019 q 811 1049 781 1049 l 994 1049 q 1024 1019 1024 1049 l 1024 30 q 994 0 1024 0 l 811 0 q 781 30 781 0 l 781 431 l 355 431 l 355 30 m 571 -287 q 418 -239 473 -287 q 355 -108 364 -190 q 361 -86 353 -94 q 384 -78 369 -78 l 479 -78 q 510 -107 506 -78 q 529 -146 514 -134 q 571 -158 544 -158 q 613 -146 599 -158 q 632 -107 628 -134 q 663 -78 636 -78 l 757 -78 q 780 -84 772 -78 q 787 -104 788 -91 q 725 -238 780 -189 q 571 -287 671 -287 z "},"":{"ha":1136,"x_min":113,"x_max":1024,"o":"m 355 30 q 325 0 355 0 l 143 0 q 113 30 113 0 l 113 1019 q 143 1049 113 1049 l 325 1049 q 355 1019 355 1049 l 355 662 l 781 662 l 781 1019 q 811 1049 781 1049 l 994 1049 q 1024 1019 1024 1049 l 1024 30 q 994 0 1024 0 l 811 0 q 781 30 781 0 l 781 431 l 355 431 l 355 30 m 375 1246 q 361 1269 361 1254 q 368 1287 361 1278 l 410 1344 q 433 1358 420 1358 q 452 1352 442 1358 l 570 1270 l 689 1352 q 708 1358 698 1358 q 731 1343 722 1358 l 773 1287 q 780 1269 780 1278 q 765 1246 780 1256 l 607 1128 q 571 1116 592 1116 q 535 1128 550 1116 l 375 1246 z "},"":{"ha":1136,"x_min":113,"x_max":1024,"o":"m 994 1049 q 1024 1019 1024 1049 l 1024 30 q 994 0 1024 0 l 811 0 q 781 30 781 0 l 781 431 l 355 431 l 355 30 q 349 9 355 17 q 332 1 343 1 q 392 -161 392 -106 q 376 -226 392 -198 q 317 -274 361 -254 q 196 -302 274 -294 q 160 -276 164 -305 l 152 -224 q 152 -217 152 -222 q 180 -189 152 -195 q 227 -168 217 -181 q 238 -133 238 -155 q 223 -75 238 -115 q 187 0 207 -34 l 143 0 q 113 30 113 0 l 113 1019 q 143 1049 113 1049 l 325 1049 q 355 1019 355 1049 l 355 662 l 781 662 l 781 1019 q 811 1049 781 1049 l 994 1049 z "},"":{"ha":1136,"x_min":113,"x_max":1024,"o":"m 355 30 q 325 0 355 0 l 143 0 q 113 30 113 0 l 113 1019 q 143 1049 113 1049 l 325 1049 q 355 1019 355 1049 l 355 662 l 781 662 l 781 1019 q 811 1049 781 1049 l 994 1049 q 1024 1019 1024 1049 l 1024 30 q 994 0 1024 0 l 811 0 q 781 30 781 0 l 781 431 l 355 431 l 355 30 m 449 1120 q 430 1113 439 1113 q 407 1127 417 1113 l 365 1184 q 358 1202 358 1193 q 372 1226 358 1216 l 532 1343 q 568 1355 548 1355 q 604 1343 588 1355 l 762 1226 q 777 1202 777 1216 q 770 1184 777 1193 l 728 1127 q 706 1113 719 1113 q 686 1120 696 1113 l 568 1201 l 449 1120 z "},"":{"ha":1136,"x_min":113,"x_max":1024,"o":"m 355 30 q 325 0 355 0 l 143 0 q 113 30 113 0 l 113 1019 q 143 1049 113 1049 l 325 1049 q 355 1019 355 1049 l 355 662 l 781 662 l 781 1019 q 811 1049 781 1049 l 994 1049 q 1024 1019 1024 1049 l 1024 30 q 994 0 1024 0 l 811 0 q 781 30 781 0 l 781 431 l 355 431 l 355 30 m 496 1153 q 466 1123 496 1123 l 333 1123 q 303 1153 303 1123 l 303 1295 q 333 1325 303 1325 l 466 1325 q 496 1295 496 1325 l 496 1153 m 839 1153 q 809 1123 839 1123 l 676 1123 q 646 1153 646 1123 l 646 1295 q 676 1325 646 1325 l 809 1325 q 839 1295 839 1325 l 839 1153 z "},"":{"ha":1136,"x_min":113,"x_max":1024,"o":"m 355 30 q 325 0 355 0 l 143 0 q 113 30 113 0 l 113 1019 q 143 1049 113 1049 l 325 1049 q 355 1019 355 1049 l 355 662 l 781 662 l 781 1019 q 811 1049 781 1049 l 994 1049 q 1024 1019 1024 1049 l 1024 30 q 994 0 1024 0 l 811 0 q 781 30 781 0 l 781 431 l 355 431 l 355 30 m 674 1152 q 644 1122 674 1122 l 499 1122 q 469 1152 469 1122 l 469 1283 q 499 1313 469 1313 l 644 1313 q 674 1283 674 1313 l 674 1152 z "},"":{"ha":1136,"x_min":113,"x_max":1024,"o":"m 355 30 q 325 0 355 0 l 143 0 q 113 30 113 0 l 113 1019 q 143 1049 113 1049 l 325 1049 q 355 1019 355 1049 l 355 662 l 781 662 l 781 1019 q 811 1049 781 1049 l 994 1049 q 1024 1019 1024 1049 l 1024 30 q 994 0 1024 0 l 811 0 q 781 30 781 0 l 781 431 l 355 431 l 355 30 m 674 -235 q 644 -265 674 -265 l 499 -265 q 469 -235 469 -265 l 469 -104 q 499 -74 469 -74 l 644 -74 q 674 -104 674 -74 l 674 -235 z "},"":{"ha":1155,"x_min":113,"x_max":1065,"o":"m 355 30 q 325 0 355 0 l 143 0 q 113 30 113 0 l 113 1019 q 143 1049 113 1049 l 325 1049 q 355 1019 355 1049 l 355 30 m 728 -22 q 607 2 671 -22 q 485 69 544 25 q 473 90 473 78 q 481 111 473 99 l 577 248 q 599 261 585 261 q 619 253 609 261 q 727 211 680 211 q 797 240 771 211 q 823 326 823 269 l 823 1019 q 853 1049 823 1049 l 1035 1049 q 1065 1019 1065 1049 l 1065 309 q 1024 134 1065 208 q 907 19 983 59 q 728 -22 831 -22 z "},"":{"ha":467,"x_min":107,"x_max":426,"o":"m 355 30 q 325 0 355 0 l 143 0 q 113 30 113 0 l 113 1019 q 143 1049 113 1049 l 325 1049 q 355 1019 355 1049 l 355 30 m 399 1300 q 419 1296 412 1300 q 426 1283 426 1291 q 415 1263 426 1273 l 285 1134 q 248 1118 270 1118 l 132 1118 q 114 1123 120 1118 q 107 1136 107 1128 q 114 1154 107 1145 l 205 1282 q 242 1300 218 1300 l 399 1300 z "},"":{"ha":467,"x_min":10,"x_max":441,"o":"m 355 30 q 325 0 355 0 l 143 0 q 113 30 113 0 l 113 1019 q 143 1049 113 1049 l 325 1049 q 355 1019 355 1049 l 355 30 m 226 1118 q 75 1164 129 1118 q 11 1284 21 1210 q 10 1291 10 1287 q 18 1309 10 1302 q 40 1316 26 1316 l 135 1316 q 156 1309 149 1316 q 167 1287 163 1302 q 226 1241 176 1241 q 284 1287 275 1241 q 316 1316 290 1316 l 411 1316 q 433 1309 426 1316 q 440 1292 441 1303 q 379 1166 433 1213 q 226 1118 324 1118 z "},"":{"ha":467,"x_min":16,"x_max":435,"o":"m 355 30 q 325 0 355 0 l 143 0 q 113 30 113 0 l 113 1019 q 143 1049 113 1049 l 325 1049 q 355 1019 355 1049 l 355 30 m 30 1246 q 16 1269 16 1254 q 23 1287 16 1278 l 65 1344 q 88 1358 75 1358 q 107 1352 97 1358 l 226 1270 l 344 1352 q 363 1358 353 1358 q 386 1343 377 1358 l 428 1287 q 435 1269 435 1278 q 420 1246 435 1256 l 262 1128 q 226 1116 247 1116 q 190 1128 205 1116 l 30 1246 z "},"":{"ha":467,"x_min":13,"x_max":432,"o":"m 355 30 q 325 0 355 0 l 143 0 q 113 30 113 0 l 113 1019 q 143 1049 113 1049 l 325 1049 q 355 1019 355 1049 l 355 30 m 104 1120 q 85 1113 94 1113 q 62 1127 72 1113 l 20 1184 q 13 1202 13 1193 q 27 1226 13 1216 l 187 1343 q 223 1355 203 1355 q 259 1343 243 1355 l 417 1226 q 432 1202 432 1216 q 425 1184 432 1193 l 383 1127 q 361 1113 374 1113 q 341 1120 351 1113 l 223 1201 l 104 1120 z "},"":{"ha":467,"x_min":-99,"x_max":468,"o":"m 355 30 q 325 0 355 0 l 143 0 q 113 30 113 0 l 113 1019 q 143 1049 113 1049 l 325 1049 q 355 1019 355 1049 l 355 30 m 181 1159 q 189 1139 189 1149 q 182 1126 189 1131 q 163 1121 175 1121 l 63 1121 q 25 1137 41 1121 l -89 1251 q -99 1271 -99 1261 q -92 1283 -99 1278 q -72 1288 -85 1288 l 65 1288 q 85 1284 77 1288 q 102 1269 94 1279 l 181 1159 m 461 1158 q 468 1139 468 1148 q 461 1126 468 1131 q 441 1121 455 1121 l 342 1121 q 304 1136 320 1121 l 190 1250 q 179 1269 179 1260 q 186 1282 179 1278 q 206 1287 193 1287 l 343 1287 q 381 1269 367 1287 l 461 1158 z "},"":{"ha":467,"x_min":-41,"x_max":494,"o":"m 355 30 q 325 0 355 0 l 143 0 q 113 30 113 0 l 113 1019 q 143 1049 113 1049 l 325 1049 q 355 1019 355 1049 l 355 30 m 152 1153 q 122 1123 152 1123 l -11 1123 q -41 1153 -41 1123 l -41 1295 q -11 1325 -41 1325 l 122 1325 q 152 1295 152 1325 l 152 1153 m 494 1153 q 464 1123 494 1123 l 332 1123 q 302 1153 302 1123 l 302 1295 q 332 1325 302 1325 l 464 1325 q 494 1295 494 1325 l 494 1153 z "},"":{"ha":467,"x_min":-41,"x_max":494,"o":"m 355 30 q 325 0 355 0 l 143 0 q 113 30 113 0 l 113 1019 q 143 1049 113 1049 l 325 1049 q 355 1019 355 1049 l 355 30 m 152 1153 q 122 1123 152 1123 l -11 1123 q -41 1153 -41 1123 l -41 1295 q -11 1325 -41 1325 l 122 1325 q 152 1295 152 1325 l 152 1153 m 494 1153 q 464 1123 494 1123 l 332 1123 q 302 1153 302 1123 l 302 1295 q 332 1325 302 1325 l 464 1325 q 494 1295 494 1325 l 494 1153 m 394 1566 q 413 1561 406 1566 q 420 1549 420 1557 q 409 1529 420 1539 l 279 1399 q 242 1384 264 1384 l 126 1384 q 108 1389 114 1384 q 101 1402 101 1393 q 108 1420 101 1411 l 199 1548 q 236 1566 212 1566 l 394 1566 z "},"":{"ha":467,"x_min":113,"x_max":355,"o":"m 355 30 q 325 0 355 0 l 143 0 q 113 30 113 0 l 113 1019 q 143 1049 113 1049 l 325 1049 q 355 1019 355 1049 l 355 30 m 329 1152 q 299 1122 329 1122 l 154 1122 q 124 1152 124 1122 l 124 1283 q 154 1313 124 1313 l 299 1313 q 329 1283 329 1313 l 329 1152 z "},"":{"ha":467,"x_min":113,"x_max":355,"o":"m 355 30 q 325 0 355 0 l 143 0 q 113 30 113 0 l 113 1019 q 143 1049 113 1049 l 325 1049 q 355 1019 355 1049 l 355 30 m 337 -235 q 307 -265 337 -265 l 162 -265 q 132 -235 132 -265 l 132 -104 q 162 -74 132 -74 l 307 -74 q 337 -104 337 -74 l 337 -235 z "},"":{"ha":467,"x_min":2,"x_max":355,"o":"m 355 30 q 325 0 355 0 l 143 0 q 113 30 113 0 l 113 1019 q 143 1049 113 1049 l 325 1049 q 355 1019 355 1049 l 355 30 m 314 1154 q 322 1136 322 1145 q 315 1123 322 1128 q 296 1118 308 1118 l 179 1118 q 143 1134 158 1118 l 13 1263 q 2 1284 2 1274 q 9 1296 2 1291 q 28 1300 16 1300 l 186 1300 q 222 1282 209 1300 l 314 1154 z "},"":{"ha":467,"x_min":113,"x_max":355,"o":"m 355 30 q 325 0 355 0 l 143 0 q 113 30 113 0 l 113 1019 q 143 1049 113 1049 l 325 1049 q 355 1019 355 1049 l 355 30 m 280 1145 q 262 1129 271 1132 q 225 1126 252 1126 q 191 1145 191 1126 q 195 1161 191 1151 q 205 1200 205 1183 q 184 1223 205 1223 q 164 1221 175 1223 q 149 1219 156 1219 q 125 1245 131 1219 q 122 1263 122 1256 q 126 1277 122 1272 q 140 1288 130 1283 q 223 1310 181 1310 q 299 1293 270 1310 q 328 1244 328 1275 q 316 1199 328 1221 q 280 1145 305 1178 z "},"":{"ha":467,"x_min":10,"x_max":441,"o":"m 355 30 q 325 0 355 0 l 143 0 q 113 30 113 0 l 113 1019 q 143 1049 113 1049 l 325 1049 q 355 1019 355 1049 l 355 30 m 227 1318 q 377 1272 324 1318 q 441 1151 431 1226 q 441 1144 441 1148 q 433 1126 441 1133 q 412 1120 425 1120 l 317 1120 q 296 1127 304 1120 q 286 1148 289 1134 q 227 1194 276 1194 q 168 1148 178 1194 q 157 1127 164 1134 q 137 1120 150 1120 l 41 1120 q 18 1126 26 1120 q 12 1143 10 1132 q 74 1269 19 1221 q 227 1318 128 1318 z "},"":{"ha":467,"x_min":28,"x_max":437,"o":"m 355 30 q 325 0 355 0 l 143 0 q 113 30 113 0 l 113 1019 q 143 1049 113 1049 l 325 1049 q 355 1019 355 1049 l 355 30 m 437 1153 q 407 1123 437 1123 l 57 1123 q 28 1153 28 1123 l 28 1232 q 57 1262 28 1262 l 407 1262 q 437 1232 437 1262 l 437 1153 z "},"":{"ha":467,"x_min":113,"x_max":379,"o":"m 355 30 q 325 0 355 0 l 143 0 q 113 30 113 0 l 113 1019 q 143 1049 113 1049 l 325 1049 q 355 1019 355 1049 l 355 30 m 181 -16 q 217 0 194 0 l 284 0 l 325 0 q 279 -68 291 -43 q 267 -111 267 -92 q 282 -150 267 -134 q 321 -167 296 -167 q 335 -166 330 -167 q 370 -191 367 -162 l 375 -232 q 353 -269 379 -260 q 255 -282 315 -282 q 148 -250 181 -282 q 114 -170 114 -218 q 181 -16 114 -91 z "},"":{"ha":467,"x_min":-10,"x_max":442,"o":"m 355 30 q 325 0 355 0 l 143 0 q 113 30 113 0 l 113 1019 q 143 1049 113 1049 l 325 1049 q 355 1019 355 1049 l 355 30 m 92 1139 q 67 1124 81 1124 q 52 1128 59 1124 l 8 1151 q -10 1175 -10 1160 q -6 1191 -10 1182 q 133 1305 45 1305 q 186 1298 162 1305 q 244 1277 211 1291 q 280 1263 267 1267 q 305 1258 293 1258 q 341 1278 325 1258 q 366 1294 353 1294 q 382 1290 373 1294 l 424 1267 q 442 1243 442 1258 q 438 1226 442 1236 q 301 1113 388 1113 q 248 1120 272 1113 q 190 1141 223 1127 q 153 1155 166 1151 q 128 1160 140 1160 q 92 1139 109 1160 z "},"":{"ha":467,"x_min":7,"x_max":458,"o":"m 355 30 q 325 0 355 0 l 143 0 q 113 30 113 0 l 113 1019 q 143 1049 113 1049 l 325 1049 q 355 1019 355 1049 l 355 30 m 108 -224 q 84 -240 96 -240 q 69 -235 76 -240 l 25 -213 q 7 -187 7 -204 q 10 -172 7 -181 q 149 -58 61 -58 q 203 -65 178 -58 q 261 -87 227 -72 q 296 -101 283 -96 q 322 -105 309 -105 q 358 -85 341 -105 q 382 -69 370 -69 q 398 -73 389 -69 l 441 -96 q 458 -121 458 -105 q 455 -137 458 -128 q 317 -250 404 -250 q 262 -243 287 -250 q 206 -222 237 -235 q 171 -208 184 -213 q 144 -204 157 -204 q 108 -224 125 -204 z "},"":{"ha":688,"x_min":5,"x_max":680,"o":"m 261 -22 q 140 2 203 -22 q 17 69 76 25 q 5 90 5 78 q 13 111 5 99 l 110 248 q 131 261 118 261 q 152 253 142 261 q 259 211 213 211 q 330 240 304 211 q 355 326 355 269 l 355 1019 q 385 1049 355 1049 l 568 1049 q 597 1019 597 1049 l 597 309 q 557 134 597 208 q 440 19 516 59 q 261 -22 364 -22 m 352 1120 q 333 1113 342 1113 q 310 1127 320 1113 l 268 1184 q 261 1202 261 1193 q 275 1226 261 1216 l 435 1343 q 471 1355 451 1355 q 507 1343 491 1355 l 665 1226 q 680 1202 680 1216 q 673 1184 680 1193 l 631 1127 q 609 1113 622 1113 q 589 1120 599 1113 l 470 1201 l 352 1120 z "},"":{"ha":1072,"x_min":113,"x_max":1044,"o":"m 1038 36 q 1044 18 1044 27 q 1037 5 1044 10 q 1019 0 1030 0 l 796 0 q 760 19 772 0 l 485 429 l 355 279 l 355 30 q 325 0 355 0 l 143 0 q 113 30 113 0 l 113 1019 q 143 1049 113 1049 l 325 1049 q 355 1019 355 1049 l 355 608 l 706 1032 q 743 1049 721 1049 l 968 1049 q 987 1045 980 1049 q 994 1032 994 1040 q 985 1013 994 1023 l 642 613 l 1038 36 m 706 1300 q 726 1296 719 1300 q 733 1283 733 1291 q 722 1263 733 1273 l 592 1134 q 555 1118 576 1118 l 439 1118 q 420 1123 427 1118 q 414 1136 414 1128 q 420 1154 414 1145 l 512 1282 q 549 1300 525 1300 l 706 1300 z "},"":{"ha":1072,"x_min":113,"x_max":1044,"o":"m 1038 36 q 1044 18 1044 27 q 1037 5 1044 10 q 1019 0 1030 0 l 796 0 q 760 19 772 0 l 485 429 l 355 279 l 355 30 q 325 0 355 0 l 143 0 q 113 30 113 0 l 113 1019 q 143 1049 113 1049 l 325 1049 q 355 1019 355 1049 l 355 608 l 706 1032 q 743 1049 721 1049 l 968 1049 q 987 1045 980 1049 q 994 1032 994 1040 q 985 1013 994 1023 l 642 613 l 1038 36 m 337 1246 q 323 1269 323 1254 q 330 1287 323 1278 l 372 1344 q 395 1358 382 1358 q 414 1352 404 1358 l 532 1270 l 651 1352 q 670 1358 660 1358 q 693 1343 684 1358 l 735 1287 q 741 1269 741 1278 q 727 1246 741 1256 l 569 1128 q 533 1116 554 1116 q 497 1128 511 1116 l 337 1246 z "},"":{"ha":1072,"x_min":113,"x_max":1044,"o":"m 1038 36 q 1044 18 1044 27 q 1037 5 1044 10 q 1019 0 1030 0 l 796 0 q 760 19 772 0 l 485 429 l 355 279 l 355 30 q 325 0 355 0 l 143 0 q 113 30 113 0 l 113 1019 q 143 1049 113 1049 l 325 1049 q 355 1019 355 1049 l 355 608 l 706 1032 q 743 1049 721 1049 l 968 1049 q 987 1045 980 1049 q 994 1032 994 1040 q 985 1013 994 1023 l 642 613 l 1038 36 m 535 -412 q 509 -424 523 -424 q 482 -411 495 -424 q 470 -387 470 -400 q 483 -359 470 -373 q 531 -270 531 -306 l 531 -264 l 482 -264 q 445 -227 445 -264 l 445 -131 q 482 -95 445 -95 l 589 -95 q 626 -131 626 -95 l 626 -230 q 601 -327 626 -281 q 535 -412 576 -373 z "},"":{"ha":1072,"x_min":113,"x_max":1044,"o":"m 1038 36 q 1044 18 1044 27 q 1037 5 1044 10 q 1019 0 1030 0 l 796 0 q 760 19 772 0 l 485 429 l 355 279 l 355 30 q 325 0 355 0 l 143 0 q 113 30 113 0 l 113 1019 q 143 1049 113 1049 l 325 1049 q 355 1019 355 1049 l 355 608 l 706 1032 q 743 1049 721 1049 l 968 1049 q 987 1045 980 1049 q 994 1032 994 1040 q 985 1013 994 1023 l 642 613 l 1038 36 m 629 -235 q 600 -265 629 -265 l 455 -265 q 425 -235 425 -265 l 425 -104 q 455 -74 425 -74 l 600 -74 q 629 -104 629 -74 l 629 -235 z "},"":{"ha":1072,"x_min":113,"x_max":1044,"o":"m 1038 36 q 1044 18 1044 27 q 1037 5 1044 10 q 1019 0 1030 0 l 796 0 q 760 19 772 0 l 485 429 l 355 279 l 355 30 q 325 0 355 0 l 143 0 q 113 30 113 0 l 113 1019 q 143 1049 113 1049 l 325 1049 q 355 1019 355 1049 l 355 608 l 706 1032 q 743 1049 721 1049 l 968 1049 q 987 1045 980 1049 q 994 1032 994 1040 q 985 1013 994 1023 l 642 613 l 1038 36 m 740 -197 q 710 -227 740 -227 l 361 -227 q 331 -197 331 -227 l 331 -118 q 361 -88 331 -88 l 710 -88 q 740 -118 740 -88 l 740 -197 z "},"":{"ha":1527,"x_min":113,"x_max":1437,"o":"m 809 30 q 780 0 809 0 l 143 0 q 113 30 113 0 l 113 1019 q 143 1049 113 1049 l 325 1049 q 355 1019 355 1049 l 355 231 l 780 231 q 809 202 809 231 l 809 30 m 1100 -22 q 979 2 1042 -22 q 856 69 915 25 q 845 90 845 78 q 853 111 845 99 l 949 248 q 971 261 957 261 q 991 253 981 261 q 1098 211 1052 211 q 1169 240 1143 211 q 1195 326 1195 269 l 1195 1019 q 1225 1049 1195 1049 l 1407 1049 q 1437 1019 1437 1049 l 1437 309 q 1396 134 1437 208 q 1279 19 1355 59 q 1100 -22 1203 -22 z "},"":{"ha":832,"x_min":108,"x_max":809,"o":"m 809 30 q 780 0 809 0 l 143 0 q 113 30 113 0 l 113 1019 q 143 1049 113 1049 l 325 1049 q 355 1019 355 1049 l 355 231 l 780 231 q 809 202 809 231 l 809 30 m 401 1300 q 420 1296 414 1300 q 427 1283 427 1291 q 417 1263 427 1273 l 287 1134 q 249 1118 271 1118 l 134 1118 q 115 1123 122 1118 q 108 1136 108 1128 q 115 1154 108 1145 l 207 1282 q 243 1300 220 1300 l 401 1300 z "},"":{"ha":832,"x_min":113,"x_max":809,"o":"m 809 30 q 780 0 809 0 l 143 0 q 113 30 113 0 l 113 1019 q 143 1049 113 1049 l 325 1049 q 355 1019 355 1049 l 355 231 l 780 231 q 809 202 809 231 l 809 30 m 750 789 q 719 759 748 759 l 635 759 q 613 767 621 759 q 605 789 606 774 l 593 1019 q 600 1041 592 1033 q 622 1049 607 1049 l 735 1049 q 757 1041 750 1049 q 763 1019 764 1033 l 750 789 z "},"":{"ha":832,"x_min":113,"x_max":809,"o":"m 809 30 q 780 0 809 0 l 143 0 q 113 30 113 0 l 113 1019 q 143 1049 113 1049 l 325 1049 q 355 1019 355 1049 l 355 231 l 780 231 q 809 202 809 231 l 809 30 m 252 -274 q 234 -279 243 -279 q 211 -263 220 -279 l 178 -207 q 172 -189 172 -197 q 187 -165 172 -175 l 343 -71 q 362 -63 353 -65 q 384 -60 371 -60 q 423 -72 405 -60 l 577 -165 q 592 -189 592 -175 q 587 -207 592 -197 l 554 -263 q 529 -279 544 -279 q 513 -274 521 -279 l 382 -203 l 252 -274 z "},"":{"ha":832,"x_min":113,"x_max":809,"o":"m 809 30 q 780 0 809 0 l 143 0 q 113 30 113 0 l 113 1019 q 143 1049 113 1049 l 325 1049 q 355 1019 355 1049 l 355 231 l 780 231 q 809 202 809 231 l 809 30 m 399 -412 q 373 -424 388 -424 q 346 -411 359 -424 q 334 -387 334 -400 q 347 -359 334 -373 q 395 -270 395 -306 l 395 -264 l 346 -264 q 309 -227 309 -264 l 309 -131 q 346 -95 309 -95 l 453 -95 q 491 -131 491 -95 l 491 -230 q 465 -327 491 -281 q 399 -412 440 -373 z "},"":{"ha":1134,"x_min":113,"x_max":1087,"o":"m 809 30 q 780 0 809 0 l 143 0 q 113 30 113 0 l 113 1019 q 143 1049 113 1049 l 325 1049 q 355 1019 355 1049 l 355 231 l 780 231 q 809 202 809 231 l 809 30 m 1087 287 q 1063 263 1087 263 l 902 263 q 877 287 877 263 l 877 434 q 902 458 877 458 l 1063 458 q 1087 434 1087 458 l 1087 287 z "},"":{"ha":832,"x_min":113,"x_max":809,"o":"m 809 30 q 780 0 809 0 l 143 0 q 113 30 113 0 l 113 1019 q 143 1049 113 1049 l 325 1049 q 355 1019 355 1049 l 355 231 l 780 231 q 809 202 809 231 l 809 30 m 493 -235 q 463 -265 493 -265 l 318 -265 q 288 -235 288 -265 l 288 -104 q 318 -74 288 -74 l 463 -74 q 493 -104 493 -74 l 493 -235 z "},"":{"ha":832,"x_min":29,"x_max":809,"o":"m 809 30 q 780 0 809 0 l 143 0 q 113 30 113 0 l 113 1019 q 143 1049 113 1049 l 325 1049 q 355 1019 355 1049 l 355 231 l 780 231 q 809 202 809 231 l 809 30 m 493 -235 q 463 -265 493 -265 l 318 -265 q 288 -235 288 -265 l 288 -104 q 318 -74 288 -74 l 463 -74 q 493 -104 493 -74 l 493 -235 m 438 1153 q 408 1123 438 1123 l 59 1123 q 29 1153 29 1123 l 29 1232 q 59 1262 29 1262 l 408 1262 q 438 1232 438 1262 l 438 1153 z "},"":{"ha":1278,"x_min":113,"x_max":1169,"o":"m 809 30 q 780 0 809 0 l 143 0 q 113 30 113 0 l 113 1019 q 143 1049 113 1049 l 325 1049 q 355 1019 355 1049 l 355 231 l 780 231 q 809 202 809 231 l 809 30 m 966 1013 q 936 1043 936 1013 l 936 1198 q 966 1228 936 1228 l 1139 1228 q 1169 1198 1169 1228 l 1169 1043 q 1139 1013 1169 1013 l 966 1013 m 845 -284 q 824 -277 831 -284 q 816 -255 816 -269 l 816 -108 q 833 -78 816 -78 q 914 -48 889 -78 q 939 43 939 -18 l 939 871 q 968 901 939 901 l 1136 901 q 1166 871 1166 901 l 1166 43 q 1083 -199 1166 -114 q 845 -284 1001 -284 z "},"":{"ha":832,"x_min":113,"x_max":809,"o":"m 809 30 q 780 0 809 0 l 143 0 q 113 30 113 0 l 113 1019 q 143 1049 113 1049 l 325 1049 q 355 1019 355 1049 l 355 231 l 780 231 q 809 202 809 231 l 809 30 m 603 -197 q 573 -227 603 -227 l 224 -227 q 194 -197 194 -227 l 194 -118 q 224 -88 194 -88 l 573 -88 q 603 -118 603 -88 l 603 -197 z "},"":{"ha":832,"x_min":-55,"x_max":809,"o":"m 780 231 q 809 202 809 231 l 809 30 q 780 0 809 0 l 143 0 q 113 30 113 0 l 113 396 l 15 349 q -1 345 8 345 q -25 362 -17 345 l -52 416 q -55 432 -55 423 q -38 456 -55 448 l 113 529 l 113 1019 q 143 1049 113 1049 l 325 1049 q 355 1019 355 1049 l 355 644 l 465 697 q 482 701 474 701 q 506 684 497 701 l 532 629 q 536 615 536 621 q 518 590 536 599 l 355 511 l 355 231 l 780 231 z "},"":{"ha":1353,"x_min":60,"x_max":1293,"o":"m 306 28 q 275 0 302 0 l 90 0 q 68 8 75 0 q 62 31 60 16 l 187 1022 q 197 1042 188 1035 q 219 1049 205 1049 l 438 1049 q 470 1024 464 1049 l 677 336 l 882 1024 q 915 1049 889 1049 l 1134 1049 q 1156 1042 1147 1049 q 1166 1022 1164 1035 l 1291 31 q 1285 7 1293 16 q 1263 -1 1278 -1 l 1078 -1 q 1046 28 1050 -1 l 979 661 l 790 25 q 757 0 783 0 l 598 0 q 565 25 572 0 l 376 661 l 306 28 m 848 1300 q 867 1296 860 1300 q 874 1283 874 1291 q 863 1263 874 1273 l 733 1134 q 696 1118 718 1118 l 580 1118 q 562 1123 568 1118 q 555 1136 555 1128 q 562 1154 555 1145 l 653 1282 q 690 1300 666 1300 l 848 1300 z "},"":{"ha":1353,"x_min":60,"x_max":1293,"o":"m 306 28 q 275 0 302 0 l 90 0 q 68 8 75 0 q 62 31 60 16 l 187 1022 q 197 1042 188 1035 q 219 1049 205 1049 l 438 1049 q 470 1024 464 1049 l 677 336 l 882 1024 q 915 1049 889 1049 l 1134 1049 q 1156 1042 1147 1049 q 1166 1022 1164 1035 l 1291 31 q 1285 7 1293 16 q 1263 -1 1278 -1 l 1078 -1 q 1046 28 1050 -1 l 979 661 l 790 25 q 757 0 783 0 l 598 0 q 565 25 572 0 l 376 661 l 306 28 m 777 1152 q 747 1122 777 1122 l 602 1122 q 572 1152 572 1122 l 572 1283 q 602 1313 572 1313 l 747 1313 q 777 1283 777 1313 l 777 1152 z "},"":{"ha":1353,"x_min":60,"x_max":1293,"o":"m 306 28 q 275 0 302 0 l 90 0 q 68 8 75 0 q 62 31 60 16 l 187 1022 q 197 1042 188 1035 q 219 1049 205 1049 l 438 1049 q 470 1024 464 1049 l 677 336 l 882 1024 q 915 1049 889 1049 l 1134 1049 q 1156 1042 1147 1049 q 1166 1022 1164 1035 l 1291 31 q 1285 7 1293 16 q 1263 -1 1278 -1 l 1078 -1 q 1046 28 1050 -1 l 979 661 l 790 25 q 757 0 783 0 l 598 0 q 565 25 572 0 l 376 661 l 306 28 m 776 -235 q 746 -265 776 -265 l 601 -265 q 571 -235 571 -265 l 571 -104 q 601 -74 571 -74 l 746 -74 q 776 -104 776 -74 l 776 -235 z "},"":{"ha":1822,"x_min":113,"x_max":1732,"o":"m 349 30 q 319 0 349 0 l 143 0 q 113 30 113 0 l 113 1019 q 143 1049 113 1049 l 341 1049 q 377 1030 365 1049 l 786 410 l 786 1019 q 815 1049 786 1049 l 992 1049 q 1022 1019 1022 1049 l 1022 30 q 992 0 1022 0 l 815 0 q 779 19 792 0 l 349 668 l 349 30 m 1395 -22 q 1274 2 1337 -22 q 1151 69 1210 25 q 1139 90 1139 78 q 1148 111 1139 99 l 1244 248 q 1266 261 1252 261 q 1286 253 1276 261 q 1393 211 1347 211 q 1464 240 1438 211 q 1490 326 1490 269 l 1490 1019 q 1520 1049 1490 1049 l 1702 1049 q 1732 1019 1732 1049 l 1732 309 q 1691 134 1732 208 q 1574 19 1650 59 q 1395 -22 1498 -22 z "},"":{"ha":1134,"x_min":113,"x_max":1022,"o":"m 349 30 q 319 0 349 0 l 143 0 q 113 30 113 0 l 113 1019 q 143 1049 113 1049 l 341 1049 q 377 1030 365 1049 l 786 410 l 786 1019 q 815 1049 786 1049 l 992 1049 q 1022 1019 1022 1049 l 1022 30 q 992 0 1022 0 l 815 0 q 779 19 792 0 l 349 668 l 349 30 m 737 1300 q 756 1296 750 1300 q 763 1283 763 1291 q 753 1263 763 1273 l 623 1134 q 585 1118 607 1118 l 470 1118 q 451 1123 458 1118 q 444 1136 444 1128 q 451 1154 444 1145 l 543 1282 q 579 1300 556 1300 l 737 1300 z "},"":{"ha":1134,"x_min":113,"x_max":1022,"o":"m 349 30 q 319 0 349 0 l 143 0 q 113 30 113 0 l 113 1019 q 143 1049 113 1049 l 341 1049 q 377 1030 365 1049 l 786 410 l 786 1019 q 815 1049 786 1049 l 992 1049 q 1022 1019 1022 1049 l 1022 30 q 992 0 1022 0 l 815 0 q 779 19 792 0 l 349 668 l 349 30 m 367 1246 q 354 1269 354 1254 q 361 1287 354 1278 l 402 1344 q 426 1358 413 1358 q 444 1352 435 1358 l 563 1270 l 682 1352 q 700 1358 691 1358 q 724 1343 715 1358 l 765 1287 q 772 1269 772 1278 q 758 1246 772 1256 l 600 1128 q 564 1116 585 1116 q 527 1128 542 1116 l 367 1246 z "},"":{"ha":1134,"x_min":113,"x_max":1022,"o":"m 349 30 q 319 0 349 0 l 143 0 q 113 30 113 0 l 113 1019 q 143 1049 113 1049 l 341 1049 q 377 1030 365 1049 l 786 410 l 786 1019 q 815 1049 786 1049 l 992 1049 q 1022 1019 1022 1049 l 1022 30 q 992 0 1022 0 l 815 0 q 779 19 792 0 l 349 668 l 349 30 m 425 -274 q 408 -279 417 -279 q 384 -263 393 -279 l 351 -207 q 346 -189 346 -197 q 361 -165 346 -175 l 517 -71 q 535 -63 526 -65 q 557 -60 544 -60 q 596 -72 578 -60 l 750 -165 q 765 -189 765 -175 q 760 -207 765 -197 l 727 -263 q 703 -279 718 -279 q 686 -274 694 -279 l 556 -203 l 425 -274 z "},"":{"ha":1134,"x_min":113,"x_max":1022,"o":"m 349 30 q 319 0 349 0 l 143 0 q 113 30 113 0 l 113 1019 q 143 1049 113 1049 l 341 1049 q 377 1030 365 1049 l 786 410 l 786 1019 q 815 1049 786 1049 l 992 1049 q 1022 1019 1022 1049 l 1022 30 q 992 0 1022 0 l 815 0 q 779 19 792 0 l 349 668 l 349 30 m 573 -412 q 547 -424 561 -424 q 520 -411 532 -424 q 507 -387 507 -400 q 520 -359 507 -373 q 568 -270 568 -306 l 568 -264 l 519 -264 q 482 -227 482 -264 l 482 -131 q 519 -95 482 -95 l 626 -95 q 664 -131 664 -95 l 664 -230 q 638 -327 664 -281 q 573 -412 613 -373 z "},"":{"ha":1134,"x_min":113,"x_max":1022,"o":"m 349 30 q 319 0 349 0 l 143 0 q 113 30 113 0 l 113 1019 q 143 1049 113 1049 l 341 1049 q 377 1030 365 1049 l 786 410 l 786 1019 q 815 1049 786 1049 l 992 1049 q 1022 1019 1022 1049 l 1022 30 q 992 0 1022 0 l 815 0 q 779 19 792 0 l 349 668 l 349 30 m 666 1152 q 636 1122 666 1122 l 491 1122 q 461 1152 461 1122 l 461 1283 q 491 1313 461 1313 l 636 1313 q 666 1283 666 1313 l 666 1152 z "}}}
